<?xml version="1.0" encoding="UTF-8" standalone="no"?>
<!DOCTYPE svg PUBLIC "-//W3C//DTD SVG 1.1//EN" "http://www.w3.org/Graphics/SVG/1.1/DTD/svg11.dtd">
<svg width="100%" height="100%" viewBox="0 0 2207 2207" version="1.1" xmlns="http://www.w3.org/2000/svg" xmlns:xlink="http://www.w3.org/1999/xlink" xml:space="preserve" xmlns:serif="http://www.serif.com/" style="fill-rule:evenodd;clip-rule:evenodd;stroke-linejoin:round;stroke-miterlimit:2;">
    <g transform="matrix(1,0,0,1,-1345,-6494)">
        <g id="Page3" transform="matrix(1.83917,0,0,1.83917,1345,6494)">
            <rect x="0" y="0" width="1200" height="1200" style="fill:none;"/>
            <g id="Capa-1" serif:id="Capa 1" transform="matrix(2.26552,0,0,2.26552,-751.971,-473.04)">
                <g transform="matrix(1,0,0,1,667.56,400.22)">
                    <path d="M0,-51.946C-0.862,-60.73 -2.36,-69.477 -4.634,-78.008C-8.101,-91.013 -13.456,-103.553 -21.471,-114.097C-30.335,-125.759 -41.376,-132.96 -55.825,-135.305C-54.128,-133.603 -52.637,-131.719 -51.424,-129.697C-44.15,-117.566 -45.142,-101.943 -50.288,-89.533C-60.236,-65.537 -82.679,-50.143 -96.697,-28.871C-108.644,-10.743 -113.774,11.22 -110.437,32.492C-101.705,49.852 -89.482,66.388 -73.8,81.322C-71.505,79.694 -68.912,78.802 -66.297,78.587C-71.594,63.411 -71.479,46.299 -66.103,31.132C-70.185,27.309 -71.717,20.854 -69.516,15.671C-67.98,12.055 -64.997,9.299 -62.48,6.283C-59.962,3.268 -57.766,-0.48 -58.329,-4.368C-53.075,0.957 -48.576,8.818 -50.197,16.12C-51.649,22.658 -56.384,28.426 -62.391,31.432C-67.992,46.509 -68.059,63.727 -62.415,78.769C-59.245,79.327 -56.247,80.88 -53.941,83.359C-44.245,74.141 -30.916,58.805 -29.262,56.497C-6.965,25.383 3.743,-13.822 0,-51.946" style="fill:rgb(245,228,215);fill-rule:nonzero;"/>
                </g>
                <g opacity="0.62">
                    <g transform="matrix(1,0,0,1,565.299,309.46)">
                        <path d="M0,60.176C14.019,38.904 36.133,25.289 46.082,1.294C51.227,-11.117 53.049,-26.103 45.774,-38.234C44.562,-40.257 42.863,-42.843 41.166,-44.545C37.187,-48.538 20.658,-43.608 16.396,-41.838C-12.082,-30.009 -21.937,5.028 -23.981,33.03C-25.852,58.645 -19.886,84.039 -13.722,108.714C-13.927,89.668 -9.235,74.19 0,60.176" style="fill:rgb(235,173,207);fill-rule:nonzero;"/>
                    </g>
                </g>
                <g opacity="0.62">
                    <g transform="matrix(1,0,0,1,581.972,416.984)">
                        <path d="M0,80.844C-20.332,80.844 -40.263,74.41 -55.701,62.462C-76.709,46.199 -88.905,19.325 -86.769,-6.004C-86.306,-11.488 -85.163,-16.897 -83.42,-22.103C-109.818,-29.583 -138.582,-29.898 -166.81,-21.415C-166.946,-21.374 -167.081,-21.333 -167.216,-21.292C-189.518,-14.52 -210.131,17.309 -191.129,45.665C-191.051,45.781 -190.97,45.895 -190.89,46.01C-148.634,106.973 -66.992,110.742 0.531,80.831C0.355,80.832 0.177,80.844 0,80.844" style="fill:rgb(235,173,207);fill-rule:nonzero;"/>
                    </g>
                </g>
                <g opacity="0.62">
                    <g transform="matrix(1,0,0,1,592.533,684.654)">
                        <path d="M0,-179.405C-8.579,-173.911 -15.973,-166.582 -21.395,-157.931C-27.82,-147.68 -31.436,-135.756 -31.88,-123.687C-29.46,-123.189 -27.284,-121.635 -26.133,-119.235C-24.178,-115.156 -25.899,-110.265 -29.977,-108.31C-34.055,-106.354 -38.947,-108.075 -40.903,-112.154C-42.858,-116.232 -41.137,-121.123 -37.059,-123.079C-36.542,-123.326 -36.012,-123.513 -35.477,-123.646C-35.037,-136.4 -31.232,-149.008 -24.443,-159.841C-18.845,-168.771 -11.248,-176.361 -2.438,-182.107C-3.506,-183.647 -4.258,-185.314 -4.692,-187.034C-6.65,-186.909 -8.607,-186.826 -10.561,-186.826C-14.716,-186.826 -18.851,-187.109 -22.937,-187.639C-89.596,-174.011 -140.426,-115.831 -142.001,-44.933C-142.004,-44.792 -142.007,-44.65 -142.01,-44.509C-142.461,-21.206 -118.56,8.234 -85.72,-1.076C-85.585,-1.114 -85.452,-1.156 -85.318,-1.196C-13.146,-22.886 15.42,-101.478 6.536,-175.999C4.146,-176.559 1.906,-177.729 0,-179.405" style="fill:rgb(235,173,207);fill-rule:nonzero;"/>
                    </g>
                </g>
                <g opacity="0.62">
                    <g transform="matrix(0.258187,-0.966095,-0.966095,-0.258187,695.736,457.703)">
                        <path d="M-54.041,-36.816C-41.961,-26.729 -33.54,-11.555 -31.795,5.063C-29.566,26.261 -38.035,49.347 -54.041,66.419C-57.088,65.358 -60.417,65.251 -63.533,66.215C-73.058,30.958 -69.008,-5.476 -54.041,-36.816" style="fill:rgb(235,173,207);fill-rule:nonzero;"/>
                    </g>
                </g>
                <g opacity="0.62">
                    <g transform="matrix(1,0,0,1,788.801,493.708)">
                        <path d="M0,-99.057C-0.131,-99.105 -0.264,-99.15 -0.395,-99.196C-71.436,-124.036 -140.697,-77.43 -177.353,-12.06C-176.073,-11.129 -174.913,-9.99 -173.94,-8.633C-173.038,-7.374 -172.364,-6.021 -171.896,-4.625C-150.383,-15.891 -125.759,-17.952 -104.88,-9.955C-88.125,-3.538 -74.752,9.529 -67.828,24.979C-34.137,17.833 -2.746,-0.93 19.754,-30.494C19.84,-30.607 19.925,-30.72 20.011,-30.833C34.073,-49.419 32.041,-87.286 0,-99.057" style="fill:rgb(235,173,207);fill-rule:nonzero;"/>
                    </g>
                </g>
                <g opacity="0.62">
                    <g transform="matrix(1,0,0,1,723.127,629.97)">
                        <path d="M0,-70.633C-6.15,-53.241 -21.037,-39.182 -38.454,-35.753C-41.834,-32.386 -45.847,-28.42 -50.361,-27.185C-55.092,-25.891 -61.098,-27.865 -62.503,-32.563C-62.682,-33.164 -62.773,-33.764 -62.786,-34.357C-62.885,-39.126 -57.893,-43.44 -52.867,-43.811C-47.817,-44.184 -43.051,-41.887 -38.586,-39.382C-21.972,-42.885 -7.953,-56.846 -2.76,-73.801C-28.324,-102.21 -66.286,-121.667 -106.727,-129.961C-107.784,-127.551 -109.468,-125.379 -111.762,-123.735C-115.956,-120.73 -121.159,-120.179 -125.679,-121.784C-142.107,-48.902 -101.688,26.305 -29.465,51.558C-29.331,51.605 -29.198,51.651 -29.064,51.698C-7.041,59.328 28.344,45.694 29.638,11.584C29.643,11.444 29.645,11.305 29.648,11.165C30.356,-20.703 18.944,-48.286 0,-70.633" style="fill:rgb(235,173,207);fill-rule:nonzero;"/>
                    </g>
                </g>
                <g opacity="0.62">
                    <g transform="matrix(1,0,0,1,593.701,409.624)">
                        <path d="M0,71.956C0.568,71.549 1.16,71.203 1.761,70.886C-15.735,29.202 -50.642,-1.01 -91.701,-13.721C-93.374,-8.749 -94.473,-3.582 -94.915,1.658C-96.951,25.804 -85.298,51.443 -65.228,66.978C-49.052,79.499 -27.705,85.677 -6.322,84.42C-6.361,79.654 -4.169,74.943 0,71.956" style="fill:rgb(235,173,207);fill-rule:nonzero;"/>
                    </g>
                </g>
            </g>
        </g>
    </g>
</svg>
