<?xml version="1.0" encoding="UTF-8" standalone="no"?>
<!DOCTYPE svg PUBLIC "-//W3C//DTD SVG 1.1//EN" "http://www.w3.org/Graphics/SVG/1.1/DTD/svg11.dtd">
<svg width="100%" height="100%" viewBox="0 0 10000 5000" version="1.1" xmlns="http://www.w3.org/2000/svg" xmlns:xlink="http://www.w3.org/1999/xlink" xml:space="preserve" xmlns:serif="http://www.serif.com/" style="fill-rule:evenodd;clip-rule:evenodd;stroke-linejoin:round;stroke-miterlimit:2;">
    <g transform="matrix(1,0,0,1,-11250,0)">
        <g id="Page-2" serif:id="Page 2" transform="matrix(4.16667,0,0,4.16667,11250,0)">
            <rect x="0" y="0" width="2400" height="1200" style="fill:none;"/>
            <g id="Capa-1" serif:id="Capa 1">
                <g transform="matrix(1,0,0,1,534.911,510.674)">
                    <path d="M0,-62.579C-1.039,-73.161 -2.843,-83.698 -5.582,-93.975C-9.759,-109.643 -16.21,-124.749 -25.866,-137.452C-36.545,-151.501 -49.845,-160.175 -67.252,-163.001C-65.208,-160.951 -63.411,-158.681 -61.95,-156.245C-53.187,-141.63 -54.382,-122.81 -60.581,-107.859C-72.566,-78.952 -99.602,-60.407 -116.49,-34.781C-130.882,-12.943 -137.062,13.517 -133.042,39.142C-122.524,60.056 -107.798,79.977 -88.907,97.968C-86.142,96.006 -83.018,94.932 -79.867,94.673C-86.249,76.391 -86.109,55.775 -79.633,37.504C-84.551,32.899 -86.396,25.123 -83.745,18.878C-81.895,14.522 -78.301,11.202 -75.269,7.57C-72.236,3.937 -69.591,-0.578 -70.268,-5.262C-63.939,1.152 -58.519,10.623 -60.472,19.42C-62.221,27.296 -67.925,34.244 -75.161,37.866C-81.909,56.029 -81.991,76.771 -75.19,94.892C-71.371,95.565 -67.76,97.435 -64.983,100.422C-53.301,89.317 -37.245,70.842 -35.252,68.062C-8.39,30.579 4.509,-16.652 0,-62.579" style="fill:rgb(245,228,215);fill-rule:nonzero;"/>
                </g>
                <g opacity="0.62">
                    <g transform="matrix(1,0,0,1,411.717,401.337)">
                        <path d="M0,72.492C16.888,46.866 43.529,30.464 55.514,1.557C61.713,-13.394 63.907,-31.447 55.144,-46.062C53.683,-48.498 51.636,-51.614 49.593,-53.665C44.798,-58.474 24.887,-52.536 19.752,-50.403C-14.555,-36.153 -26.427,6.056 -28.89,39.79C-31.143,70.648 -23.957,101.239 -16.531,130.966C-16.778,108.021 -11.126,89.374 0,72.492" style="fill:rgb(235,173,207);fill-rule:nonzero;"/>
                    </g>
                </g>
                <g opacity="0.62">
                    <g transform="matrix(1,0,0,1,431.804,530.869)">
                        <path d="M0,97.393C-24.494,97.393 -48.505,89.642 -67.102,75.248C-92.411,55.657 -107.103,23.282 -104.53,-7.232C-103.972,-13.839 -102.596,-20.354 -100.496,-26.627C-132.297,-35.638 -166.948,-36.017 -200.955,-25.797C-201.118,-25.748 -201.281,-25.699 -201.444,-25.649C-228.311,-17.491 -253.143,20.853 -230.251,55.013C-230.157,55.153 -230.06,55.29 -229.964,55.428C-179.058,128.871 -80.704,133.41 0.64,97.378C0.427,97.379 0.213,97.393 0,97.393" style="fill:rgb(235,173,207);fill-rule:nonzero;"/>
                    </g>
                </g>
                <g opacity="0.62">
                    <g transform="matrix(1,0,0,1,444.526,853.33)">
                        <path d="M0,-216.128C-10.336,-209.509 -19.243,-200.68 -25.774,-190.258C-33.514,-177.909 -37.87,-163.544 -38.406,-149.005C-35.49,-148.405 -32.869,-146.533 -31.483,-143.642C-29.127,-138.728 -31.2,-132.836 -36.113,-130.48C-41.026,-128.124 -46.919,-130.197 -49.275,-135.11C-51.631,-140.024 -49.557,-145.916 -44.644,-148.272C-44.022,-148.57 -43.384,-148.795 -42.739,-148.955C-42.209,-164.32 -37.625,-179.509 -29.446,-192.559C-22.703,-203.317 -13.55,-212.461 -2.937,-219.382C-4.224,-221.238 -5.129,-223.246 -5.653,-225.318C-8.011,-225.168 -10.369,-225.068 -12.723,-225.068C-17.728,-225.068 -22.709,-225.409 -27.632,-226.047C-107.935,-209.629 -169.17,-139.54 -171.068,-54.131C-171.072,-53.961 -171.075,-53.79 -171.078,-53.619C-171.622,-25.547 -142.828,9.919 -103.266,-1.296C-103.104,-1.342 -102.943,-1.393 -102.782,-1.441C-15.837,-27.571 18.577,-122.25 7.874,-212.024C4.994,-212.699 2.295,-214.109 0,-216.128" style="fill:rgb(235,173,207);fill-rule:nonzero;"/>
                    </g>
                </g>
                <g opacity="0.62">
                    <g transform="matrix(0.258179,-0.966097,-0.966097,-0.258179,568.853,579.922)">
                        <path d="M-65.104,-44.353C-50.551,-32.202 -40.405,-13.92 -38.303,6.099C-35.619,31.636 -45.82,59.447 -65.104,80.015C-68.773,78.737 -72.784,78.606 -76.536,79.77C-88.011,37.295 -83.133,-6.597 -65.104,-44.353" style="fill:rgb(235,173,207);fill-rule:nonzero;"/>
                    </g>
                </g>
                <g opacity="0.62">
                    <g transform="matrix(1,0,0,1,680.968,623.298)">
                        <path d="M0,-119.333C-0.158,-119.391 -0.318,-119.445 -0.476,-119.5C-86.059,-149.425 -169.497,-93.279 -213.656,-14.529C-212.114,-13.407 -210.716,-12.035 -209.545,-10.4C-208.457,-8.883 -207.645,-7.253 -207.081,-5.572C-181.165,-19.144 -151.501,-21.626 -126.348,-11.993C-106.164,-4.262 -90.053,11.479 -81.712,30.092C-41.125,21.483 -3.308,-1.12 23.798,-36.736C23.901,-36.872 24.004,-37.008 24.107,-37.144C41.047,-59.535 38.599,-105.152 0,-119.333" style="fill:rgb(235,173,207);fill-rule:nonzero;"/>
                    </g>
                </g>
                <g opacity="0.62">
                    <g transform="matrix(1,0,0,1,601.852,787.452)">
                        <path d="M0,-85.091C-7.408,-64.139 -25.344,-47.203 -46.326,-43.071C-50.397,-39.015 -55.232,-34.238 -60.67,-32.75C-66.369,-31.191 -73.604,-33.568 -75.297,-39.229C-75.513,-39.952 -75.623,-40.675 -75.638,-41.39C-75.757,-47.135 -69.743,-52.332 -63.689,-52.779C-57.605,-53.228 -51.864,-50.461 -46.484,-47.444C-26.47,-51.664 -9.581,-68.482 -3.325,-88.907C-34.121,-123.132 -79.855,-146.572 -128.573,-156.563C-129.847,-153.66 -131.875,-151.043 -134.639,-149.063C-139.691,-145.443 -145.96,-144.778 -151.404,-146.712C-171.196,-58.912 -122.502,31.689 -35.496,62.112C-35.335,62.168 -35.174,62.224 -35.013,62.28C-8.482,71.472 34.146,55.047 35.705,13.955C35.711,13.787 35.713,13.619 35.716,13.45C36.569,-24.941 22.821,-58.169 0,-85.091" style="fill:rgb(235,173,207);fill-rule:nonzero;"/>
                    </g>
                </g>
                <g opacity="0.62">
                    <g transform="matrix(1,0,0,1,445.933,522.002)">
                        <path d="M0,86.685C0.684,86.195 1.397,85.778 2.121,85.395C-18.956,35.179 -61.008,-1.217 -110.471,-16.53C-112.487,-10.539 -113.81,-4.315 -114.343,1.998C-116.796,31.087 -102.758,61.974 -78.58,80.688C-59.092,95.772 -33.376,103.215 -7.616,101.701C-7.663,95.959 -5.023,90.284 0,86.685" style="fill:rgb(235,173,207);fill-rule:nonzero;"/>
                    </g>
                </g>
                <g transform="matrix(1,0,0,1,838.476,514.021)">
                    <path d="M0,105.864L63.221,-48.876L126.074,105.864L0,105.864ZM76.457,-86.217L68.625,-86.217L-40.576,181.149L-58.266,185.974L-58.266,192.081L-8.138,192.081L-8.138,185.832L-30.905,181.357L-3.866,114.861L129.933,114.861L157.047,181.542L140.802,185.974L140.802,192.081L202.958,192.081L202.958,185.974L185.269,181.149L76.457,-86.217Z" style="fill:rgb(154,159,208);fill-rule:nonzero;"/>
                </g>
                <g transform="matrix(1,0,0,1,1092.64,706.102)">
                    <path d="M0,-286.059L-41.202,-286.059L-41.202,-279.952L-24.128,-275.296L-24.128,-10.764L-41.202,-6.107L-41.202,0L17.074,0L17.074,-6.107L0,-10.764L0,-286.059Z" style="fill:rgb(154,159,208);fill-rule:nonzero;"/>
                </g>
                <g transform="matrix(1,0,0,1,1166.75,706.102)">
                    <path d="M0,-286.059L-41.202,-286.059L-41.202,-279.952L-24.128,-275.296L-24.128,-10.764L-41.202,-6.107L-41.202,0L17.074,0L17.074,-6.107L0,-10.764L0,-286.059Z" style="fill:rgb(154,159,208);fill-rule:nonzero;"/>
                </g>
                <g transform="matrix(1,0,0,1,1303.3,699.438)">
                    <path d="M0,-185.417C24.578,-185.417 36.99,-165.667 38.388,-146.092C42.268,-90.26 -20.646,-55.357 -65.552,-48.75C-76.162,-79.457 -73.442,-118.337 -58.614,-146.151C-47.972,-166.112 -32.073,-179.175 -12.623,-183.937C-8.576,-184.946 -4.566,-185.417 0,-185.417M68.042,-55.947C53.295,-19.077 20.903,2.301 -14.49,-1.542C-35.705,-3.858 -52.846,-18.151 -63.015,-41.895C-15.428,-49.056 70.647,-87.894 66.381,-150.32C64.315,-177.195 40.528,-195.963 8.535,-195.963C0.87,-195.963 -6.764,-195.023 -14.134,-193.181C-80.507,-177.251 -104.563,-117.794 -98.823,-69.29C-94.121,-29.55 -67.02,10.546 -17.074,10.546C27.079,10.546 60.247,-12.176 76.317,-53.436L77.337,-56.056L68.772,-57.773L68.042,-55.947Z" style="fill:rgb(154,159,208);fill-rule:nonzero;"/>
                </g>
                <g transform="matrix(1,0,0,1,1528.74,708.043)">
                    <path d="M0,-206.123C-5.873,-206.123 -11.29,-202.851 -13.805,-197.792C-16.428,-192.509 -15.476,-186.245 -11.201,-180.613C18.748,-140.681 10.921,-90.369 -35.15,-26.894L-104.642,-190.163L-88.438,-194.582L-88.438,-200.689L-148.656,-200.689L-148.656,-194.582L-130.956,-189.754L-52.019,0L-46.203,0L-45.491,-0.89C6.644,-66.328 49.419,-152.835 13.166,-199.328C9.975,-203.707 5.302,-206.123 0,-206.123" style="fill:rgb(154,159,208);fill-rule:nonzero;"/>
                </g>
                <g transform="matrix(1,0,0,1,1616.46,706.102)">
                    <path d="M0,-198.748L-41.203,-198.748L-41.203,-192.641L-24.13,-187.985L-24.13,-10.763L-41.203,-6.107L-41.203,0L17.071,0L17.071,-6.107L0,-10.763L0,-198.748Z" style="fill:rgb(154,159,208);fill-rule:nonzero;"/>
                </g>
                <g transform="matrix(1,0,0,1,1820.77,532.551)">
                    <path d="M0,148.357C-4.08,156.105 -6.977,159.123 -10.328,159.123C-11.281,159.123 -14.174,159.123 -14.174,151.784L-14.174,93.579C-14.174,86.478 -19.137,81.515 -26.239,81.515C-33.341,81.515 -38.304,86.478 -38.304,93.579C-38.304,136.549 -67.881,162.228 -96.476,162.228C-123.093,162.228 -140.289,147.316 -140.289,124.234C-140.289,91.025 -110.603,83.854 -79.171,76.265C-47.218,68.544 -14.174,60.565 -14.174,23.343C-14.174,-8.498 -37.644,-29.076 -73.967,-29.076C-108.438,-29.076 -126.036,-15.508 -134.73,-4.129C-145.354,9.785 -146.366,24.918 -143.772,34.419C-141.396,43.455 -134.575,46.661 -129.457,46.661C-125.216,46.661 -121.238,44.79 -118.539,41.524C-115.543,37.895 -114.462,32.932 -115.504,27.521C-118.483,13.094 -116.338,0.505 -109.47,-7.925C-102.688,-16.25 -91.526,-20.471 -76.297,-20.471C-52.151,-20.471 -38.304,-5.493 -38.304,20.627C-38.304,55.203 -68.006,63.261 -99.455,71.793C-131.965,80.612 -165.582,89.734 -165.582,129.668C-165.582,151.702 -149.82,177.433 -105.4,177.433C-75.951,177.433 -50.77,160.234 -38.304,132.621L-38.304,155.278C-38.304,173.587 -28.153,177.433 -19.641,177.433C-5.283,177.433 2.676,160.076 6.073,152.664L7.527,149.537L1.078,146.31L0,148.357Z" style="fill:rgb(154,159,208);fill-rule:nonzero;"/>
                </g>
                <g transform="matrix(1,0,0,1,1952.06,706.102)">
                    <path d="M0,-202.627C-28.068,-202.627 -54.465,-175.354 -67.488,-145.546L-67.488,-198.748L-108.689,-198.748L-108.689,-192.642L-91.615,-187.985L-91.615,-10.763L-108.689,-6.107L-108.689,0L-50.411,0L-50.411,-6.11L-67.488,-10.767L-67.488,-105.97C-67.488,-139.054 -36.702,-189.755 -10.091,-189.755C5.474,-189.755 13.027,-178.942 16.626,-169.873C25.741,-146.88 19.137,-110.815 3.035,-95.662L0.867,-93.622L5.599,-90.478L6.785,-91.012C37.483,-104.787 49.94,-140.52 44.245,-167.108C39.487,-189.349 22.943,-202.627 0,-202.627" style="fill:rgb(154,159,208);fill-rule:nonzero;"/>
                </g>
                <g transform="matrix(1,0,0,1,2121.24,699.438)">
                    <path d="M0,-185.417C24.578,-185.417 36.989,-165.667 38.386,-146.095C42.268,-90.263 -20.646,-55.357 -65.551,-48.75C-76.162,-79.457 -73.44,-118.337 -58.614,-146.151C-47.972,-166.112 -32.072,-179.175 -12.622,-183.937C-8.575,-184.946 -4.564,-185.417 0,-185.417M68.774,-57.773L68.042,-55.947C53.295,-19.077 20.917,2.321 -14.49,-1.542C-35.703,-3.858 -52.843,-18.151 -63.013,-41.895C-15.426,-49.056 70.649,-87.894 66.384,-150.32C64.315,-177.195 40.528,-195.963 8.535,-195.963C0.87,-195.963 -6.766,-195.023 -14.131,-193.181C-80.506,-177.251 -104.563,-117.794 -98.822,-69.29C-94.123,-29.55 -67.021,10.546 -17.074,10.546C27.079,10.546 60.245,-12.176 76.317,-53.436L77.339,-56.056L68.774,-57.773Z" style="fill:rgb(154,159,208);fill-rule:nonzero;"/>
                </g>
                <g transform="matrix(1,0,0,1,806.151,739.789)">
                    <path d="M0,35.91C0.534,35.91 0.987,36.088 1.358,36.434C1.728,36.787 1.913,37.205 1.913,37.699C1.913,38.237 1.728,38.678 1.358,39.028C0.987,39.377 0.534,39.552 0,39.552L-21.966,39.552C-22.502,39.552 -22.945,39.367 -23.294,38.995C-23.644,38.625 -23.818,38.194 -23.818,37.699L-23.818,-1.79C-23.818,-2.285 -23.634,-2.716 -23.263,-3.086C-22.892,-3.458 -22.419,-3.642 -21.844,-3.642C-21.35,-3.642 -20.908,-3.458 -20.516,-3.086C-20.126,-2.716 -19.931,-2.285 -19.931,-1.79L-19.931,36.961L-21.103,35.91L0,35.91Z" style="fill:rgb(179,184,206);fill-rule:nonzero;"/>
                </g>
                <g transform="matrix(1,0,0,1,818.306,735.531)">
                    <path d="M0,41.958C0,42.452 -0.185,42.884 -0.555,43.253C-0.926,43.626 -1.358,43.81 -1.85,43.81C-2.386,43.81 -2.829,43.626 -3.179,43.253C-3.528,42.884 -3.703,42.452 -3.703,41.958L-3.703,-0C-3.703,-0.495 -3.518,-0.926 -3.147,-1.295C-2.776,-1.668 -2.345,-1.852 -1.85,-1.852C-1.317,-1.852 -0.875,-1.668 -0.524,-1.295C-0.175,-0.926 0,-0.495 0,-0L0,41.958Z" style="fill:rgb(179,184,206);fill-rule:nonzero;"/>
                </g>
                <g transform="matrix(1,0,0,1,842.063,747.068)">
                    <path d="M0,32.889C-3.169,32.889 -5.965,32.21 -8.392,30.852C-10.819,29.495 -12.711,27.603 -14.068,25.178C-15.426,22.749 -16.105,19.911 -16.105,16.662C-16.105,13.165 -15.416,10.183 -14.039,7.715C-12.66,5.246 -10.87,3.345 -8.669,2.007C-6.469,0.669 -4.134,0 -1.666,0C0.143,0 1.901,0.32 3.61,0.956C5.316,1.595 6.838,2.541 8.176,3.796C9.512,5.052 10.582,6.584 11.384,8.394C12.187,10.203 12.628,12.302 12.711,14.688C12.669,15.179 12.465,15.604 12.094,15.95C11.724,16.303 11.292,16.477 10.798,16.477L-13.945,16.477L-14.686,13.142L9.626,13.142L8.824,13.884L8.824,12.651C8.618,10.717 7.98,9.082 6.911,7.744C5.841,6.41 4.556,5.378 3.055,4.66C1.552,3.941 -0.021,3.579 -1.666,3.579C-2.9,3.579 -4.166,3.826 -5.461,4.32C-6.757,4.815 -7.929,5.586 -8.979,6.634C-10.027,7.682 -10.882,9.02 -11.539,10.644C-12.197,12.269 -12.526,14.194 -12.526,16.415C-12.526,18.844 -12.032,21.042 -11.045,23.016C-10.058,24.993 -8.629,26.555 -6.757,27.705C-4.886,28.859 -2.653,29.435 -0.061,29.435C1.378,29.435 2.663,29.228 3.795,28.816C4.925,28.407 5.934,27.86 6.818,27.181C7.703,26.502 8.433,25.794 9.008,25.052C9.461,24.683 9.893,24.499 10.305,24.499C10.756,24.499 11.137,24.663 11.447,24.993C11.755,25.323 11.91,25.692 11.91,26.104C11.91,26.595 11.702,27.026 11.292,27.399C10.058,28.878 8.453,30.164 6.479,31.254C4.505,32.345 2.345,32.889 0,32.889" style="fill:rgb(179,184,206);fill-rule:nonzero;"/>
                </g>
                <g transform="matrix(1,0,0,1,861.624,779.38)">
                    <path d="M0,-32.25C0.33,-32.25 0.657,-32.148 0.987,-31.94C1.317,-31.736 1.564,-31.426 1.729,-31.017L12.526,-5.346L11.724,-4.851L22.77,-31.017C23.098,-31.838 23.695,-32.23 24.56,-32.187C24.97,-32.187 25.36,-32.042 25.731,-31.756C26.102,-31.469 26.286,-31.097 26.286,-30.645C26.286,-30.398 26.255,-30.194 26.194,-30.029C26.132,-29.864 26.081,-29.719 26.039,-29.597L13.945,-1.213C13.615,-0.472 13.06,-0.079 12.279,-0.04C11.91,0 11.539,-0.093 11.168,-0.317C10.799,-0.544 10.552,-0.841 10.429,-1.213L-1.728,-29.535C-1.77,-29.66 -1.811,-29.801 -1.85,-29.966C-1.893,-30.131 -1.913,-30.296 -1.913,-30.461C-1.913,-30.912 -1.748,-31.324 -1.419,-31.696C-1.091,-32.065 -0.616,-32.25 0,-32.25" style="fill:rgb(179,184,206);fill-rule:nonzero;"/>
                </g>
                <g transform="matrix(1,0,0,1,907.902,750.522)">
                    <path d="M0,25.981C2.18,25.981 4.113,25.414 5.8,24.284C7.487,23.153 8.814,21.588 9.781,19.594C10.747,17.597 11.231,15.366 11.231,12.898C11.231,10.512 10.747,8.344 9.781,6.389C8.814,4.435 7.487,2.893 5.8,1.759C4.113,0.629 2.18,0.065 0,0.065C-2.139,0.065 -4.063,0.609 -5.769,1.7C-7.477,2.791 -8.814,4.3 -9.781,6.234C-10.747,8.169 -11.231,10.39 -11.231,12.898C-11.231,15.366 -10.747,17.597 -9.781,19.594C-8.814,21.588 -7.487,23.153 -5.8,24.284C-4.114,25.414 -2.182,25.981 0,25.981M12.834,-2.713C13.368,-2.713 13.811,-2.528 14.161,-2.159C14.51,-1.787 14.686,-1.335 14.686,-0.801L14.686,26.966C14.686,27.461 14.5,27.892 14.131,28.261C13.76,28.634 13.329,28.818 12.834,28.818C12.258,28.818 11.806,28.634 11.477,28.261C11.147,27.892 10.984,27.461 10.984,26.966L10.984,19.624L12.032,19.192C12.032,20.303 11.714,21.466 11.076,22.679C10.438,23.892 9.565,25.002 8.453,26.011C7.342,27.019 6.037,27.843 4.535,28.479C3.034,29.115 1.419,29.435 -0.308,29.435C-3.106,29.435 -5.606,28.716 -7.805,27.276C-10.007,25.836 -11.735,23.862 -12.989,21.351C-14.245,18.843 -14.871,16.025 -14.871,12.898C-14.871,9.688 -14.233,6.861 -12.958,4.415C-11.684,1.967 -9.956,0.042 -7.774,-1.355C-5.594,-2.752 -3.147,-3.454 -0.432,-3.454C1.336,-3.454 2.992,-3.145 4.535,-2.528C6.078,-1.912 7.425,-1.068 8.576,0.003C9.728,1.074 10.633,2.296 11.292,3.674C11.949,5.051 12.279,6.482 12.279,7.961L10.984,7.035L10.984,-0.801C10.984,-1.335 11.147,-1.787 11.477,-2.159C11.806,-2.528 12.258,-2.713 12.834,-2.713" style="fill:rgb(179,184,206);fill-rule:nonzero;"/>
                </g>
                <g transform="matrix(1,0,0,1,946.468,779.34)">
                    <path d="M0,-31.778C2.549,-31.778 4.729,-31.109 6.54,-29.771C8.349,-28.436 9.583,-26.449 10.242,-23.819L9.379,-23.572L9.748,-24.683C10.284,-25.915 11.178,-27.079 12.432,-28.169C13.688,-29.257 15.116,-30.134 16.721,-30.789C18.326,-31.448 19.951,-31.778 21.597,-31.778C24.187,-31.778 26.275,-31.221 27.86,-30.11C29.442,-29 30.595,-27.51 31.315,-25.639C32.034,-23.767 32.395,-21.658 32.395,-19.314L32.395,-1.852C32.395,-1.357 32.218,-0.926 31.871,-0.557C31.52,-0.184 31.078,0 30.544,0C29.968,0 29.514,-0.184 29.187,-0.557C28.857,-0.926 28.692,-1.357 28.692,-1.852L28.692,-19.13C28.692,-20.814 28.424,-22.356 27.89,-23.757C27.354,-25.154 26.512,-26.265 25.36,-27.089C24.209,-27.909 22.665,-28.321 20.732,-28.321C19.005,-28.321 17.379,-27.909 15.858,-27.089C14.335,-26.265 13.09,-25.154 12.124,-23.757C11.157,-22.356 10.674,-20.814 10.674,-19.13L10.674,-1.852C10.674,-1.357 10.499,-0.926 10.15,-0.557C9.799,-0.184 9.358,0 8.824,0C8.288,0 7.845,-0.184 7.497,-0.557C7.146,-0.926 6.972,-1.357 6.972,-1.852L6.972,-19.314C6.972,-20.998 6.724,-22.511 6.232,-23.849C5.737,-25.184 4.935,-26.265 3.824,-27.089C2.714,-27.909 1.213,-28.321 -0.679,-28.321C-2.366,-28.321 -3.961,-27.909 -5.462,-27.089C-6.963,-26.265 -8.176,-25.184 -9.102,-23.849C-10.028,-22.511 -10.491,-20.998 -10.491,-19.314L-10.491,-1.852C-10.491,-1.357 -10.676,-0.926 -11.047,-0.557C-11.416,-0.184 -11.849,0 -12.342,0C-12.918,0 -13.381,-0.184 -13.731,-0.557C-14.08,-0.926 -14.255,-1.357 -14.255,-1.852L-14.255,-29.494C-14.255,-29.989 -14.07,-30.42 -13.699,-30.789C-13.329,-31.162 -12.877,-31.346 -12.342,-31.346C-11.808,-31.346 -11.365,-31.162 -11.015,-30.789C-10.666,-30.42 -10.491,-29.989 -10.491,-29.494L-10.491,-23.757L-12.157,-21.473C-12.034,-22.709 -11.631,-23.941 -10.954,-25.174C-10.275,-26.41 -9.381,-27.52 -8.27,-28.509C-7.158,-29.494 -5.894,-30.285 -4.474,-30.882C-3.055,-31.478 -1.565,-31.778 0,-31.778" style="fill:rgb(179,184,206);fill-rule:nonzero;"/>
                </g>
                <g transform="matrix(1,0,0,1,1014.22,763.48)">
                    <path d="M0,0.065C0,-2.446 -0.514,-4.677 -1.542,-6.631C-2.572,-8.586 -3.979,-10.118 -5.769,-11.229C-7.558,-12.339 -9.606,-12.893 -11.91,-12.893C-14.131,-12.893 -16.146,-12.339 -17.957,-11.229C-19.766,-10.118 -21.197,-8.586 -22.245,-6.631C-23.294,-4.677 -23.818,-2.446 -23.818,0.065C-23.818,2.573 -23.294,4.794 -22.245,6.728C-21.197,8.663 -19.766,10.195 -17.957,11.326C-16.146,12.456 -14.131,13.023 -11.91,13.023C-9.606,13.023 -7.558,12.456 -5.769,11.326C-3.979,10.195 -2.572,8.663 -1.542,6.728C-0.514,4.794 0,2.573 0,0.065M3.702,0.065C3.702,3.189 3.024,5.997 1.666,8.485C0.308,10.976 -1.542,12.931 -3.887,14.348C-6.232,15.768 -8.906,16.477 -11.91,16.477C-14.831,16.477 -17.473,15.768 -19.839,14.348C-22.205,12.931 -24.075,10.976 -25.454,8.485C-26.832,5.997 -27.521,3.189 -27.521,0.065C-27.521,-3.102 -26.832,-5.923 -25.454,-8.391C-24.075,-10.86 -22.205,-12.81 -19.839,-14.251C-17.473,-15.691 -14.831,-16.412 -11.91,-16.412C-8.906,-16.412 -6.232,-15.691 -3.887,-14.251C-1.542,-12.81 0.308,-10.86 1.666,-8.391C3.024,-5.923 3.702,-3.102 3.702,0.065" style="fill:rgb(179,184,206);fill-rule:nonzero;"/>
                </g>
                <g transform="matrix(1,0,0,1,1024.03,752.684)">
                    <path d="M0,21.657C-0.329,21.166 -0.483,20.682 -0.461,20.207C-0.442,19.736 -0.185,19.353 0.31,19.067C0.638,18.78 1.018,18.655 1.45,18.698C1.883,18.737 2.284,18.942 2.655,19.314C3.765,20.754 5.111,21.914 6.697,22.801C8.278,23.684 10.162,24.125 12.342,24.125C13.493,24.125 14.635,23.931 15.766,23.539C16.898,23.15 17.834,22.553 18.573,21.749C19.315,20.948 19.684,19.93 19.684,18.698C19.684,17.422 19.315,16.404 18.573,15.643C17.834,14.881 16.878,14.265 15.705,13.791C14.533,13.319 13.268,12.917 11.91,12.588C10.511,12.219 9.165,11.797 7.868,11.322C6.573,10.851 5.41,10.255 4.381,9.533C3.353,8.814 2.541,7.938 1.944,6.91C1.348,5.881 1.05,4.626 1.05,3.146C1.05,1.419 1.513,-0.103 2.439,-1.421C3.363,-2.736 4.648,-3.764 6.294,-4.506C7.939,-5.244 9.771,-5.616 11.786,-5.616C12.856,-5.616 13.986,-5.481 15.181,-5.214C16.374,-4.948 17.545,-4.506 18.697,-3.886C19.849,-3.27 20.877,-2.426 21.783,-1.359C22.152,-0.986 22.339,-0.564 22.339,-0.093C22.339,0.381 22.133,0.823 21.721,1.235C21.391,1.482 21.012,1.594 20.579,1.574C20.147,1.551 19.786,1.38 19.5,1.047C18.512,-0.064 17.339,-0.894 15.983,-1.451C14.625,-2.005 13.164,-2.285 11.602,-2.285C10.407,-2.285 9.287,-2.097 8.239,-1.728C7.189,-1.359 6.314,-0.782 5.616,-0.001C4.915,0.78 4.568,1.812 4.568,3.084C4.648,4.28 5.07,5.245 5.831,5.984C6.593,6.725 7.599,7.341 8.855,7.836C10.111,8.33 11.518,8.782 13.082,9.193C14.398,9.523 15.664,9.915 16.878,10.367C18.091,10.818 19.16,11.385 20.086,12.064C21.012,12.743 21.752,13.596 22.307,14.624C22.863,15.653 23.141,16.948 23.141,18.51C23.141,20.322 22.637,21.884 21.628,23.199C20.62,24.517 19.274,25.526 17.586,26.225C15.899,26.923 14.027,27.273 11.971,27.273C9.75,27.273 7.599,26.841 5.523,25.977C3.445,25.114 1.605,23.674 0,21.657" style="fill:rgb(179,184,206);fill-rule:nonzero;"/>
                </g>
                <g transform="matrix(1,0,0,1,1085.86,747.068)">
                    <path d="M0,32.889C-3.169,32.889 -5.965,32.21 -8.392,30.852C-10.819,29.495 -12.711,27.603 -14.068,25.178C-15.426,22.749 -16.105,19.911 -16.105,16.662C-16.105,13.165 -15.416,10.183 -14.039,7.715C-12.66,5.246 -10.87,3.345 -8.669,2.007C-6.469,0.669 -4.134,0 -1.666,0C0.143,0 1.901,0.32 3.61,0.956C5.316,1.595 6.838,2.541 8.176,3.796C9.512,5.052 10.582,6.584 11.384,8.394C12.187,10.203 12.628,12.302 12.711,14.688C12.67,15.179 12.465,15.604 12.094,15.95C11.724,16.303 11.292,16.477 10.798,16.477L-13.945,16.477L-14.686,13.142L9.626,13.142L8.824,13.884L8.824,12.651C8.618,10.717 7.98,9.082 6.911,7.744C5.841,6.41 4.556,5.378 3.055,4.66C1.552,3.941 -0.021,3.579 -1.666,3.579C-2.9,3.579 -4.166,3.826 -5.461,4.32C-6.757,4.815 -7.929,5.586 -8.979,6.634C-10.026,7.682 -10.882,9.02 -11.539,10.644C-12.197,12.269 -12.526,14.194 -12.526,16.415C-12.526,18.844 -12.032,21.042 -11.045,23.016C-10.058,24.993 -8.629,26.555 -6.757,27.705C-4.886,28.859 -2.653,29.435 -0.061,29.435C1.378,29.435 2.663,29.228 3.795,28.816C4.925,28.407 5.933,27.86 6.818,27.181C7.703,26.502 8.433,25.794 9.008,25.052C9.461,24.683 9.893,24.499 10.305,24.499C10.756,24.499 11.137,24.663 11.447,24.993C11.755,25.323 11.91,25.692 11.91,26.104C11.91,26.595 11.702,27.026 11.292,27.399C10.058,28.878 8.453,30.164 6.479,31.254C4.505,32.345 2.345,32.889 0,32.889" style="fill:rgb(179,184,206);fill-rule:nonzero;"/>
                </g>
                <g transform="matrix(1,0,0,1,1110.54,735.531)">
                    <path d="M0,41.958C0,42.452 -0.185,42.884 -0.555,43.253C-0.926,43.626 -1.358,43.81 -1.85,43.81C-2.386,43.81 -2.829,43.626 -3.178,43.253C-3.528,42.884 -3.703,42.452 -3.703,41.958L-3.703,-0C-3.703,-0.495 -3.518,-0.926 -3.147,-1.295C-2.776,-1.668 -2.345,-1.852 -1.85,-1.852C-1.317,-1.852 -0.875,-1.668 -0.524,-1.295C-0.175,-0.926 0,-0.495 0,-0L0,41.958Z" style="fill:rgb(179,184,206);fill-rule:nonzero;"/>
                </g>
                <g transform="matrix(1,0,0,1,1150.52,750.522)">
                    <path d="M0,25.981C2.18,25.981 4.113,25.414 5.8,24.284C7.487,23.153 8.814,21.588 9.781,19.594C10.747,17.597 11.231,15.366 11.231,12.898C11.231,10.512 10.747,8.344 9.781,6.389C8.814,4.435 7.487,2.893 5.8,1.759C4.113,0.629 2.18,0.065 0,0.065C-2.139,0.065 -4.063,0.609 -5.769,1.7C-7.477,2.791 -8.814,4.3 -9.781,6.234C-10.747,8.169 -11.231,10.39 -11.231,12.898C-11.231,15.366 -10.747,17.597 -9.781,19.594C-8.814,21.588 -7.487,23.153 -5.8,24.284C-4.114,25.414 -2.182,25.981 0,25.981M12.834,-2.713C13.368,-2.713 13.811,-2.528 14.161,-2.159C14.51,-1.787 14.686,-1.335 14.686,-0.801L14.686,26.966C14.686,27.461 14.5,27.892 14.131,28.261C13.76,28.634 13.329,28.818 12.834,28.818C12.258,28.818 11.806,28.634 11.477,28.261C11.147,27.892 10.984,27.461 10.984,26.966L10.984,19.624L12.032,19.192C12.032,20.303 11.714,21.466 11.076,22.679C10.438,23.892 9.565,25.002 8.453,26.011C7.342,27.019 6.037,27.843 4.535,28.479C3.033,29.115 1.419,29.435 -0.308,29.435C-3.106,29.435 -5.606,28.716 -7.805,27.276C-10.007,25.836 -11.735,23.862 -12.989,21.351C-14.245,18.843 -14.871,16.025 -14.871,12.898C-14.871,9.688 -14.233,6.861 -12.958,4.415C-11.684,1.967 -9.956,0.042 -7.774,-1.355C-5.594,-2.752 -3.147,-3.454 -0.432,-3.454C1.336,-3.454 2.992,-3.145 4.535,-2.528C6.078,-1.912 7.425,-1.068 8.577,0.003C9.728,1.074 10.633,2.296 11.292,3.674C11.949,5.051 12.279,6.482 12.279,7.961L10.984,7.035L10.984,-0.801C10.984,-1.335 11.147,-1.787 11.477,-2.159C11.806,-2.528 12.258,-2.713 12.834,-2.713" style="fill:rgb(179,184,206);fill-rule:nonzero;"/>
                </g>
                <g transform="matrix(1,0,0,1,1178.97,735.531)">
                    <path d="M0,41.958C0,42.452 -0.185,42.884 -0.555,43.253C-0.926,43.626 -1.358,43.81 -1.85,43.81C-2.386,43.81 -2.829,43.626 -3.179,43.253C-3.528,42.884 -3.703,42.452 -3.703,41.958L-3.703,-0C-3.703,-0.495 -3.518,-0.926 -3.147,-1.295C-2.776,-1.668 -2.345,-1.852 -1.85,-1.852C-1.317,-1.852 -0.875,-1.668 -0.524,-1.295C-0.175,-0.926 0,-0.495 0,-0L0,41.958Z" style="fill:rgb(179,184,206);fill-rule:nonzero;"/>
                </g>
                <g transform="matrix(1,0,0,1,1192.67,739.789)">
                    <path d="M0,37.7C0,38.194 -0.184,38.626 -0.555,38.995C-0.924,39.368 -1.356,39.552 -1.85,39.552C-2.427,39.552 -2.879,39.368 -3.208,38.995C-3.538,38.626 -3.701,38.194 -3.701,37.7L-3.701,9.316C-3.701,8.822 -3.528,8.39 -3.177,8.021C-2.828,7.652 -2.386,7.464 -1.85,7.464C-1.317,7.464 -0.873,7.652 -0.524,8.021C-0.175,8.39 0,8.822 0,9.316L0,37.7ZM-1.85,3.331C-2.714,3.331 -3.363,3.137 -3.795,2.745C-4.226,2.356 -4.442,1.789 -4.442,1.048L-4.442,0.431C-4.442,-0.31 -4.205,-0.874 -3.732,-1.266C-3.259,-1.658 -2.612,-1.852 -1.789,-1.852C-1.008,-1.852 -0.4,-1.658 0.031,-1.266C0.463,-0.874 0.679,-0.31 0.679,0.431L0.679,1.048C0.679,1.789 0.463,2.356 0.031,2.745C-0.4,3.137 -1.028,3.331 -1.85,3.331" style="fill:rgb(179,184,206);fill-rule:nonzero;"/>
                </g>
                <g transform="matrix(1,0,0,1,1201.55,779.38)">
                    <path d="M0,-32.25C0.33,-32.25 0.657,-32.148 0.987,-31.94C1.317,-31.736 1.564,-31.426 1.729,-31.017L12.526,-5.346L11.724,-4.851L22.77,-31.017C23.098,-31.838 23.695,-32.23 24.56,-32.187C24.97,-32.187 25.36,-32.042 25.731,-31.756C26.102,-31.469 26.286,-31.097 26.286,-30.645C26.286,-30.398 26.255,-30.194 26.194,-30.029C26.132,-29.864 26.081,-29.719 26.039,-29.597L13.945,-1.213C13.615,-0.472 13.06,-0.079 12.279,-0.04C11.91,0 11.539,-0.093 11.168,-0.317C10.799,-0.544 10.552,-0.841 10.429,-1.213L-1.728,-29.535C-1.77,-29.66 -1.811,-29.801 -1.85,-29.966C-1.893,-30.131 -1.913,-30.296 -1.913,-30.461C-1.913,-30.912 -1.748,-31.324 -1.419,-31.696C-1.091,-32.065 -0.616,-32.25 0,-32.25" style="fill:rgb(179,184,206);fill-rule:nonzero;"/>
                </g>
                <g transform="matrix(1,0,0,1,1238.51,739.789)">
                    <path d="M0,37.7C0,38.194 -0.185,38.626 -0.555,38.995C-0.924,39.368 -1.356,39.552 -1.85,39.552C-2.427,39.552 -2.879,39.368 -3.208,38.995C-3.538,38.626 -3.701,38.194 -3.701,37.7L-3.701,9.316C-3.701,8.822 -3.528,8.39 -3.177,8.021C-2.828,7.652 -2.386,7.464 -1.85,7.464C-1.317,7.464 -0.873,7.652 -0.524,8.021C-0.175,8.39 0,8.822 0,9.316L0,37.7ZM-1.85,3.331C-2.714,3.331 -3.363,3.137 -3.795,2.745C-4.227,2.356 -4.442,1.789 -4.442,1.048L-4.442,0.431C-4.442,-0.31 -4.205,-0.874 -3.732,-1.266C-3.259,-1.658 -2.612,-1.852 -1.79,-1.852C-1.008,-1.852 -0.401,-1.658 0.031,-1.266C0.463,-0.874 0.679,-0.31 0.679,0.431L0.679,1.048C0.679,1.789 0.463,2.356 0.031,2.745C-0.401,3.137 -1.028,3.331 -1.85,3.331" style="fill:rgb(179,184,206);fill-rule:nonzero;"/>
                </g>
                <g transform="matrix(1,0,0,1,1273.81,763.48)">
                    <path d="M0,0.065C0,-2.446 -0.514,-4.677 -1.542,-6.631C-2.572,-8.586 -3.979,-10.118 -5.769,-11.229C-7.558,-12.339 -9.606,-12.893 -11.91,-12.893C-14.131,-12.893 -16.146,-12.339 -17.957,-11.229C-19.766,-10.118 -21.197,-8.586 -22.245,-6.631C-23.294,-4.677 -23.818,-2.446 -23.818,0.065C-23.818,2.573 -23.294,4.794 -22.245,6.728C-21.197,8.663 -19.766,10.195 -17.957,11.326C-16.146,12.456 -14.131,13.023 -11.91,13.023C-9.606,13.023 -7.558,12.456 -5.769,11.326C-3.979,10.195 -2.572,8.663 -1.542,6.728C-0.514,4.794 0,2.573 0,0.065M3.703,0.065C3.703,3.189 3.024,5.997 1.666,8.485C0.308,10.976 -1.542,12.931 -3.887,14.348C-6.232,15.768 -8.906,16.477 -11.91,16.477C-14.831,16.477 -17.473,15.768 -19.839,14.348C-22.205,12.931 -24.075,10.976 -25.454,8.485C-26.832,5.997 -27.521,3.189 -27.521,0.065C-27.521,-3.102 -26.832,-5.923 -25.454,-8.391C-24.075,-10.86 -22.205,-12.81 -19.839,-14.251C-17.473,-15.691 -14.831,-16.412 -11.91,-16.412C-8.906,-16.412 -6.232,-15.691 -3.887,-14.251C-1.542,-12.81 0.308,-10.86 1.666,-8.391C3.024,-5.923 3.703,-3.102 3.703,0.065" style="fill:rgb(179,184,206);fill-rule:nonzero;"/>
                </g>
                <g transform="matrix(1,0,0,1,1315.27,750.522)">
                    <path d="M0,25.981C2.18,25.981 4.113,25.414 5.8,24.284C7.487,23.153 8.814,21.588 9.781,19.594C10.747,17.597 11.231,15.366 11.231,12.898C11.231,10.512 10.747,8.344 9.781,6.389C8.814,4.435 7.487,2.893 5.8,1.759C4.113,0.629 2.18,0.065 0,0.065C-2.139,0.065 -4.063,0.609 -5.769,1.7C-7.477,2.791 -8.814,4.3 -9.781,6.234C-10.747,8.169 -11.231,10.39 -11.231,12.898C-11.231,15.366 -10.747,17.597 -9.781,19.594C-8.814,21.588 -7.487,23.153 -5.8,24.284C-4.114,25.414 -2.182,25.981 0,25.981M12.834,-2.713C13.368,-2.713 13.811,-2.528 14.161,-2.159C14.51,-1.787 14.686,-1.335 14.686,-0.801L14.686,26.966C14.686,27.461 14.5,27.892 14.131,28.261C13.76,28.634 13.329,28.818 12.834,28.818C12.258,28.818 11.806,28.634 11.477,28.261C11.147,27.892 10.984,27.461 10.984,26.966L10.984,19.624L12.032,19.192C12.032,20.303 11.714,21.466 11.076,22.679C10.438,23.892 9.565,25.002 8.453,26.011C7.342,27.019 6.037,27.843 4.535,28.479C3.034,29.115 1.419,29.435 -0.308,29.435C-3.106,29.435 -5.606,28.716 -7.805,27.276C-10.007,25.836 -11.735,23.862 -12.989,21.351C-14.245,18.843 -14.871,16.025 -14.871,12.898C-14.871,9.688 -14.233,6.861 -12.958,4.415C-11.684,1.967 -9.956,0.042 -7.774,-1.355C-5.594,-2.752 -3.147,-3.454 -0.432,-3.454C1.336,-3.454 2.992,-3.145 4.535,-2.528C6.079,-1.912 7.425,-1.068 8.577,0.003C9.728,1.074 10.633,2.296 11.292,3.674C11.949,5.051 12.279,6.482 12.279,7.961L10.984,7.035L10.984,-0.801C10.984,-1.335 11.147,-1.787 11.477,-2.159C11.806,-2.528 12.258,-2.713 12.834,-2.713" style="fill:rgb(179,184,206);fill-rule:nonzero;"/>
                </g>
                <g transform="matrix(1,0,0,1,1370.38,779.957)">
                    <path d="M0,-32.889C1.976,-32.889 3.785,-32.672 5.431,-32.24C7.075,-31.808 8.402,-31.221 9.41,-30.483C10.419,-29.742 10.923,-28.938 10.923,-28.074C10.923,-27.662 10.778,-27.264 10.491,-26.871C10.203,-26.479 9.812,-26.285 9.318,-26.285C8.782,-26.285 8.362,-26.397 8.052,-26.624C7.744,-26.852 7.446,-27.138 7.158,-27.488C6.87,-27.837 6.438,-28.137 5.863,-28.384C5.327,-28.671 4.556,-28.908 3.549,-29.093C2.541,-29.277 1.42,-29.369 0.186,-29.369C-2.119,-29.369 -4.195,-28.796 -6.047,-27.643C-7.898,-26.492 -9.359,-24.947 -10.427,-23.016C-11.498,-21.081 -12.032,-18.903 -12.032,-16.474C-12.032,-14.006 -11.518,-11.785 -10.49,-9.811C-9.461,-7.837 -8.043,-6.281 -6.232,-5.151C-4.422,-4.021 -2.304,-3.454 0.124,-3.454C1.729,-3.454 2.994,-3.599 3.918,-3.885C4.844,-4.175 5.615,-4.505 6.233,-4.874C7.056,-5.325 7.641,-5.767 7.992,-6.202C8.341,-6.634 8.804,-6.848 9.379,-6.848C9.915,-6.848 10.315,-6.693 10.583,-6.387C10.85,-6.077 10.984,-5.675 10.984,-5.184C10.984,-4.525 10.5,-3.793 9.534,-2.992C8.567,-2.188 7.24,-1.49 5.555,-0.893C3.867,-0.297 1.913,0 -0.308,0C-3.353,0 -6.037,-0.718 -8.361,-2.159C-10.686,-3.599 -12.495,-5.563 -13.79,-8.051C-15.087,-10.539 -15.734,-13.347 -15.734,-16.474C-15.734,-19.476 -15.077,-22.212 -13.76,-24.68C-12.444,-27.148 -10.613,-29.135 -8.268,-30.635C-5.924,-32.138 -3.167,-32.889 0,-32.889" style="fill:rgb(179,184,206);fill-rule:nonzero;"/>
                </g>
                <g transform="matrix(1,0,0,1,1401.47,750.522)">
                    <path d="M0,25.981C2.182,25.981 4.113,25.414 5.8,24.284C7.487,23.153 8.812,21.588 9.781,19.594C10.747,17.597 11.231,15.366 11.231,12.898C11.231,10.512 10.747,8.344 9.781,6.389C8.812,4.435 7.487,2.893 5.8,1.759C4.113,0.629 2.182,0.065 0,0.065C-2.139,0.065 -4.063,0.609 -5.767,1.7C-7.478,2.791 -8.812,4.3 -9.781,6.234C-10.747,8.169 -11.231,10.39 -11.231,12.898C-11.231,15.366 -10.747,17.597 -9.781,19.594C-8.812,21.588 -7.487,23.153 -5.8,24.284C-4.113,25.414 -2.182,25.981 0,25.981M12.833,-2.713C13.366,-2.713 13.811,-2.528 14.161,-2.159C14.51,-1.787 14.685,-1.335 14.685,-0.801L14.685,26.966C14.685,27.461 14.5,27.892 14.131,28.261C13.762,28.634 13.327,28.818 12.833,28.818C12.259,28.818 11.804,28.634 11.475,28.261C11.145,27.892 10.984,27.461 10.984,26.966L10.984,19.624L12.032,19.192C12.032,20.303 11.712,21.466 11.076,22.679C10.44,23.892 9.563,25.002 8.453,26.011C7.342,27.019 6.037,27.843 4.535,28.479C3.032,29.115 1.417,29.435 -0.31,29.435C-3.104,29.435 -5.606,28.716 -7.804,27.276C-10.005,25.836 -11.735,23.862 -12.991,21.351C-14.245,18.843 -14.871,16.025 -14.871,12.898C-14.871,9.688 -14.233,6.861 -12.958,4.415C-11.686,1.967 -9.956,0.042 -7.774,-1.355C-5.596,-2.752 -3.147,-3.454 -0.432,-3.454C1.338,-3.454 2.992,-3.145 4.535,-2.528C6.077,-1.912 7.425,-1.068 8.575,0.003C9.728,1.074 10.631,2.296 11.29,3.674C11.949,5.051 12.279,6.482 12.279,7.961L10.984,7.035L10.984,-0.801C10.984,-1.335 11.145,-1.787 11.475,-2.159C11.804,-2.528 12.259,-2.713 12.833,-2.713" style="fill:rgb(179,184,206);fill-rule:nonzero;"/>
                </g>
                <g transform="matrix(1,0,0,1,1424.06,752.684)">
                    <path d="M0,21.657C-0.33,21.166 -0.481,20.682 -0.461,20.207C-0.442,19.736 -0.185,19.353 0.31,19.067C0.639,18.78 1.022,18.655 1.45,18.698C1.885,18.737 2.287,18.942 2.656,19.314C3.767,20.754 5.115,21.914 6.696,22.801C8.278,23.684 10.163,24.125 12.345,24.125C13.495,24.125 14.639,23.931 15.766,23.539C16.899,23.15 17.835,22.553 18.573,21.749C19.318,20.948 19.687,19.93 19.687,18.698C19.687,17.422 19.318,16.404 18.573,15.643C17.835,14.881 16.88,14.265 15.706,13.791C14.533,13.319 13.268,12.917 11.91,12.588C10.513,12.219 9.168,11.797 7.87,11.322C6.574,10.851 5.411,10.255 4.383,9.533C3.355,8.814 2.544,7.938 1.944,6.91C1.351,5.881 1.051,4.626 1.051,3.146C1.051,1.419 1.516,-0.103 2.439,-1.421C3.365,-2.736 4.65,-3.764 6.294,-4.506C7.942,-5.244 9.774,-5.616 11.788,-5.616C12.859,-5.616 13.986,-5.481 15.182,-5.214C16.375,-4.948 17.545,-4.506 18.699,-3.886C19.852,-3.27 20.88,-2.426 21.783,-1.359C22.152,-0.986 22.34,-0.564 22.34,-0.093C22.34,0.381 22.132,0.823 21.724,1.235C21.394,1.482 21.012,1.594 20.58,1.574C20.149,1.551 19.786,1.38 19.503,1.047C18.514,-0.064 17.341,-0.894 15.983,-1.451C14.625,-2.005 13.166,-2.285 11.603,-2.285C10.407,-2.285 9.287,-2.097 8.239,-1.728C7.191,-1.359 6.314,-0.782 5.615,-0.001C4.917,0.78 4.568,1.812 4.568,3.084C4.65,4.28 5.072,5.245 5.833,5.984C6.594,6.725 7.599,7.341 8.858,7.836C10.111,8.33 11.521,8.782 13.083,9.193C14.401,9.523 15.667,9.915 16.88,10.367C18.092,10.818 19.16,11.385 20.089,12.064C21.012,12.743 21.754,13.596 22.31,14.624C22.864,15.653 23.141,16.948 23.141,18.51C23.141,20.322 22.64,21.884 21.632,23.199C20.623,24.517 19.275,25.526 17.588,26.225C15.901,26.923 14.029,27.273 11.973,27.273C9.751,27.273 7.599,26.841 5.523,25.977C3.447,25.114 1.608,23.674 0,21.657" style="fill:rgb(179,184,206);fill-rule:nonzero;"/>
                </g>
                <g transform="matrix(1,0,0,1,1468.3,750.522)">
                    <path d="M0,25.981C2.178,25.981 4.113,25.414 5.8,24.284C7.487,23.153 8.812,21.588 9.781,19.594C10.743,17.597 11.231,15.366 11.231,12.898C11.231,10.512 10.743,8.344 9.781,6.389C8.812,4.435 7.487,2.893 5.8,1.759C4.113,0.629 2.178,0.065 0,0.065C-2.142,0.065 -4.067,0.609 -5.77,1.7C-7.481,2.791 -8.815,4.3 -9.781,6.234C-10.75,8.169 -11.231,10.39 -11.231,12.898C-11.231,15.366 -10.75,17.597 -9.781,19.594C-8.815,21.588 -7.487,23.153 -5.8,24.284C-4.116,25.414 -2.182,25.981 0,25.981M12.833,-2.713C13.367,-2.713 13.808,-2.528 14.157,-2.159C14.507,-1.787 14.685,-1.335 14.685,-0.801L14.685,26.966C14.685,27.461 14.5,27.892 14.131,28.261C13.759,28.634 13.327,28.818 12.833,28.818C12.256,28.818 11.804,28.634 11.475,28.261C11.145,27.892 10.981,27.461 10.981,26.966L10.981,19.624L12.029,19.192C12.029,20.303 11.712,21.466 11.073,22.679C10.437,23.892 9.563,25.002 8.45,26.011C7.342,27.019 6.037,27.843 4.535,28.479C3.032,29.115 1.417,29.435 -0.31,29.435C-3.108,29.435 -5.609,28.716 -7.807,27.276C-10.008,25.836 -11.739,23.862 -12.991,21.351C-14.246,18.843 -14.873,16.025 -14.873,12.898C-14.873,9.688 -14.237,6.861 -12.958,4.415C-11.686,1.967 -9.959,0.042 -7.777,-1.355C-5.596,-2.752 -3.151,-3.454 -0.435,-3.454C1.335,-3.454 2.992,-3.145 4.535,-2.528C6.077,-1.912 7.422,-1.068 8.575,0.003C9.728,1.074 10.631,2.296 11.29,3.674C11.949,5.051 12.279,6.482 12.279,7.961L10.981,7.035L10.981,-0.801C10.981,-1.335 11.145,-1.787 11.475,-2.159C11.804,-2.528 12.256,-2.713 12.833,-2.713" style="fill:rgb(179,184,206);fill-rule:nonzero;"/>
                </g>
                <g transform="matrix(1,0,0,1,1523.4,779.957)">
                    <path d="M0,-32.889C1.974,-32.889 3.783,-32.672 5.431,-32.24C7.075,-31.808 8.404,-31.221 9.412,-30.483C10.417,-29.742 10.921,-28.938 10.921,-28.074C10.921,-27.662 10.776,-27.264 10.49,-26.871C10.203,-26.479 9.811,-26.285 9.32,-26.285C8.782,-26.285 8.361,-26.397 8.054,-26.624C7.745,-26.852 7.445,-27.138 7.158,-27.488C6.871,-27.837 6.439,-28.137 5.863,-28.384C5.329,-28.671 4.558,-28.908 3.549,-29.093C2.541,-29.277 1.42,-29.369 0.185,-29.369C-2.119,-29.369 -4.195,-28.796 -6.047,-27.643C-7.896,-26.492 -9.359,-24.947 -10.427,-23.016C-11.498,-21.081 -12.032,-18.903 -12.032,-16.474C-12.032,-14.006 -11.518,-11.785 -10.49,-9.811C-9.461,-7.837 -8.041,-6.281 -6.232,-5.151C-4.422,-4.021 -2.303,-3.454 0.125,-3.454C1.727,-3.454 2.992,-3.599 3.918,-3.885C4.844,-4.175 5.616,-4.505 6.232,-4.874C7.056,-5.325 7.642,-5.767 7.992,-6.202C8.341,-6.634 8.802,-6.848 9.379,-6.848C9.913,-6.848 10.315,-6.693 10.582,-6.387C10.849,-6.077 10.984,-5.675 10.984,-5.184C10.984,-4.525 10.5,-3.793 9.534,-2.992C8.568,-2.188 7.24,-1.49 5.553,-0.893C3.866,-0.297 1.915,0 -0.306,0C-3.355,0 -6.037,-0.718 -8.361,-2.159C-10.684,-3.599 -12.496,-5.563 -13.788,-8.051C-15.087,-10.539 -15.733,-13.347 -15.733,-16.474C-15.733,-19.476 -15.077,-22.212 -13.762,-24.68C-12.444,-27.148 -10.611,-29.135 -8.268,-30.635C-5.925,-32.138 -3.167,-32.889 0,-32.889" style="fill:rgb(179,184,206);fill-rule:nonzero;"/>
                </g>
                <g transform="matrix(1,0,0,1,1565.05,779.772)">
                    <path d="M0,-31.778C0.534,-31.778 0.975,-31.593 1.325,-31.221C1.674,-30.852 1.852,-30.42 1.852,-29.926L1.852,-12.526C1.852,-8.452 0.699,-5.348 -1.605,-3.209C-3.908,-1.067 -7.016,0 -10.921,0C-14.83,0 -17.927,-1.067 -20.208,-3.209C-22.492,-5.348 -23.635,-8.452 -23.635,-12.526L-23.635,-29.926C-23.635,-30.42 -23.447,-30.852 -23.078,-31.221C-22.709,-31.593 -22.254,-31.778 -21.721,-31.778C-21.187,-31.778 -20.745,-31.593 -20.392,-31.221C-20.046,-30.852 -19.869,-30.42 -19.869,-29.926L-19.869,-12.526C-19.869,-9.563 -19.078,-7.312 -17.492,-5.77C-15.911,-4.228 -13.719,-3.453 -10.921,-3.453C-8.084,-3.453 -5.873,-4.228 -4.287,-5.77C-2.706,-7.312 -1.915,-9.563 -1.915,-12.526L-1.915,-29.926C-1.915,-30.42 -1.74,-30.852 -1.387,-31.221C-1.041,-31.593 -0.577,-31.778 0,-31.778" style="fill:rgb(179,184,206);fill-rule:nonzero;"/>
                </g>
                <g transform="matrix(1,0,0,1,1589.61,750.522)">
                    <path d="M0,25.981C2.182,25.981 4.113,25.414 5.8,24.284C7.487,23.153 8.812,21.588 9.781,19.594C10.747,17.597 11.231,15.366 11.231,12.898C11.231,10.512 10.747,8.344 9.781,6.389C8.812,4.435 7.487,2.893 5.8,1.759C4.113,0.629 2.182,0.065 0,0.065C-2.139,0.065 -4.063,0.609 -5.77,1.7C-7.477,2.791 -8.815,4.3 -9.781,6.234C-10.747,8.169 -11.231,10.39 -11.231,12.898C-11.231,15.366 -10.747,17.597 -9.781,19.594C-8.815,21.588 -7.487,23.153 -5.8,24.284C-4.113,25.414 -2.182,25.981 0,25.981M12.836,-2.713C13.37,-2.713 13.811,-2.528 14.161,-2.159C14.51,-1.787 14.685,-1.335 14.685,-0.801L14.685,26.966C14.685,27.461 14.5,27.892 14.131,28.261C13.762,28.634 13.327,28.818 12.836,28.818C12.259,28.818 11.804,28.634 11.478,28.261C11.149,27.892 10.984,27.461 10.984,26.966L10.984,19.624L12.032,19.192C12.032,20.303 11.712,21.466 11.076,22.679C10.437,23.892 9.564,25.002 8.453,26.011C7.342,27.019 6.037,27.843 4.535,28.479C3.032,29.115 1.42,29.435 -0.31,29.435C-3.108,29.435 -5.606,28.716 -7.807,27.276C-10.008,25.836 -11.735,23.862 -12.987,21.351C-14.243,18.843 -14.873,16.025 -14.873,12.898C-14.873,9.688 -14.233,6.861 -12.958,4.415C-11.682,1.967 -9.956,0.042 -7.774,-1.355C-5.596,-2.752 -3.147,-3.454 -0.432,-3.454C1.338,-3.454 2.992,-3.145 4.535,-2.528C6.077,-1.912 7.425,-1.068 8.578,0.003C9.728,1.074 10.635,2.296 11.294,3.674C11.949,5.051 12.279,6.482 12.279,7.961L10.984,7.035L10.984,-0.801C10.984,-1.335 11.149,-1.787 11.478,-2.159C11.804,-2.528 12.259,-2.713 12.836,-2.713" style="fill:rgb(179,184,206);fill-rule:nonzero;"/>
                </g>
                <g transform="matrix(1,0,0,1,1628.85,779.341)">
                    <path d="M0,-32.273C2.715,-32.273 4.884,-31.726 6.509,-30.638C8.133,-29.548 9.306,-28.065 10.025,-26.193C10.747,-24.321 11.106,-22.255 11.106,-19.994L11.106,-1.852C11.106,-1.358 10.921,-0.926 10.552,-0.557C10.18,-0.185 9.748,0 9.254,0C8.677,0 8.216,-0.185 7.866,-0.557C7.517,-0.926 7.342,-1.358 7.342,-1.852L7.342,-19.806C7.342,-21.454 7.075,-22.953 6.542,-24.311C6.004,-25.669 5.141,-26.75 3.948,-27.551C2.755,-28.355 1.173,-28.753 -0.804,-28.753C-2.574,-28.753 -4.248,-28.355 -5.833,-27.551C-7.415,-26.75 -8.7,-25.669 -9.689,-24.311C-10.677,-22.953 -11.168,-21.454 -11.168,-19.806L-11.168,-1.852C-11.168,-1.358 -11.356,-0.926 -11.725,-0.557C-12.094,-0.185 -12.526,0 -13.021,0C-13.597,0 -14.059,-0.185 -14.408,-0.557C-14.76,-0.926 -14.935,-1.358 -14.935,-1.852L-14.935,-29.495C-14.935,-29.989 -14.747,-30.421 -14.378,-30.79C-14.009,-31.162 -13.554,-31.347 -13.021,-31.347C-12.487,-31.347 -12.045,-31.162 -11.692,-30.79C-11.346,-30.421 -11.168,-29.989 -11.168,-29.495L-11.168,-24.311L-12.589,-22.09C-12.506,-23.408 -12.085,-24.67 -11.323,-25.886C-10.562,-27.099 -9.587,-28.19 -8.394,-29.155C-7.201,-30.121 -5.873,-30.882 -4.413,-31.439C-2.953,-31.993 -1.483,-32.273 0,-32.273" style="fill:rgb(179,184,206);fill-rule:nonzero;"/>
                </g>
                <g transform="matrix(1,0,0,1,1662.67,737.132)">
                    <path d="M0,39.371C2.221,39.371 4.165,38.804 5.83,37.674C7.497,36.543 8.812,34.998 9.781,33.044C10.747,31.093 11.231,28.858 11.231,26.351C11.231,23.882 10.747,21.671 9.781,19.717C8.812,17.762 7.487,16.23 5.8,15.119C4.113,14.009 2.182,13.455 0,13.455C-2.139,13.455 -4.063,14.009 -5.771,15.119C-7.478,16.23 -8.816,17.762 -9.781,19.717C-10.747,21.671 -11.231,23.882 -11.231,26.351C-11.231,28.819 -10.747,31.04 -9.781,33.014C-8.816,34.988 -7.478,36.543 -5.771,37.674C-4.063,38.804 -2.139,39.371 0,39.371M12.836,-3.454C13.37,-3.454 13.811,-3.269 14.161,-2.897C14.51,-2.528 14.685,-2.096 14.685,-1.602L14.685,40.356C14.685,40.851 14.5,41.282 14.131,41.651C13.762,42.024 13.327,42.208 12.836,42.208C12.259,42.208 11.804,42.024 11.478,41.651C11.149,41.282 10.984,40.851 10.984,40.356L10.984,33.014L12.032,32.151C12.032,33.344 11.725,34.566 11.106,35.822C10.49,37.077 9.616,38.227 8.486,39.279C7.352,40.327 6.037,41.18 4.535,41.839C3.032,42.495 1.42,42.825 -0.31,42.825C-3.065,42.825 -5.543,42.106 -7.745,40.666C-9.946,39.226 -11.683,37.272 -12.958,34.803C-14.233,32.335 -14.873,29.517 -14.873,26.351C-14.873,23.223 -14.233,20.415 -12.958,17.927C-11.683,15.439 -9.956,13.485 -7.774,12.065C-5.596,10.647 -3.147,9.936 -0.432,9.936C1.295,9.936 2.92,10.245 4.442,10.862C5.965,11.478 7.313,12.322 8.486,13.393C9.656,14.464 10.582,15.686 11.261,17.064C11.939,18.441 12.279,19.872 12.279,21.351L10.984,20.425L10.984,-1.602C10.984,-2.096 11.149,-2.528 11.478,-2.897C11.804,-3.269 12.259,-3.454 12.836,-3.454" style="fill:rgb(179,184,206);fill-rule:nonzero;"/>
                </g>
                <g transform="matrix(1,0,0,1,1712.71,763.48)">
                    <path d="M0,0.065C0,-2.446 -0.514,-4.677 -1.542,-6.631C-2.57,-8.586 -3.978,-10.118 -5.767,-11.229C-7.557,-12.339 -9.603,-12.893 -11.907,-12.893C-14.128,-12.893 -16.145,-12.339 -17.954,-11.229C-19.766,-10.118 -21.193,-8.586 -22.245,-6.631C-23.293,-4.677 -23.817,-2.446 -23.817,0.065C-23.817,2.573 -23.293,4.794 -22.245,6.728C-21.193,8.663 -19.766,10.195 -17.954,11.326C-16.145,12.456 -14.128,13.023 -11.907,13.023C-9.603,13.023 -7.557,12.456 -5.767,11.326C-3.978,10.195 -2.57,8.663 -1.542,6.728C-0.514,4.794 0,2.573 0,0.065M3.704,0.065C3.704,3.189 3.025,5.997 1.667,8.485C0.31,10.976 -1.542,12.931 -3.885,14.348C-6.232,15.768 -8.904,16.477 -11.907,16.477C-14.83,16.477 -17.473,15.768 -19.836,14.348C-22.202,12.931 -24.074,10.976 -25.451,8.485C-26.832,5.997 -27.521,3.189 -27.521,0.065C-27.521,-3.102 -26.832,-5.923 -25.451,-8.391C-24.074,-10.86 -22.202,-12.81 -19.836,-14.251C-17.473,-15.691 -14.83,-16.412 -11.907,-16.412C-8.904,-16.412 -6.232,-15.691 -3.885,-14.251C-1.542,-12.81 0.31,-10.86 1.667,-8.391C3.025,-5.923 3.704,-3.102 3.704,0.065" style="fill:rgb(179,184,206);fill-rule:nonzero;"/>
                </g>
                <g transform="matrix(1,0,0,1,1755.35,779.34)">
                    <path d="M0,-31.778C2.551,-31.778 4.729,-31.109 6.542,-29.771C8.351,-28.436 9.583,-26.449 10.242,-23.819L9.379,-23.572L9.748,-24.683C10.282,-25.915 11.178,-27.079 12.434,-28.169C13.686,-29.257 15.116,-30.134 16.721,-30.789C18.326,-31.448 19.951,-31.778 21.595,-31.778C24.189,-31.778 26.275,-31.221 27.86,-30.11C29.442,-29 30.595,-27.51 31.314,-25.639C32.035,-23.767 32.395,-21.658 32.395,-19.314L32.395,-1.852C32.395,-1.357 32.22,-0.926 31.871,-0.557C31.521,-0.184 31.076,0 30.543,0C29.966,0 29.514,-0.184 29.185,-0.557C28.855,-0.926 28.694,-1.357 28.694,-1.852L28.694,-19.13C28.694,-20.814 28.424,-22.356 27.89,-23.757C27.356,-25.154 26.512,-26.265 25.359,-27.089C24.209,-27.909 22.666,-28.321 20.732,-28.321C19.005,-28.321 17.38,-27.909 15.858,-27.089C14.335,-26.265 13.09,-25.154 12.124,-23.757C11.158,-22.356 10.674,-20.814 10.674,-19.13L10.674,-1.852C10.674,-1.357 10.499,-0.926 10.15,-0.557C9.801,-0.184 9.356,0 8.822,0C8.288,0 7.847,-0.184 7.497,-0.557C7.148,-0.926 6.973,-1.357 6.973,-1.852L6.973,-19.314C6.973,-20.998 6.726,-22.511 6.232,-23.849C5.737,-25.184 4.937,-26.265 3.826,-27.089C2.715,-27.909 1.213,-28.321 -0.679,-28.321C-2.366,-28.321 -3.961,-27.909 -5.461,-27.089C-6.963,-26.265 -8.176,-25.184 -9.102,-23.849C-10.028,-22.511 -10.49,-20.998 -10.49,-19.314L-10.49,-1.852C-10.49,-1.357 -10.677,-0.926 -11.047,-0.557C-11.416,-0.184 -11.847,0 -12.342,0C-12.918,0 -13.38,-0.184 -13.729,-0.557C-14.082,-0.926 -14.256,-1.357 -14.256,-1.852L-14.256,-29.494C-14.256,-29.989 -14.068,-30.42 -13.699,-30.789C-13.33,-31.162 -12.875,-31.346 -12.342,-31.346C-11.808,-31.346 -11.366,-31.162 -11.014,-30.789C-10.667,-30.42 -10.49,-29.989 -10.49,-29.494L-10.49,-23.757L-12.157,-21.473C-12.032,-22.709 -11.633,-23.941 -10.954,-25.174C-10.275,-26.41 -9.379,-27.52 -8.268,-28.509C-7.158,-29.494 -5.892,-30.285 -4.475,-30.882C-3.055,-31.478 -1.565,-31.778 0,-31.778" style="fill:rgb(179,184,206);fill-rule:nonzero;"/>
                </g>
                <g transform="matrix(1,0,0,1,1810.02,770.763)">
                    <path d="M0,-25.422C-0.247,-25.422 -0.474,-25.534 -0.679,-25.761C-0.886,-25.986 -0.989,-26.246 -0.989,-26.533C-0.989,-26.78 -0.886,-27.066 -0.679,-27.396L3.085,-33.259C3.289,-33.588 3.559,-33.895 3.889,-34.185C4.215,-34.471 4.627,-34.616 5.121,-34.616C5.78,-34.616 6.294,-34.452 6.664,-34.122C7.036,-33.793 7.197,-33.321 7.158,-32.702C7.158,-32.415 7.105,-32.158 7.003,-31.931C6.901,-31.707 6.746,-31.489 6.542,-31.285L1.911,-26.411C1.668,-26.121 1.378,-25.883 1.048,-25.699C0.719,-25.514 0.369,-25.422 0,-25.422M0.432,5.74C2.613,5.74 4.545,5.173 6.232,4.043C7.919,2.913 9.244,1.347 10.213,-0.646C11.178,-2.644 11.663,-4.875 11.663,-7.343C11.663,-9.729 11.178,-11.897 10.213,-13.852C9.244,-15.806 7.919,-17.348 6.232,-18.482C4.545,-19.612 2.613,-20.176 0.432,-20.176C-1.707,-20.176 -3.632,-19.632 -5.339,-18.541C-7.046,-17.45 -8.384,-15.941 -9.349,-14.006C-10.315,-12.072 -10.799,-9.851 -10.799,-7.343C-10.799,-4.875 -10.315,-2.644 -9.349,-0.646C-8.384,1.347 -7.056,2.913 -5.368,4.043C-3.681,5.173 -1.75,5.74 0.432,5.74M13.268,-22.954C13.802,-22.954 14.243,-22.769 14.593,-22.4C14.942,-22.028 15.116,-21.576 15.116,-21.042L15.116,6.726C15.116,7.22 14.932,7.652 14.563,8.021C14.194,8.393 13.759,8.578 13.268,8.578C12.691,8.578 12.236,8.393 11.91,8.021C11.58,7.652 11.416,7.22 11.416,6.726L11.416,-0.617L12.464,-1.049C12.464,0.062 12.144,1.225 11.508,2.438C10.869,3.651 9.995,4.761 8.885,5.77C7.774,6.778 6.469,7.602 4.966,8.238C3.464,8.874 1.852,9.194 0.122,9.194C-2.676,9.194 -5.174,8.475 -7.375,7.035C-9.577,5.595 -11.303,3.621 -12.556,1.11C-13.811,-1.398 -14.441,-4.216 -14.441,-7.343C-14.441,-10.553 -13.802,-13.38 -12.526,-15.826C-11.251,-18.274 -9.524,-20.199 -7.342,-21.596C-5.164,-22.993 -2.715,-23.695 0,-23.695C1.77,-23.695 3.424,-23.385 4.966,-22.769C6.509,-22.153 7.857,-21.309 9.01,-20.238C10.16,-19.167 11.066,-17.945 11.725,-16.567C12.381,-15.189 12.711,-13.759 12.711,-12.28L11.416,-13.206L11.416,-21.042C11.416,-21.576 11.58,-22.028 11.91,-22.4C12.236,-22.769 12.691,-22.954 13.268,-22.954" style="fill:rgb(179,184,206);fill-rule:nonzero;"/>
                </g>
                <g transform="matrix(1,0,0,1,1833.03,752.684)">
                    <path d="M0,21.657C-0.329,21.166 -0.484,20.682 -0.461,20.207C-0.442,19.736 -0.185,19.353 0.31,19.067C0.639,18.78 1.018,18.655 1.45,18.698C1.882,18.737 2.284,18.942 2.653,19.314C3.763,20.754 5.111,21.914 6.696,22.801C8.278,23.684 10.16,24.125 12.342,24.125C13.492,24.125 14.635,23.931 15.766,23.539C16.896,23.15 17.835,22.553 18.573,21.749C19.315,20.948 19.684,19.93 19.684,18.698C19.684,17.422 19.315,16.404 18.573,15.643C17.835,14.881 16.876,14.265 15.706,13.791C14.533,13.319 13.268,12.917 11.91,12.588C10.509,12.219 9.165,11.797 7.87,11.322C6.571,10.851 5.411,10.255 4.383,9.533C3.352,8.814 2.541,7.938 1.944,6.91C1.348,5.881 1.051,4.626 1.051,3.146C1.051,1.419 1.513,-0.103 2.439,-1.421C3.365,-2.736 4.65,-3.764 6.294,-4.506C7.939,-5.244 9.771,-5.616 11.788,-5.616C12.856,-5.616 13.986,-5.481 15.179,-5.214C16.372,-4.948 17.545,-4.506 18.699,-3.886C19.849,-3.27 20.877,-2.426 21.783,-1.359C22.152,-0.986 22.337,-0.564 22.337,-0.093C22.337,0.381 22.133,0.823 21.721,1.235C21.391,1.482 21.012,1.594 20.58,1.574C20.149,1.551 19.786,1.38 19.499,1.047C18.511,-0.064 17.341,-0.894 15.983,-1.451C14.625,-2.005 13.166,-2.285 11.6,-2.285C10.407,-2.285 9.287,-2.097 8.239,-1.728C7.191,-1.359 6.314,-0.782 5.616,-0.001C4.917,0.78 4.568,1.812 4.568,3.084C4.65,4.28 5.072,5.245 5.833,5.984C6.591,6.725 7.599,7.341 8.855,7.836C10.111,8.33 11.518,8.782 13.083,9.193C14.398,9.523 15.663,9.915 16.876,10.367C18.089,10.818 19.16,11.385 20.086,12.064C21.012,12.743 21.75,13.596 22.307,14.624C22.864,15.653 23.141,16.948 23.141,18.51C23.141,20.322 22.637,21.884 21.628,23.199C20.62,24.517 19.272,25.526 17.588,26.225C15.901,26.923 14.029,27.273 11.973,27.273C9.751,27.273 7.599,26.841 5.523,25.977C3.447,25.114 1.605,23.674 0,21.657" style="fill:rgb(179,184,206);fill-rule:nonzero;"/>
                </g>
                <g transform="matrix(1,0,0,1,1884.68,735.531)">
                    <path d="M0,41.958C0,42.452 -0.185,42.884 -0.557,43.253C-0.926,43.626 -1.358,43.81 -1.852,43.81C-2.386,43.81 -2.828,43.626 -3.177,43.253C-3.526,42.884 -3.701,42.452 -3.701,41.958L-3.701,-0C-3.701,-0.495 -3.516,-0.926 -3.147,-1.295C-2.778,-1.668 -2.346,-1.852 -1.852,-1.852C-1.318,-1.852 -0.873,-1.668 -0.524,-1.295C-0.175,-0.926 0,-0.495 0,-0L0,41.958Z" style="fill:rgb(179,184,206);fill-rule:nonzero;"/>
                </g>
                <g transform="matrix(1,0,0,1,1919.85,763.48)">
                    <path d="M0,0.065C0,-2.446 -0.514,-4.677 -1.542,-6.631C-2.57,-8.586 -3.978,-10.118 -5.767,-11.229C-7.557,-12.339 -9.603,-12.893 -11.907,-12.893C-14.128,-12.893 -16.145,-12.339 -17.954,-11.229C-19.766,-10.118 -21.193,-8.586 -22.245,-6.631C-23.292,-4.677 -23.817,-2.446 -23.817,0.065C-23.817,2.573 -23.292,4.794 -22.245,6.728C-21.193,8.663 -19.766,10.195 -17.954,11.326C-16.145,12.456 -14.128,13.023 -11.907,13.023C-9.603,13.023 -7.557,12.456 -5.767,11.326C-3.978,10.195 -2.57,8.663 -1.542,6.728C-0.514,4.794 0,2.573 0,0.065M3.704,0.065C3.704,3.189 3.025,5.997 1.668,8.485C0.31,10.976 -1.542,12.931 -3.885,14.348C-6.232,15.768 -8.904,16.477 -11.907,16.477C-14.83,16.477 -17.473,15.768 -19.836,14.348C-22.202,12.931 -24.073,10.976 -25.451,8.485C-26.832,5.997 -27.521,3.189 -27.521,0.065C-27.521,-3.102 -26.832,-5.923 -25.451,-8.391C-24.073,-10.86 -22.202,-12.81 -19.836,-14.251C-17.473,-15.691 -14.83,-16.412 -11.907,-16.412C-8.904,-16.412 -6.232,-15.691 -3.885,-14.251C-1.542,-12.81 0.31,-10.86 1.668,-8.391C3.025,-5.923 3.704,-3.102 3.704,0.065" style="fill:rgb(179,184,206);fill-rule:nonzero;"/>
                </g>
                <g transform="matrix(1,0,0,1,1963.17,779.341)">
                    <path d="M0,-32.273C2.715,-32.273 4.884,-31.726 6.509,-30.638C8.133,-29.548 9.306,-28.065 10.025,-26.193C10.747,-24.321 11.106,-22.255 11.106,-19.994L11.106,-1.852C11.106,-1.358 10.921,-0.926 10.552,-0.557C10.18,-0.185 9.748,0 9.254,0C8.677,0 8.216,-0.185 7.866,-0.557C7.517,-0.926 7.342,-1.358 7.342,-1.852L7.342,-19.806C7.342,-21.454 7.075,-22.953 6.542,-24.311C6.004,-25.669 5.141,-26.75 3.948,-27.551C2.755,-28.355 1.173,-28.753 -0.804,-28.753C-2.574,-28.753 -4.248,-28.355 -5.833,-27.551C-7.415,-26.75 -8.7,-25.669 -9.689,-24.311C-10.677,-22.953 -11.168,-21.454 -11.168,-19.806L-11.168,-1.852C-11.168,-1.358 -11.356,-0.926 -11.725,-0.557C-12.094,-0.185 -12.526,0 -13.021,0C-13.597,0 -14.059,-0.185 -14.408,-0.557C-14.76,-0.926 -14.935,-1.358 -14.935,-1.852L-14.935,-29.495C-14.935,-29.989 -14.747,-30.421 -14.378,-30.79C-14.009,-31.162 -13.554,-31.347 -13.021,-31.347C-12.487,-31.347 -12.045,-31.162 -11.693,-30.79C-11.346,-30.421 -11.168,-29.989 -11.168,-29.495L-11.168,-24.311L-12.589,-22.09C-12.506,-23.408 -12.085,-24.67 -11.323,-25.886C-10.562,-27.099 -9.587,-28.19 -8.394,-29.155C-7.201,-30.121 -5.873,-30.882 -4.413,-31.439C-2.953,-31.993 -1.483,-32.273 0,-32.273" style="fill:rgb(179,184,206);fill-rule:nonzero;"/>
                </g>
                <g transform="matrix(1,0,0,1,1998.22,747.068)">
                    <path d="M0,32.889C-3.17,32.889 -5.968,32.21 -8.394,30.852C-10.822,29.495 -12.714,27.603 -14.072,25.178C-15.429,22.749 -16.108,19.911 -16.108,16.662C-16.108,13.165 -15.42,10.183 -14.039,7.715C-12.661,5.246 -10.872,3.345 -8.67,2.007C-6.472,0.669 -4.136,0 -1.667,0C0.142,0 1.901,0.32 3.609,0.956C5.316,1.595 6.838,2.541 8.173,3.796C9.511,5.052 10.582,6.584 11.383,8.394C12.187,10.203 12.628,12.302 12.711,14.688C12.668,15.179 12.464,15.604 12.091,15.95C11.722,16.303 11.29,16.477 10.796,16.477L-13.947,16.477L-14.688,13.142L9.623,13.142L8.822,13.884L8.822,12.651C8.614,10.717 7.978,9.082 6.911,7.744C5.84,6.41 4.554,5.378 3.052,4.66C1.552,3.941 -0.023,3.579 -1.667,3.579C-2.903,3.579 -4.166,3.826 -5.464,4.32C-6.759,4.815 -7.932,5.586 -8.98,6.634C-10.028,7.682 -10.882,9.02 -11.541,10.644C-12.2,12.269 -12.529,14.194 -12.529,16.415C-12.529,18.844 -12.035,21.042 -11.047,23.016C-10.061,24.993 -8.631,26.555 -6.759,27.705C-4.887,28.859 -2.656,29.435 -0.063,29.435C1.378,29.435 2.663,29.228 3.793,28.816C4.923,28.407 5.932,27.86 6.818,27.181C7.702,26.502 8.43,25.794 9.007,25.052C9.458,24.683 9.893,24.499 10.302,24.499C10.756,24.499 11.135,24.663 11.445,24.993C11.752,25.323 11.907,25.692 11.907,26.104C11.907,26.595 11.702,27.026 11.29,27.399C10.058,28.878 8.453,30.164 6.479,31.254C4.502,32.345 2.343,32.889 0,32.889" style="fill:rgb(179,184,206);fill-rule:nonzero;"/>
                </g>
                <g transform="matrix(1,0,0,1,2032.71,779.957)">
                    <path d="M0,-32.889C1.974,-32.889 3.783,-32.672 5.431,-32.24C7.075,-31.808 8.404,-31.221 9.412,-30.483C10.417,-29.742 10.921,-28.938 10.921,-28.074C10.921,-27.662 10.776,-27.264 10.49,-26.871C10.203,-26.479 9.811,-26.285 9.32,-26.285C8.782,-26.285 8.361,-26.397 8.054,-26.624C7.744,-26.852 7.445,-27.138 7.158,-27.488C6.871,-27.837 6.439,-28.137 5.863,-28.384C5.329,-28.671 4.558,-28.908 3.549,-29.093C2.541,-29.277 1.42,-29.369 0.185,-29.369C-2.119,-29.369 -4.195,-28.796 -6.047,-27.643C-7.899,-26.492 -9.359,-24.947 -10.427,-23.016C-11.498,-21.081 -12.032,-18.903 -12.032,-16.474C-12.032,-14.006 -11.518,-11.785 -10.49,-9.811C-9.461,-7.837 -8.041,-6.281 -6.232,-5.151C-4.422,-4.021 -2.303,-3.454 0.125,-3.454C1.727,-3.454 2.992,-3.599 3.918,-3.885C4.844,-4.175 5.616,-4.505 6.232,-4.874C7.056,-5.325 7.642,-5.767 7.992,-6.202C8.341,-6.634 8.802,-6.848 9.379,-6.848C9.913,-6.848 10.315,-6.693 10.582,-6.387C10.849,-6.077 10.984,-5.675 10.984,-5.184C10.984,-4.525 10.5,-3.793 9.534,-2.992C8.568,-2.188 7.24,-1.49 5.553,-0.893C3.866,-0.297 1.915,0 -0.306,0C-3.351,0 -6.037,-0.718 -8.361,-2.159C-10.684,-3.599 -12.493,-5.563 -13.792,-8.051C-15.087,-10.539 -15.736,-13.347 -15.736,-16.474C-15.736,-19.476 -15.077,-22.212 -13.759,-24.68C-12.444,-27.148 -10.611,-29.135 -8.268,-30.635C-5.922,-32.138 -3.167,-32.889 0,-32.889" style="fill:rgb(179,184,206);fill-rule:nonzero;"/>
                </g>
                <g transform="matrix(1,0,0,1,2065.05,747.068)">
                    <path d="M0,32.889C-3.17,32.889 -5.968,32.21 -8.394,30.852C-10.823,29.495 -12.714,27.603 -14.072,25.178C-15.429,22.749 -16.108,19.911 -16.108,16.662C-16.108,13.165 -15.42,10.183 -14.039,7.715C-12.661,5.246 -10.872,3.345 -8.67,2.007C-6.472,0.669 -4.136,0 -1.667,0C0.142,0 1.901,0.32 3.608,0.956C5.316,1.595 6.838,2.541 8.173,3.796C9.511,5.052 10.582,6.584 11.383,8.394C12.187,10.203 12.628,12.302 12.711,14.688C12.668,15.179 12.463,15.604 12.091,15.95C11.722,16.303 11.29,16.477 10.796,16.477L-13.947,16.477L-14.688,13.142L9.623,13.142L8.822,13.884L8.822,12.651C8.614,10.717 7.978,9.082 6.911,7.744C5.84,6.41 4.554,5.378 3.052,4.66C1.552,3.941 -0.023,3.579 -1.667,3.579C-2.903,3.579 -4.166,3.826 -5.464,4.32C-6.759,4.815 -7.932,5.586 -8.98,6.634C-10.028,7.682 -10.882,9.02 -11.541,10.644C-12.2,12.269 -12.53,14.194 -12.53,16.415C-12.53,18.844 -12.035,21.042 -11.047,23.016C-10.061,24.993 -8.631,26.555 -6.759,27.705C-4.887,28.859 -2.656,29.435 -0.063,29.435C1.377,29.435 2.663,29.228 3.793,28.816C4.923,28.407 5.932,27.86 6.818,27.181C7.701,26.502 8.43,25.794 9.007,25.052C9.458,24.683 9.893,24.499 10.302,24.499C10.756,24.499 11.135,24.663 11.445,24.993C11.752,25.323 11.906,25.692 11.906,26.104C11.906,26.595 11.702,27.026 11.29,27.399C10.058,28.878 8.453,30.164 6.479,31.254C4.502,32.345 2.343,32.889 0,32.889" style="fill:rgb(179,184,206);fill-rule:nonzero;"/>
                </g>
                <g transform="matrix(1,0,0,1,2083.86,752.684)">
                    <path d="M0,21.657C-0.33,21.166 -0.484,20.682 -0.461,20.207C-0.442,19.736 -0.185,19.353 0.31,19.067C0.639,18.78 1.018,18.655 1.45,18.698C1.882,18.737 2.284,18.942 2.653,19.314C3.763,20.754 5.111,21.914 6.696,22.801C8.278,23.684 10.16,24.125 12.342,24.125C13.492,24.125 14.635,23.931 15.766,23.539C16.896,23.15 17.835,22.553 18.573,21.749C19.315,20.948 19.684,19.93 19.684,18.698C19.684,17.422 19.315,16.404 18.573,15.643C17.835,14.881 16.876,14.265 15.706,13.791C14.533,13.319 13.268,12.917 11.91,12.588C10.509,12.219 9.165,11.797 7.87,11.322C6.571,10.851 5.411,10.255 4.383,9.533C3.352,8.814 2.541,7.938 1.944,6.91C1.348,5.881 1.051,4.626 1.051,3.146C1.051,1.419 1.513,-0.103 2.439,-1.421C3.365,-2.736 4.65,-3.764 6.294,-4.506C7.939,-5.244 9.771,-5.616 11.788,-5.616C12.856,-5.616 13.986,-5.481 15.179,-5.214C16.372,-4.948 17.545,-4.506 18.698,-3.886C19.849,-3.27 20.877,-2.426 21.783,-1.359C22.152,-0.986 22.337,-0.564 22.337,-0.093C22.337,0.381 22.133,0.823 21.72,1.235C21.391,1.482 21.012,1.594 20.58,1.574C20.149,1.551 19.786,1.38 19.499,1.047C18.511,-0.064 17.341,-0.894 15.983,-1.451C14.625,-2.005 13.166,-2.285 11.6,-2.285C10.407,-2.285 9.287,-2.097 8.239,-1.728C7.191,-1.359 6.314,-0.782 5.615,-0.001C4.917,0.78 4.567,1.812 4.567,3.084C4.65,4.28 5.072,5.245 5.833,5.984C6.591,6.725 7.599,7.341 8.855,7.836C10.111,8.33 11.518,8.782 13.083,9.193C14.398,9.523 15.663,9.915 16.876,10.367C18.089,10.818 19.16,11.385 20.086,12.064C21.012,12.743 21.75,13.596 22.307,14.624C22.864,15.653 23.141,16.948 23.141,18.51C23.141,20.322 22.637,21.884 21.628,23.199C20.62,24.517 19.272,25.526 17.588,26.225C15.901,26.923 14.029,27.273 11.972,27.273C9.751,27.273 7.599,26.841 5.523,25.977C3.447,25.114 1.605,23.674 0,21.657" style="fill:rgb(179,184,206);fill-rule:nonzero;"/>
                </g>
                <g transform="matrix(1,0,0,1,2118.17,739.789)">
                    <path d="M0,37.7C0,38.194 -0.185,38.626 -0.554,38.995C-0.926,39.368 -1.358,39.552 -1.852,39.552C-2.426,39.552 -2.88,39.368 -3.207,38.995C-3.536,38.626 -3.701,38.194 -3.701,37.7L-3.701,9.316C-3.701,8.822 -3.526,8.39 -3.177,8.021C-2.828,7.652 -2.386,7.464 -1.852,7.464C-1.315,7.464 -0.873,7.652 -0.524,8.021C-0.175,8.39 0,8.822 0,9.316L0,37.7ZM-1.852,3.331C-2.716,3.331 -3.361,3.137 -3.793,2.745C-4.225,2.356 -4.442,1.789 -4.442,1.048L-4.442,0.431C-4.442,-0.31 -4.205,-0.874 -3.734,-1.266C-3.259,-1.658 -2.613,-1.852 -1.79,-1.852C-1.009,-1.852 -0.399,-1.658 0.033,-1.266C0.465,-0.874 0.679,-0.31 0.679,0.431L0.679,1.048C0.679,1.789 0.465,2.356 0.033,2.745C-0.399,3.137 -1.028,3.331 -1.852,3.331" style="fill:rgb(179,184,206);fill-rule:nonzero;"/>
                </g>
                <g transform="matrix(1,0,0,1,2132.12,779.34)">
                    <path d="M0,-40.109C0.534,-40.109 0.975,-39.924 1.325,-39.552C1.674,-39.183 1.852,-38.751 1.852,-38.257L1.852,-7.279C1.852,-6.129 2.004,-5.266 2.313,-4.689C2.623,-4.112 3.022,-3.733 3.516,-3.549C4.01,-3.361 4.505,-3.269 4.999,-3.269C5.325,-3.269 5.625,-3.321 5.892,-3.424C6.159,-3.526 6.459,-3.578 6.789,-3.578C7.158,-3.578 7.474,-3.433 7.744,-3.147C8.011,-2.857 8.146,-2.488 8.146,-2.036C8.146,-1.459 7.813,-0.975 7.158,-0.586C6.499,-0.194 5.718,0 4.811,0C4.442,0 3.889,-0.029 3.147,-0.092C2.406,-0.154 1.645,-0.379 0.863,-0.771C0.082,-1.163 -0.577,-1.852 -1.111,-2.837C-1.648,-3.826 -1.915,-5.246 -1.915,-7.095L-1.915,-38.257C-1.915,-38.751 -1.727,-39.183 -1.358,-39.552C-0.989,-39.924 -0.534,-40.109 0,-40.109M-6.357,-31.409L8.021,-31.409C8.516,-31.409 8.924,-31.231 9.257,-30.882C9.583,-30.532 9.748,-30.11 9.748,-29.619C9.748,-29.125 9.583,-28.713 9.257,-28.384C8.924,-28.054 8.516,-27.889 8.021,-27.889L-6.357,-27.889C-6.848,-27.889 -7.273,-28.064 -7.623,-28.413C-7.972,-28.763 -8.146,-29.188 -8.146,-29.679C-8.146,-30.173 -7.972,-30.585 -7.623,-30.915C-7.273,-31.244 -6.848,-31.409 -6.357,-31.409" style="fill:rgb(179,184,206);fill-rule:nonzero;"/>
                </g>
                <g transform="matrix(1,0,0,1,2161.73,750.522)">
                    <path d="M0,25.981C2.182,25.981 4.113,25.414 5.8,24.284C7.488,23.153 8.812,21.588 9.781,19.594C10.747,17.597 11.231,15.366 11.231,12.898C11.231,10.512 10.747,8.344 9.781,6.389C8.812,4.435 7.488,2.893 5.8,1.759C4.113,0.629 2.182,0.065 0,0.065C-2.139,0.065 -4.063,0.609 -5.77,1.7C-7.477,2.791 -8.815,4.3 -9.781,6.234C-10.747,8.169 -11.231,10.39 -11.231,12.898C-11.231,15.366 -10.747,17.597 -9.781,19.594C-8.815,21.588 -7.487,23.153 -5.8,24.284C-4.113,25.414 -2.182,25.981 0,25.981M12.836,-2.713C13.37,-2.713 13.812,-2.528 14.161,-2.159C14.51,-1.787 14.685,-1.335 14.685,-0.801L14.685,26.966C14.685,27.461 14.5,27.892 14.131,28.261C13.762,28.634 13.327,28.818 12.836,28.818C12.259,28.818 11.804,28.634 11.478,28.261C11.149,27.892 10.984,27.461 10.984,26.966L10.984,19.624L12.032,19.192C12.032,20.303 11.712,21.466 11.076,22.679C10.437,23.892 9.564,25.002 8.453,26.011C7.343,27.019 6.037,27.843 4.535,28.479C3.032,29.115 1.42,29.435 -0.31,29.435C-3.108,29.435 -5.605,28.716 -7.807,27.276C-10.008,25.836 -11.735,23.862 -12.988,21.351C-14.243,18.843 -14.873,16.025 -14.873,12.898C-14.873,9.688 -14.233,6.861 -12.958,4.415C-11.682,1.967 -9.956,0.042 -7.774,-1.355C-5.596,-2.752 -3.147,-3.454 -0.432,-3.454C1.338,-3.454 2.992,-3.145 4.535,-2.528C6.077,-1.912 7.425,-1.068 8.578,0.003C9.728,1.074 10.635,2.296 11.294,3.674C11.949,5.051 12.279,6.482 12.279,7.961L10.984,7.035L10.984,-0.801C10.984,-1.335 11.149,-1.787 11.478,-2.159C11.804,-2.528 12.259,-2.713 12.836,-2.713" style="fill:rgb(179,184,206);fill-rule:nonzero;"/>
                </g>
                <g transform="matrix(1,0,0,1,2184.32,752.684)">
                    <path d="M0,21.657C-0.329,21.166 -0.484,20.682 -0.461,20.207C-0.441,19.736 -0.184,19.353 0.31,19.067C0.639,18.78 1.018,18.655 1.45,18.698C1.882,18.737 2.284,18.942 2.653,19.314C3.764,20.754 5.111,21.914 6.697,22.801C8.278,23.684 10.16,24.125 12.342,24.125C13.492,24.125 14.635,23.931 15.766,23.539C16.896,23.15 17.835,22.553 18.573,21.749C19.315,20.948 19.684,19.93 19.684,18.698C19.684,17.422 19.315,16.404 18.573,15.643C17.835,14.881 16.876,14.265 15.707,13.791C14.533,13.319 13.268,12.917 11.91,12.588C10.51,12.219 9.165,11.797 7.87,11.322C6.571,10.851 5.411,10.255 4.383,9.533C3.352,8.814 2.541,7.938 1.944,6.91C1.348,5.881 1.051,4.626 1.051,3.146C1.051,1.419 1.513,-0.103 2.439,-1.421C3.365,-2.736 4.65,-3.764 6.294,-4.506C7.939,-5.244 9.771,-5.616 11.788,-5.616C12.856,-5.616 13.986,-5.481 15.179,-5.214C16.372,-4.948 17.545,-4.506 18.699,-3.886C19.849,-3.27 20.877,-2.426 21.783,-1.359C22.152,-0.986 22.337,-0.564 22.337,-0.093C22.337,0.381 22.133,0.823 21.721,1.235C21.391,1.482 21.012,1.594 20.581,1.574C20.149,1.551 19.786,1.38 19.5,1.047C18.511,-0.064 17.341,-0.894 15.983,-1.451C14.625,-2.005 13.166,-2.285 11.6,-2.285C10.407,-2.285 9.287,-2.097 8.239,-1.728C7.191,-1.359 6.314,-0.782 5.616,-0.001C4.917,0.78 4.568,1.812 4.568,3.084C4.65,4.28 5.072,5.245 5.833,5.984C6.591,6.725 7.6,7.341 8.855,7.836C10.111,8.33 11.518,8.782 13.083,9.193C14.398,9.523 15.664,9.915 16.876,10.367C18.089,10.818 19.16,11.385 20.086,12.064C21.012,12.743 21.75,13.596 22.307,14.624C22.864,15.653 23.141,16.948 23.141,18.51C23.141,20.322 22.637,21.884 21.628,23.199C20.62,24.517 19.272,25.526 17.588,26.225C15.901,26.923 14.029,27.273 11.973,27.273C9.751,27.273 7.6,26.841 5.523,25.977C3.447,25.114 1.605,23.674 0,21.657" style="fill:rgb(179,184,206);fill-rule:nonzero;"/>
                </g>
                <g transform="matrix(1,0,0,1,1601.18,497.49)">
                    <path d="M0,-63.862C2.003,-57.438 -0.697,-50.503 -4.139,-44.721C-7.582,-38.94 -11.883,-33.47 -13.501,-26.938C-16.1,-16.454 -10.365,-4.521 -0.556,0C10.605,-6.295 18.532,-18.614 19.299,-31.405C20.066,-44.196 10.328,-56.277 0,-63.862" style="fill:rgb(245,228,215);fill-rule:nonzero;"/>
                </g>
            </g>
        </g>
    </g>
</svg>
