<?xml version="1.0" encoding="UTF-8" standalone="no"?>
<!DOCTYPE svg PUBLIC "-//W3C//DTD SVG 1.1//EN" "http://www.w3.org/Graphics/SVG/1.1/DTD/svg11.dtd">
<svg width="100%" height="100%" viewBox="0 0 5000 5000" version="1.1" xmlns="http://www.w3.org/2000/svg" xmlns:xlink="http://www.w3.org/1999/xlink" xml:space="preserve" xmlns:serif="http://www.serif.com/" style="fill-rule:evenodd;clip-rule:evenodd;stroke-linejoin:round;stroke-miterlimit:2;">
    <g id="Page-1" serif:id="Page 1" transform="matrix(4.16667,0,0,4.16667,0,0)">
        <rect x="0" y="0" width="1200" height="1200" style="fill:none;"/>
        <g id="Capa-1" serif:id="Capa 1">
            <g transform="matrix(1,0,0,1,667.56,400.22)">
                <path d="M0,-51.946C-0.862,-60.73 -2.36,-69.477 -4.634,-78.008C-8.101,-91.013 -13.456,-103.553 -21.471,-114.097C-30.335,-125.759 -41.376,-132.96 -55.825,-135.305C-54.128,-133.603 -52.637,-131.719 -51.424,-129.697C-44.15,-117.566 -45.142,-101.943 -50.288,-89.533C-60.236,-65.537 -82.679,-50.143 -96.697,-28.871C-108.644,-10.743 -113.774,11.22 -110.437,32.492C-101.705,49.852 -89.482,66.388 -73.8,81.322C-71.505,79.694 -68.912,78.802 -66.297,78.587C-71.594,63.411 -71.479,46.299 -66.103,31.132C-70.185,27.309 -71.717,20.854 -69.516,15.671C-67.98,12.055 -64.997,9.299 -62.48,6.283C-59.962,3.268 -57.766,-0.48 -58.329,-4.368C-53.075,0.957 -48.576,8.818 -50.197,16.12C-51.649,22.658 -56.384,28.426 -62.391,31.432C-67.992,46.509 -68.059,63.727 -62.415,78.769C-59.245,79.327 -56.247,80.88 -53.941,83.359C-44.245,74.141 -30.916,58.805 -29.262,56.497C-6.965,25.383 3.743,-13.822 0,-51.946" style="fill:rgb(245,228,215);fill-rule:nonzero;"/>
            </g>
            <g opacity="0.62">
                <g transform="matrix(1,0,0,1,565.299,309.46)">
                    <path d="M0,60.176C14.019,38.904 36.133,25.289 46.082,1.294C51.227,-11.117 53.049,-26.103 45.774,-38.234C44.562,-40.257 42.863,-42.843 41.166,-44.545C37.187,-48.538 20.658,-43.608 16.396,-41.838C-12.082,-30.009 -21.937,5.028 -23.981,33.03C-25.852,58.645 -19.886,84.039 -13.722,108.714C-13.927,89.668 -9.235,74.19 0,60.176" style="fill:rgb(235,173,207);fill-rule:nonzero;"/>
                </g>
            </g>
            <g opacity="0.62">
                <g transform="matrix(1,0,0,1,581.972,416.984)">
                    <path d="M0,80.844C-20.332,80.844 -40.263,74.41 -55.701,62.462C-76.709,46.199 -88.905,19.325 -86.769,-6.004C-86.306,-11.488 -85.163,-16.897 -83.42,-22.103C-109.818,-29.583 -138.582,-29.898 -166.81,-21.415C-166.946,-21.374 -167.081,-21.333 -167.216,-21.292C-189.518,-14.52 -210.131,17.309 -191.129,45.665C-191.051,45.781 -190.97,45.895 -190.89,46.01C-148.634,106.973 -66.992,110.742 0.531,80.831C0.355,80.832 0.177,80.844 0,80.844" style="fill:rgb(235,173,207);fill-rule:nonzero;"/>
                </g>
            </g>
            <g opacity="0.62">
                <g transform="matrix(1,0,0,1,592.533,684.654)">
                    <path d="M0,-179.405C-8.579,-173.911 -15.973,-166.582 -21.395,-157.931C-27.82,-147.68 -31.436,-135.756 -31.88,-123.687C-29.46,-123.189 -27.284,-121.635 -26.133,-119.235C-24.178,-115.156 -25.899,-110.265 -29.977,-108.31C-34.055,-106.354 -38.947,-108.075 -40.903,-112.154C-42.858,-116.232 -41.137,-121.123 -37.059,-123.079C-36.542,-123.326 -36.012,-123.513 -35.477,-123.646C-35.037,-136.4 -31.232,-149.008 -24.443,-159.841C-18.845,-168.771 -11.248,-176.361 -2.438,-182.107C-3.506,-183.647 -4.258,-185.314 -4.692,-187.034C-6.65,-186.909 -8.607,-186.826 -10.561,-186.826C-14.716,-186.826 -18.851,-187.109 -22.937,-187.639C-89.596,-174.011 -140.426,-115.831 -142.001,-44.933C-142.004,-44.792 -142.007,-44.65 -142.01,-44.509C-142.461,-21.206 -118.56,8.234 -85.72,-1.076C-85.585,-1.114 -85.452,-1.156 -85.318,-1.196C-13.146,-22.886 15.42,-101.478 6.536,-175.999C4.146,-176.559 1.906,-177.729 0,-179.405" style="fill:rgb(235,173,207);fill-rule:nonzero;"/>
                </g>
            </g>
            <g opacity="0.62">
                <g transform="matrix(0.258187,-0.966095,-0.966095,-0.258187,695.736,457.703)">
                    <path d="M-54.041,-36.816C-41.961,-26.729 -33.54,-11.555 -31.795,5.063C-29.566,26.261 -38.035,49.347 -54.041,66.419C-57.088,65.358 -60.417,65.251 -63.533,66.215C-73.058,30.958 -69.008,-5.476 -54.041,-36.816" style="fill:rgb(235,173,207);fill-rule:nonzero;"/>
                </g>
            </g>
            <g opacity="0.62">
                <g transform="matrix(1,0,0,1,788.801,493.708)">
                    <path d="M0,-99.057C-0.131,-99.105 -0.264,-99.15 -0.395,-99.196C-71.436,-124.036 -140.697,-77.43 -177.353,-12.06C-176.073,-11.129 -174.913,-9.99 -173.94,-8.633C-173.038,-7.374 -172.364,-6.021 -171.896,-4.625C-150.383,-15.891 -125.759,-17.952 -104.88,-9.955C-88.125,-3.538 -74.752,9.529 -67.828,24.979C-34.137,17.833 -2.746,-0.93 19.754,-30.494C19.84,-30.607 19.925,-30.72 20.011,-30.833C34.073,-49.419 32.041,-87.286 0,-99.057" style="fill:rgb(235,173,207);fill-rule:nonzero;"/>
                </g>
            </g>
            <g opacity="0.62">
                <g transform="matrix(1,0,0,1,723.127,629.97)">
                    <path d="M0,-70.633C-6.15,-53.241 -21.037,-39.182 -38.454,-35.753C-41.834,-32.386 -45.847,-28.42 -50.361,-27.185C-55.092,-25.891 -61.098,-27.865 -62.503,-32.563C-62.682,-33.164 -62.773,-33.764 -62.786,-34.357C-62.885,-39.126 -57.893,-43.44 -52.867,-43.811C-47.817,-44.184 -43.051,-41.887 -38.586,-39.382C-21.972,-42.885 -7.953,-56.846 -2.76,-73.801C-28.324,-102.21 -66.286,-121.667 -106.727,-129.961C-107.784,-127.551 -109.468,-125.379 -111.762,-123.735C-115.956,-120.73 -121.159,-120.179 -125.679,-121.784C-142.107,-48.902 -101.688,26.305 -29.465,51.558C-29.331,51.605 -29.198,51.651 -29.064,51.698C-7.041,59.328 28.344,45.694 29.638,11.584C29.643,11.444 29.645,11.305 29.648,11.165C30.356,-20.703 18.944,-48.286 0,-70.633" style="fill:rgb(235,173,207);fill-rule:nonzero;"/>
                </g>
            </g>
            <g opacity="0.62">
                <g transform="matrix(1,0,0,1,593.701,409.624)">
                    <path d="M0,71.956C0.568,71.549 1.16,71.203 1.761,70.886C-15.735,29.202 -50.642,-1.01 -91.701,-13.721C-93.374,-8.749 -94.473,-3.582 -94.915,1.658C-96.951,25.804 -85.298,51.443 -65.228,66.978C-49.052,79.499 -27.705,85.677 -6.322,84.42C-6.361,79.654 -4.169,74.943 0,71.956" style="fill:rgb(235,173,207);fill-rule:nonzero;"/>
                </g>
            </g>
            <g transform="matrix(1,0,0,1,250.869,782.933)">
                <path d="M0,56.397L33.68,-26.038L67.164,56.397L0,56.397ZM40.731,-45.931L36.559,-45.931L-21.616,96.504L-31.04,99.074L-31.04,102.328L-4.336,102.328L-4.336,98.999L-16.464,96.615L-2.059,61.19L69.22,61.19L83.664,96.713L75.01,99.074L75.01,102.328L108.122,102.328L108.122,99.074L98.699,96.504L40.731,-45.931Z" style="fill:rgb(154,159,208);fill-rule:nonzero;"/>
            </g>
            <g transform="matrix(1,0,0,1,386.269,885.261)">
                <path d="M0,-152.393L-21.95,-152.393L-21.95,-149.14L-12.854,-146.659L-12.854,-5.734L-21.95,-3.253L-21.95,0L9.096,0L9.096,-3.253L0,-5.734L0,-152.393Z" style="fill:rgb(154,159,208);fill-rule:nonzero;"/>
            </g>
            <g transform="matrix(1,0,0,1,425.75,885.261)">
                <path d="M0,-152.393L-21.95,-152.393L-21.95,-149.14L-12.854,-146.659L-12.854,-5.734L-21.95,-3.253L-21.95,0L9.096,0L9.096,-3.253L0,-5.734L0,-152.393Z" style="fill:rgb(154,159,208);fill-rule:nonzero;"/>
            </g>
            <g transform="matrix(1,0,0,1,498.495,881.711)">
                <path d="M0,-98.778C13.093,-98.778 19.706,-88.257 20.45,-77.828C22.518,-48.084 -10.999,-29.491 -34.922,-25.971C-40.574,-42.33 -39.125,-63.042 -31.225,-77.86C-25.557,-88.494 -17.087,-95.453 -6.725,-97.99C-4.569,-98.527 -2.432,-98.778 0,-98.778M36.248,-29.805C28.392,-10.163 11.136,1.226 -7.719,-0.821C-19.021,-2.056 -28.153,-9.67 -33.57,-22.319C-8.219,-26.134 37.636,-46.824 35.363,-80.081C34.263,-94.398 21.591,-104.396 4.547,-104.396C0.463,-104.396 -3.603,-103.896 -7.53,-102.914C-42.889,-94.428 -55.704,-62.753 -52.647,-36.913C-50.141,-15.742 -35.704,5.618 -9.096,5.618C14.426,5.618 32.095,-6.487 40.657,-28.467L41.2,-29.863L36.637,-30.778L36.248,-29.805Z" style="fill:rgb(154,159,208);fill-rule:nonzero;"/>
            </g>
            <g transform="matrix(1,0,0,1,618.596,886.295)">
                <path d="M0,-109.809C-3.128,-109.809 -6.015,-108.066 -7.354,-105.371C-8.752,-102.557 -8.244,-99.219 -5.967,-96.219C9.988,-74.946 5.818,-48.143 -18.725,-14.328L-55.746,-101.307L-47.114,-103.661L-47.114,-106.914L-79.194,-106.914L-79.194,-103.661L-69.765,-101.089L-27.712,0L-24.614,0L-24.235,-0.474C3.539,-35.336 26.327,-81.421 7.014,-106.189C5.314,-108.522 2.825,-109.809 0,-109.809" style="fill:rgb(154,159,208);fill-rule:nonzero;"/>
            </g>
            <g transform="matrix(1,0,0,1,665.327,885.261)">
                <path d="M0,-105.88L-21.951,-105.88L-21.951,-102.627L-12.855,-100.146L-12.855,-5.734L-21.951,-3.254L-21.951,0L9.094,0L9.094,-3.254L0,-5.734L0,-105.88Z" style="fill:rgb(154,159,208);fill-rule:nonzero;"/>
            </g>
            <g transform="matrix(1,0,0,1,774.168,792.805)">
                <path d="M0,79.034C-2.173,83.161 -3.717,84.77 -5.502,84.77C-6.01,84.77 -7.551,84.77 -7.551,80.86L-7.551,49.852C-7.551,46.069 -10.195,43.425 -13.978,43.425C-17.762,43.425 -20.406,46.069 -20.406,49.852C-20.406,72.744 -36.162,86.423 -51.396,86.423C-65.576,86.423 -74.737,78.479 -74.737,66.183C-74.737,48.491 -58.922,44.671 -42.177,40.628C-25.155,36.515 -7.551,32.264 -7.551,12.435C-7.551,-4.528 -20.054,-15.49 -39.405,-15.49C-57.769,-15.49 -67.144,-8.262 -71.775,-2.2C-77.435,5.212 -77.974,13.274 -76.592,18.335C-75.327,23.149 -71.692,24.857 -68.966,24.857C-66.707,24.857 -64.587,23.86 -63.15,22.12C-61.554,20.187 -60.978,17.543 -61.533,14.661C-63.12,6.975 -61.977,0.268 -58.318,-4.223C-54.705,-8.657 -48.759,-10.906 -40.646,-10.906C-27.783,-10.906 -20.406,-2.927 -20.406,10.988C-20.406,29.408 -36.229,33.7 -52.983,38.246C-70.302,42.944 -88.211,47.803 -88.211,69.078C-88.211,80.816 -79.814,94.524 -56.15,94.524C-40.462,94.524 -27.047,85.361 -20.406,70.651L-20.406,82.721C-20.406,92.475 -14.998,94.524 -10.464,94.524C-2.814,94.524 1.426,85.277 3.236,81.329L4.01,79.663L0.574,77.944L0,79.034Z" style="fill:rgb(154,159,208);fill-rule:nonzero;"/>
            </g>
            <g transform="matrix(1,0,0,1,844.114,885.261)">
                <path d="M0,-107.946C-14.953,-107.946 -29.015,-93.416 -35.953,-77.537L-35.953,-105.88L-57.902,-105.88L-57.902,-102.626L-48.806,-100.146L-48.806,-5.734L-57.902,-3.253L-57.902,0L-26.856,0L-26.856,-3.255L-35.953,-5.736L-35.953,-56.454C-35.953,-74.078 -19.552,-101.089 -5.376,-101.089C2.916,-101.089 6.94,-95.328 8.857,-90.497C13.713,-78.248 10.195,-59.034 1.617,-50.962L0.462,-49.875L2.983,-48.201L3.615,-48.485C19.968,-55.823 26.605,-74.86 23.571,-89.024C21.036,-100.873 12.223,-107.946 0,-107.946" style="fill:rgb(154,159,208);fill-rule:nonzero;"/>
            </g>
            <g transform="matrix(1,0,0,1,934.239,881.711)">
                <path d="M0,-98.778C13.093,-98.778 19.705,-88.257 20.449,-77.83C22.518,-48.086 -10.999,-29.491 -34.921,-25.971C-40.574,-42.33 -39.124,-63.042 -31.225,-77.86C-25.557,-88.494 -17.086,-95.453 -6.724,-97.99C-4.568,-98.527 -2.432,-98.778 0,-98.778M36.638,-30.778L36.248,-29.805C28.392,-10.163 11.143,1.236 -7.719,-0.821C-19.02,-2.056 -28.151,-9.67 -33.569,-22.319C-8.218,-26.134 37.637,-46.824 35.365,-80.081C34.263,-94.398 21.591,-104.396 4.547,-104.396C0.464,-104.396 -3.604,-103.896 -7.528,-102.914C-42.888,-94.428 -55.704,-62.753 -52.646,-36.913C-50.142,-15.742 -35.704,5.618 -9.096,5.618C14.426,5.618 32.094,-6.487 40.657,-28.467L41.201,-29.863L36.638,-30.778Z" style="fill:rgb(154,159,208);fill-rule:nonzero;"/>
            </g>
            <g transform="matrix(1,0,0,1,233.648,903.207)">
                <path d="M0,19.131C0.284,19.131 0.526,19.226 0.723,19.41C0.921,19.598 1.019,19.821 1.019,20.084C1.019,20.37 0.921,20.606 0.723,20.792C0.526,20.978 0.284,21.071 0,21.071L-11.702,21.071C-11.987,21.071 -12.223,20.973 -12.41,20.774C-12.596,20.578 -12.689,20.348 -12.689,20.084L-12.689,-0.953C-12.689,-1.217 -12.59,-1.447 -12.393,-1.643C-12.195,-1.842 -11.943,-1.94 -11.637,-1.94C-11.374,-1.94 -11.139,-1.842 -10.93,-1.643C-10.722,-1.447 -10.618,-1.217 -10.618,-0.953L-10.618,19.691L-11.242,19.131L0,19.131Z" style="fill:rgb(179,184,206);fill-rule:nonzero;"/>
            </g>
            <g transform="matrix(1,0,0,1,240.124,900.939)">
                <path d="M0,22.352C0,22.615 -0.098,22.845 -0.296,23.042C-0.493,23.24 -0.723,23.339 -0.986,23.339C-1.271,23.339 -1.507,23.24 -1.693,23.042C-1.879,22.845 -1.972,22.615 -1.972,22.352L-1.972,-0.001C-1.972,-0.264 -1.874,-0.494 -1.677,-0.691C-1.479,-0.889 -1.249,-0.987 -0.986,-0.987C-0.701,-0.987 -0.466,-0.889 -0.279,-0.691C-0.093,-0.494 0,-0.264 0,-0.001L0,22.352Z" style="fill:rgb(179,184,206);fill-rule:nonzero;"/>
            </g>
            <g transform="matrix(1,0,0,1,252.78,907.085)">
                <path d="M0,17.521C-1.688,17.521 -3.178,17.159 -4.471,16.436C-5.764,15.713 -6.771,14.705 -7.495,13.413C-8.218,12.119 -8.58,10.607 -8.58,8.876C-8.58,7.014 -8.213,5.425 -7.479,4.11C-6.744,2.795 -5.791,1.782 -4.618,1.069C-3.446,0.356 -2.202,0 -0.887,0C0.076,0 1.013,0.17 1.923,0.509C2.832,0.85 3.643,1.354 4.356,2.022C5.068,2.691 5.637,3.508 6.065,4.472C6.492,5.435 6.728,6.554 6.771,7.825C6.749,8.086 6.641,8.313 6.443,8.497C6.246,8.685 6.016,8.778 5.752,8.778L-7.429,8.778L-7.824,7.001L5.128,7.001L4.701,7.396L4.701,6.74C4.591,5.709 4.251,4.838 3.682,4.126C3.112,3.415 2.427,2.865 1.627,2.482C0.827,2.1 -0.011,1.907 -0.887,1.907C-1.545,1.907 -2.219,2.038 -2.909,2.302C-3.6,2.565 -4.224,2.976 -4.783,3.534C-5.341,4.092 -5.797,4.805 -6.147,5.671C-6.498,6.536 -6.673,7.561 -6.673,8.745C-6.673,10.039 -6.41,11.21 -5.884,12.261C-5.358,13.315 -4.597,14.147 -3.6,14.759C-2.603,15.374 -1.413,15.681 -0.032,15.681C0.734,15.681 1.419,15.571 2.022,15.351C2.624,15.133 3.161,14.842 3.632,14.48C4.104,14.119 4.493,13.741 4.799,13.346C5.04,13.15 5.27,13.051 5.49,13.051C5.73,13.051 5.933,13.139 6.098,13.315C6.262,13.49 6.345,13.687 6.345,13.906C6.345,14.168 6.234,14.398 6.016,14.596C5.358,15.384 4.503,16.069 3.452,16.65C2.4,17.231 1.249,17.521 0,17.521" style="fill:rgb(179,184,206);fill-rule:nonzero;"/>
            </g>
            <g transform="matrix(1,0,0,1,263.201,924.298)">
                <path d="M0,-17.18C0.176,-17.18 0.35,-17.126 0.526,-17.015C0.701,-16.906 0.833,-16.741 0.921,-16.523L6.673,-2.847L6.246,-2.584L12.13,-16.523C12.305,-16.961 12.623,-17.169 13.084,-17.147C13.302,-17.147 13.51,-17.069 13.708,-16.917C13.905,-16.764 14.004,-16.566 14.004,-16.325C14.004,-16.193 13.987,-16.085 13.955,-15.997C13.921,-15.909 13.894,-15.832 13.872,-15.767L7.429,-0.646C7.253,-0.251 6.958,-0.042 6.541,-0.021C6.345,0 6.147,-0.049 5.95,-0.168C5.753,-0.289 5.621,-0.447 5.556,-0.646L-0.921,-15.733C-0.943,-15.8 -0.965,-15.876 -0.986,-15.963C-1.009,-16.051 -1.019,-16.139 -1.019,-16.227C-1.019,-16.467 -0.931,-16.687 -0.756,-16.885C-0.581,-17.082 -0.328,-17.18 0,-17.18" style="fill:rgb(179,184,206);fill-rule:nonzero;"/>
            </g>
            <g transform="matrix(1,0,0,1,287.855,908.925)">
                <path d="M0,13.841C1.161,13.841 2.191,13.539 3.09,12.937C3.989,12.335 4.695,11.501 5.211,10.439C5.725,9.375 5.983,8.186 5.983,6.871C5.983,5.6 5.725,4.445 5.211,3.404C4.695,2.363 3.989,1.541 3.09,0.937C2.191,0.335 1.161,0.035 0,0.035C-1.139,0.035 -2.165,0.324 -3.073,0.906C-3.983,1.487 -4.695,2.291 -5.211,3.321C-5.725,4.352 -5.983,5.535 -5.983,6.871C-5.983,8.186 -5.725,9.375 -5.211,10.439C-4.695,11.501 -3.989,12.335 -3.09,12.937C-2.192,13.539 -1.162,13.841 0,13.841M6.837,-1.445C7.122,-1.445 7.358,-1.347 7.544,-1.15C7.73,-0.952 7.824,-0.711 7.824,-0.427L7.824,14.366C7.824,14.629 7.725,14.859 7.528,15.056C7.331,15.254 7.101,15.353 6.837,15.353C6.53,15.353 6.289,15.254 6.114,15.056C5.938,14.859 5.851,14.629 5.851,14.366L5.851,10.454L6.41,10.224C6.41,10.816 6.24,11.436 5.901,12.082C5.561,12.728 5.096,13.32 4.503,13.857C3.912,14.394 3.216,14.833 2.416,15.172C1.616,15.511 0.756,15.681 -0.164,15.681C-1.655,15.681 -2.986,15.298 -4.158,14.531C-5.331,13.764 -6.252,12.712 -6.92,11.374C-7.589,10.038 -7.922,8.537 -7.922,6.871C-7.922,5.161 -7.583,3.655 -6.903,2.352C-6.225,1.048 -5.304,0.023 -4.142,-0.722C-2.98,-1.466 -1.677,-1.84 -0.23,-1.84C0.712,-1.84 1.594,-1.675 2.416,-1.347C3.238,-1.019 3.955,-0.569 4.569,0.001C5.183,0.572 5.664,1.223 6.016,1.957C6.366,2.691 6.541,3.453 6.541,4.241L5.851,3.748L5.851,-0.427C5.851,-0.711 5.938,-0.952 6.114,-1.15C6.289,-1.347 6.53,-1.445 6.837,-1.445" style="fill:rgb(179,184,206);fill-rule:nonzero;"/>
            </g>
            <g transform="matrix(1,0,0,1,308.4,924.277)">
                <path d="M0,-16.929C1.358,-16.929 2.519,-16.573 3.484,-15.86C4.448,-15.149 5.105,-14.09 5.456,-12.689L4.996,-12.558L5.193,-13.149C5.478,-13.806 5.955,-14.425 6.623,-15.007C7.292,-15.586 8.053,-16.053 8.908,-16.402C9.763,-16.753 10.629,-16.929 11.505,-16.929C12.885,-16.929 13.998,-16.632 14.842,-16.041C15.685,-15.449 16.299,-14.655 16.683,-13.658C17.065,-12.661 17.258,-11.537 17.258,-10.289L17.258,-0.986C17.258,-0.723 17.164,-0.493 16.979,-0.296C16.792,-0.098 16.556,0 16.272,0C15.965,0 15.723,-0.098 15.549,-0.296C15.373,-0.493 15.285,-0.723 15.285,-0.986L15.285,-10.191C15.285,-11.088 15.142,-11.91 14.858,-12.656C14.573,-13.4 14.124,-13.992 13.51,-14.431C12.897,-14.868 12.074,-15.087 11.045,-15.087C10.125,-15.087 9.258,-14.868 8.448,-14.431C7.637,-13.992 6.973,-13.4 6.459,-12.656C5.944,-11.91 5.686,-11.088 5.686,-10.191L5.686,-0.986C5.686,-0.723 5.593,-0.493 5.407,-0.296C5.22,-0.098 4.985,0 4.701,0C4.415,0 4.179,-0.098 3.994,-0.296C3.807,-0.493 3.714,-0.723 3.714,-0.986L3.714,-10.289C3.714,-11.186 3.582,-11.992 3.32,-12.705C3.057,-13.416 2.629,-13.992 2.037,-14.431C1.446,-14.868 0.646,-15.087 -0.362,-15.087C-1.261,-15.087 -2.11,-14.868 -2.91,-14.431C-3.71,-13.992 -4.356,-13.416 -4.849,-12.705C-5.342,-11.992 -5.589,-11.186 -5.589,-10.289L-5.589,-0.986C-5.589,-0.723 -5.687,-0.493 -5.885,-0.296C-6.081,-0.098 -6.312,0 -6.575,0C-6.882,0 -7.129,-0.098 -7.315,-0.296C-7.501,-0.493 -7.594,-0.723 -7.594,-0.986L-7.594,-15.712C-7.594,-15.976 -7.496,-16.206 -7.298,-16.402C-7.101,-16.601 -6.86,-16.699 -6.575,-16.699C-6.29,-16.699 -6.054,-16.601 -5.868,-16.402C-5.682,-16.206 -5.589,-15.976 -5.589,-15.712L-5.589,-12.656L-6.476,-11.439C-6.411,-12.098 -6.196,-12.754 -5.836,-13.411C-5.474,-14.069 -4.997,-14.661 -4.406,-15.187C-3.813,-15.712 -3.14,-16.134 -2.383,-16.451C-1.627,-16.769 -0.834,-16.929 0,-16.929" style="fill:rgb(179,184,206);fill-rule:nonzero;"/>
            </g>
            <g transform="matrix(1,0,0,1,344.494,915.828)">
                <path d="M0,0.035C0,-1.303 -0.274,-2.491 -0.822,-3.532C-1.37,-4.573 -2.12,-5.39 -3.073,-5.982C-4.026,-6.573 -5.118,-6.868 -6.345,-6.868C-7.528,-6.868 -8.602,-6.573 -9.566,-5.982C-10.53,-5.39 -11.292,-4.573 -11.85,-3.532C-12.41,-2.491 -12.689,-1.303 -12.689,0.035C-12.689,1.371 -12.41,2.554 -11.85,3.585C-11.292,4.615 -10.53,5.432 -9.566,6.034C-8.602,6.636 -7.528,6.938 -6.345,6.938C-5.118,6.938 -4.026,6.636 -3.073,6.034C-2.12,5.432 -1.37,4.615 -0.822,3.585C-0.274,2.554 0,1.371 0,0.035M1.972,0.035C1.972,1.699 1.611,3.195 0.887,4.521C0.164,5.848 -0.822,6.889 -2.071,7.644C-3.32,8.401 -4.745,8.778 -6.345,8.778C-7.901,8.778 -9.308,8.401 -10.569,7.644C-11.829,6.889 -12.826,5.848 -13.56,4.521C-14.294,3.195 -14.661,1.699 -14.661,0.035C-14.661,-1.652 -14.294,-3.155 -13.56,-4.47C-12.826,-5.785 -11.829,-6.824 -10.569,-7.591C-9.308,-8.359 -7.901,-8.743 -6.345,-8.743C-4.745,-8.743 -3.32,-8.359 -2.071,-7.591C-0.822,-6.824 0.164,-5.785 0.887,-4.47C1.611,-3.155 1.972,-1.652 1.972,0.035" style="fill:rgb(179,184,206);fill-rule:nonzero;"/>
            </g>
            <g transform="matrix(1,0,0,1,349.719,910.077)">
                <path d="M0,11.537C-0.176,11.275 -0.257,11.017 -0.246,10.765C-0.235,10.514 -0.098,10.31 0.165,10.157C0.34,10.004 0.542,9.938 0.772,9.96C1.003,9.982 1.217,10.09 1.414,10.289C2.006,11.056 2.723,11.674 3.567,12.146C4.41,12.617 5.413,12.852 6.575,12.852C7.188,12.852 7.797,12.748 8.399,12.539C9.002,12.332 9.501,12.015 9.895,11.586C10.29,11.16 10.486,10.617 10.486,9.96C10.486,9.281 10.29,8.739 9.895,8.333C9.501,7.927 8.991,7.599 8.366,7.346C7.742,7.095 7.068,6.881 6.345,6.706C5.6,6.509 4.882,6.284 4.192,6.031C3.502,5.78 2.882,5.463 2.334,5.078C1.786,4.695 1.354,4.228 1.036,3.681C0.718,3.133 0.559,2.464 0.559,1.676C0.559,0.756 0.806,-0.055 1.299,-0.758C1.792,-1.458 2.476,-2.006 3.353,-2.401C4.229,-2.794 5.205,-2.992 6.279,-2.992C6.849,-2.992 7.451,-2.921 8.087,-2.778C8.723,-2.636 9.347,-2.401 9.961,-2.071C10.574,-1.742 11.122,-1.293 11.605,-0.724C11.801,-0.526 11.9,-0.301 11.9,-0.05C11.9,0.203 11.791,0.438 11.571,0.657C11.396,0.789 11.194,0.849 10.963,0.838C10.733,0.826 10.541,0.735 10.388,0.557C9.862,-0.034 9.237,-0.477 8.515,-0.773C7.791,-1.068 7.013,-1.218 6.181,-1.218C5.544,-1.218 4.947,-1.117 4.389,-0.921C3.83,-0.724 3.364,-0.417 2.992,-0.001C2.618,0.415 2.433,0.965 2.433,1.642C2.476,2.28 2.701,2.794 3.107,3.187C3.512,3.582 4.048,3.911 4.717,4.174C5.386,4.437 6.136,4.678 6.969,4.897C7.67,5.073 8.344,5.282 8.991,5.522C9.637,5.763 10.207,6.065 10.701,6.426C11.194,6.788 11.588,7.243 11.884,7.791C12.18,8.338 12.328,9.028 12.328,9.86C12.328,10.826 12.059,11.658 11.522,12.359C10.985,13.061 10.268,13.598 9.369,13.97C8.47,14.342 7.473,14.529 6.377,14.529C5.194,14.529 4.048,14.299 2.942,13.839C1.836,13.379 0.855,12.611 0,11.537" style="fill:rgb(179,184,206);fill-rule:nonzero;"/>
            </g>
            <g transform="matrix(1,0,0,1,382.658,907.085)">
                <path d="M0,17.521C-1.688,17.521 -3.178,17.159 -4.471,16.436C-5.764,15.713 -6.771,14.705 -7.495,13.413C-8.218,12.119 -8.58,10.607 -8.58,8.876C-8.58,7.014 -8.213,5.425 -7.479,4.11C-6.744,2.795 -5.791,1.782 -4.618,1.069C-3.446,0.356 -2.202,0 -0.887,0C0.076,0 1.013,0.17 1.923,0.509C2.832,0.85 3.643,1.354 4.356,2.022C5.068,2.691 5.637,3.508 6.065,4.472C6.492,5.435 6.728,6.554 6.771,7.825C6.749,8.086 6.641,8.313 6.443,8.497C6.246,8.685 6.016,8.778 5.752,8.778L-7.429,8.778L-7.824,7.001L5.128,7.001L4.701,7.396L4.701,6.74C4.591,5.709 4.251,4.838 3.682,4.126C3.112,3.415 2.427,2.865 1.627,2.482C0.827,2.1 -0.011,1.907 -0.887,1.907C-1.545,1.907 -2.219,2.038 -2.909,2.302C-3.6,2.565 -4.224,2.976 -4.783,3.534C-5.341,4.092 -5.797,4.805 -6.147,5.671C-6.498,6.536 -6.673,7.561 -6.673,8.745C-6.673,10.039 -6.41,11.21 -5.884,12.261C-5.358,13.315 -4.597,14.147 -3.6,14.759C-2.603,15.374 -1.413,15.681 -0.033,15.681C0.734,15.681 1.419,15.571 2.022,15.351C2.624,15.133 3.161,14.842 3.632,14.48C4.104,14.119 4.493,13.741 4.799,13.346C5.04,13.15 5.27,13.051 5.49,13.051C5.73,13.051 5.933,13.139 6.098,13.315C6.262,13.49 6.345,13.687 6.345,13.906C6.345,14.168 6.234,14.398 6.016,14.596C5.358,15.384 4.503,16.069 3.452,16.65C2.4,17.231 1.249,17.521 0,17.521" style="fill:rgb(179,184,206);fill-rule:nonzero;"/>
            </g>
            <g transform="matrix(1,0,0,1,395.806,900.939)">
                <path d="M0,22.352C0,22.615 -0.098,22.845 -0.296,23.042C-0.493,23.24 -0.723,23.339 -0.986,23.339C-1.271,23.339 -1.507,23.24 -1.693,23.042C-1.879,22.845 -1.972,22.615 -1.972,22.352L-1.972,-0.001C-1.972,-0.264 -1.874,-0.494 -1.677,-0.691C-1.479,-0.889 -1.249,-0.987 -0.986,-0.987C-0.701,-0.987 -0.466,-0.889 -0.279,-0.691C-0.093,-0.494 0,-0.264 0,-0.001L0,22.352Z" style="fill:rgb(179,184,206);fill-rule:nonzero;"/>
            </g>
            <g transform="matrix(1,0,0,1,417.108,908.925)">
                <path d="M0,13.841C1.161,13.841 2.191,13.539 3.09,12.937C3.989,12.335 4.695,11.501 5.211,10.439C5.725,9.375 5.983,8.186 5.983,6.871C5.983,5.6 5.725,4.445 5.211,3.404C4.695,2.363 3.989,1.541 3.09,0.937C2.191,0.335 1.161,0.035 0,0.035C-1.139,0.035 -2.165,0.324 -3.073,0.906C-3.983,1.487 -4.695,2.291 -5.211,3.321C-5.725,4.352 -5.983,5.535 -5.983,6.871C-5.983,8.186 -5.725,9.375 -5.211,10.439C-4.695,11.501 -3.989,12.335 -3.09,12.937C-2.192,13.539 -1.162,13.841 0,13.841M6.837,-1.445C7.122,-1.445 7.358,-1.347 7.544,-1.15C7.73,-0.952 7.824,-0.711 7.824,-0.427L7.824,14.366C7.824,14.629 7.725,14.859 7.528,15.056C7.331,15.254 7.101,15.353 6.837,15.353C6.53,15.353 6.29,15.254 6.114,15.056C5.938,14.859 5.851,14.629 5.851,14.366L5.851,10.454L6.41,10.224C6.41,10.816 6.24,11.436 5.901,12.082C5.561,12.728 5.096,13.32 4.503,13.857C3.912,14.394 3.216,14.833 2.416,15.172C1.616,15.511 0.756,15.681 -0.164,15.681C-1.655,15.681 -2.986,15.298 -4.158,14.531C-5.331,13.764 -6.252,12.712 -6.92,11.374C-7.589,10.038 -7.922,8.537 -7.922,6.871C-7.922,5.161 -7.583,3.655 -6.903,2.352C-6.225,1.048 -5.304,0.023 -4.142,-0.722C-2.98,-1.466 -1.677,-1.84 -0.23,-1.84C0.712,-1.84 1.594,-1.675 2.416,-1.347C3.238,-1.019 3.955,-0.569 4.569,0.001C5.183,0.572 5.665,1.223 6.016,1.957C6.366,2.691 6.541,3.453 6.541,4.241L5.851,3.748L5.851,-0.427C5.851,-0.711 5.938,-0.952 6.114,-1.15C6.29,-1.347 6.53,-1.445 6.837,-1.445" style="fill:rgb(179,184,206);fill-rule:nonzero;"/>
            </g>
            <g transform="matrix(1,0,0,1,432.262,900.939)">
                <path d="M0,22.352C0,22.615 -0.098,22.845 -0.296,23.042C-0.493,23.24 -0.723,23.339 -0.986,23.339C-1.271,23.339 -1.507,23.24 -1.693,23.042C-1.879,22.845 -1.972,22.615 -1.972,22.352L-1.972,-0.001C-1.972,-0.264 -1.874,-0.494 -1.677,-0.691C-1.479,-0.889 -1.249,-0.987 -0.986,-0.987C-0.701,-0.987 -0.466,-0.889 -0.279,-0.691C-0.093,-0.494 0,-0.264 0,-0.001L0,22.352Z" style="fill:rgb(179,184,206);fill-rule:nonzero;"/>
            </g>
            <g transform="matrix(1,0,0,1,439.559,903.207)">
                <path d="M0,20.084C0,20.347 -0.098,20.577 -0.296,20.774C-0.492,20.972 -0.722,21.071 -0.986,21.071C-1.293,21.071 -1.534,20.972 -1.709,20.774C-1.885,20.577 -1.972,20.347 -1.972,20.084L-1.972,4.963C-1.972,4.7 -1.879,4.47 -1.692,4.273C-1.506,4.076 -1.271,3.976 -0.986,3.976C-0.701,3.976 -0.465,4.076 -0.279,4.273C-0.093,4.47 0,4.7 0,4.963L0,20.084ZM-0.986,1.775C-1.446,1.775 -1.792,1.671 -2.022,1.462C-2.252,1.255 -2.367,0.953 -2.367,0.558L-2.367,0.23C-2.367,-0.165 -2.24,-0.466 -1.988,-0.674C-1.736,-0.883 -1.391,-0.987 -0.953,-0.987C-0.537,-0.987 -0.213,-0.883 0.017,-0.674C0.247,-0.466 0.362,-0.165 0.362,0.23L0.362,0.558C0.362,0.953 0.247,1.255 0.017,1.462C-0.213,1.671 -0.548,1.775 -0.986,1.775" style="fill:rgb(179,184,206);fill-rule:nonzero;"/>
            </g>
            <g transform="matrix(1,0,0,1,444.292,924.298)">
                <path d="M0,-17.18C0.176,-17.18 0.35,-17.126 0.526,-17.015C0.701,-16.906 0.833,-16.741 0.921,-16.523L6.673,-2.847L6.246,-2.584L12.13,-16.523C12.305,-16.961 12.623,-17.169 13.084,-17.147C13.302,-17.147 13.51,-17.069 13.708,-16.917C13.905,-16.764 14.004,-16.566 14.004,-16.325C14.004,-16.193 13.987,-16.085 13.955,-15.997C13.921,-15.909 13.894,-15.832 13.872,-15.767L7.429,-0.646C7.253,-0.251 6.958,-0.042 6.541,-0.021C6.345,0 6.147,-0.049 5.95,-0.168C5.753,-0.289 5.621,-0.447 5.556,-0.646L-0.921,-15.733C-0.943,-15.8 -0.965,-15.876 -0.986,-15.963C-1.009,-16.051 -1.019,-16.139 -1.019,-16.227C-1.019,-16.467 -0.931,-16.687 -0.756,-16.885C-0.581,-17.082 -0.328,-17.18 0,-17.18" style="fill:rgb(179,184,206);fill-rule:nonzero;"/>
            </g>
            <g transform="matrix(1,0,0,1,463.982,903.207)">
                <path d="M0,20.084C0,20.347 -0.098,20.577 -0.296,20.774C-0.492,20.972 -0.722,21.071 -0.986,21.071C-1.293,21.071 -1.534,20.972 -1.709,20.774C-1.885,20.577 -1.972,20.347 -1.972,20.084L-1.972,4.963C-1.972,4.7 -1.879,4.47 -1.692,4.273C-1.506,4.076 -1.271,3.976 -0.986,3.976C-0.701,3.976 -0.465,4.076 -0.279,4.273C-0.093,4.47 0,4.7 0,4.963L0,20.084ZM-0.986,1.775C-1.446,1.775 -1.792,1.671 -2.022,1.462C-2.252,1.255 -2.367,0.953 -2.367,0.558L-2.367,0.23C-2.367,-0.165 -2.24,-0.466 -1.988,-0.674C-1.736,-0.883 -1.391,-0.987 -0.953,-0.987C-0.537,-0.987 -0.213,-0.883 0.017,-0.674C0.247,-0.466 0.362,-0.165 0.362,0.23L0.362,0.558C0.362,0.953 0.247,1.255 0.017,1.462C-0.213,1.671 -0.548,1.775 -0.986,1.775" style="fill:rgb(179,184,206);fill-rule:nonzero;"/>
            </g>
            <g transform="matrix(1,0,0,1,482.786,915.828)">
                <path d="M0,0.035C0,-1.303 -0.274,-2.491 -0.822,-3.532C-1.37,-4.573 -2.12,-5.39 -3.073,-5.982C-4.026,-6.573 -5.118,-6.868 -6.345,-6.868C-7.528,-6.868 -8.602,-6.573 -9.566,-5.982C-10.53,-5.39 -11.292,-4.573 -11.85,-3.532C-12.41,-2.491 -12.689,-1.303 -12.689,0.035C-12.689,1.371 -12.41,2.554 -11.85,3.585C-11.292,4.615 -10.53,5.432 -9.566,6.034C-8.602,6.636 -7.528,6.938 -6.345,6.938C-5.118,6.938 -4.026,6.636 -3.073,6.034C-2.12,5.432 -1.37,4.615 -0.822,3.585C-0.274,2.554 0,1.371 0,0.035M1.972,0.035C1.972,1.699 1.611,3.195 0.887,4.521C0.164,5.848 -0.822,6.889 -2.071,7.644C-3.32,8.401 -4.745,8.778 -6.345,8.778C-7.901,8.778 -9.308,8.401 -10.569,7.644C-11.829,6.889 -12.826,5.848 -13.56,4.521C-14.294,3.195 -14.661,1.699 -14.661,0.035C-14.661,-1.652 -14.294,-3.155 -13.56,-4.47C-12.826,-5.785 -11.829,-6.824 -10.569,-7.591C-9.308,-8.359 -7.901,-8.743 -6.345,-8.743C-4.745,-8.743 -3.32,-8.359 -2.071,-7.591C-0.822,-6.824 0.164,-5.785 0.887,-4.47C1.611,-3.155 1.972,-1.652 1.972,0.035" style="fill:rgb(179,184,206);fill-rule:nonzero;"/>
            </g>
            <g transform="matrix(1,0,0,1,504.875,908.925)">
                <path d="M0,13.841C1.161,13.841 2.191,13.539 3.09,12.937C3.989,12.335 4.695,11.501 5.211,10.439C5.725,9.375 5.983,8.186 5.983,6.871C5.983,5.6 5.725,4.445 5.211,3.404C4.695,2.363 3.989,1.541 3.09,0.937C2.191,0.335 1.161,0.035 0,0.035C-1.139,0.035 -2.165,0.324 -3.073,0.906C-3.983,1.487 -4.695,2.291 -5.211,3.321C-5.725,4.352 -5.983,5.535 -5.983,6.871C-5.983,8.186 -5.725,9.375 -5.211,10.439C-4.695,11.501 -3.989,12.335 -3.09,12.937C-2.192,13.539 -1.162,13.841 0,13.841M6.837,-1.445C7.122,-1.445 7.358,-1.347 7.544,-1.15C7.73,-0.952 7.824,-0.711 7.824,-0.427L7.824,14.366C7.824,14.629 7.725,14.859 7.528,15.056C7.331,15.254 7.101,15.353 6.837,15.353C6.53,15.353 6.29,15.254 6.114,15.056C5.938,14.859 5.851,14.629 5.851,14.366L5.851,10.454L6.41,10.224C6.41,10.816 6.24,11.436 5.901,12.082C5.561,12.728 5.096,13.32 4.503,13.857C3.912,14.394 3.216,14.833 2.416,15.172C1.616,15.511 0.756,15.681 -0.164,15.681C-1.655,15.681 -2.986,15.298 -4.158,14.531C-5.331,13.764 -6.252,12.712 -6.92,11.374C-7.589,10.038 -7.922,8.537 -7.922,6.871C-7.922,5.161 -7.583,3.655 -6.903,2.352C-6.225,1.048 -5.304,0.023 -4.142,-0.722C-2.98,-1.466 -1.677,-1.84 -0.23,-1.84C0.712,-1.84 1.594,-1.675 2.416,-1.347C3.238,-1.019 3.955,-0.569 4.569,0.001C5.183,0.572 5.665,1.223 6.016,1.957C6.366,2.691 6.541,3.453 6.541,4.241L5.851,3.748L5.851,-0.427C5.851,-0.711 5.938,-0.952 6.114,-1.15C6.29,-1.347 6.53,-1.445 6.837,-1.445" style="fill:rgb(179,184,206);fill-rule:nonzero;"/>
            </g>
            <g transform="matrix(1,0,0,1,534.23,924.606)">
                <path d="M0,-17.521C1.052,-17.521 2.016,-17.405 2.893,-17.175C3.769,-16.945 4.476,-16.633 5.013,-16.239C5.55,-15.844 5.819,-15.416 5.819,-14.956C5.819,-14.737 5.742,-14.524 5.589,-14.315C5.435,-14.106 5.227,-14.003 4.964,-14.003C4.679,-14.003 4.455,-14.062 4.29,-14.184C4.126,-14.305 3.967,-14.457 3.813,-14.644C3.66,-14.83 3.43,-14.989 3.123,-15.121C2.838,-15.274 2.427,-15.4 1.891,-15.499C1.354,-15.597 0.757,-15.646 0.099,-15.646C-1.129,-15.646 -2.235,-15.341 -3.222,-14.726C-4.207,-14.113 -4.986,-13.29 -5.555,-12.261C-6.125,-11.231 -6.41,-10.07 -6.41,-8.776C-6.41,-7.461 -6.136,-6.278 -5.588,-5.226C-5.04,-4.175 -4.285,-3.346 -3.32,-2.744C-2.356,-2.142 -1.227,-1.84 0.066,-1.84C0.921,-1.84 1.595,-1.917 2.087,-2.07C2.581,-2.224 2.992,-2.4 3.321,-2.597C3.759,-2.837 4.07,-3.072 4.257,-3.304C4.443,-3.534 4.69,-3.648 4.997,-3.648C5.282,-3.648 5.495,-3.566 5.638,-3.402C5.78,-3.237 5.852,-3.023 5.852,-2.762C5.852,-2.41 5.593,-2.021 5.079,-1.594C4.564,-1.166 3.857,-0.793 2.959,-0.476C2.06,-0.158 1.019,0 -0.164,0C-1.786,0 -3.216,-0.383 -4.454,-1.15C-5.693,-1.917 -6.656,-2.963 -7.346,-4.289C-8.037,-5.614 -8.382,-7.11 -8.382,-8.776C-8.382,-10.376 -8.032,-11.833 -7.331,-13.148C-6.629,-14.463 -5.654,-15.521 -4.405,-16.32C-3.156,-17.121 -1.687,-17.521 0,-17.521" style="fill:rgb(179,184,206);fill-rule:nonzero;"/>
            </g>
            <g transform="matrix(1,0,0,1,550.798,908.925)">
                <path d="M0,13.841C1.162,13.841 2.191,13.539 3.09,12.937C3.989,12.335 4.695,11.501 5.211,10.439C5.725,9.375 5.983,8.186 5.983,6.871C5.983,5.6 5.725,4.445 5.211,3.404C4.695,2.363 3.989,1.541 3.09,0.937C2.191,0.335 1.162,0.035 0,0.035C-1.139,0.035 -2.165,0.324 -3.072,0.906C-3.984,1.487 -4.695,2.291 -5.211,3.321C-5.725,4.352 -5.983,5.535 -5.983,6.871C-5.983,8.186 -5.725,9.375 -5.211,10.439C-4.695,11.501 -3.989,12.335 -3.09,12.937C-2.191,13.539 -1.162,13.841 0,13.841M6.836,-1.445C7.121,-1.445 7.358,-1.347 7.544,-1.15C7.73,-0.952 7.823,-0.711 7.823,-0.427L7.823,14.366C7.823,14.629 7.725,14.859 7.528,15.056C7.331,15.254 7.1,15.353 6.836,15.353C6.531,15.353 6.289,15.254 6.113,15.056C5.937,14.859 5.851,14.629 5.851,14.366L5.851,10.454L6.41,10.224C6.41,10.816 6.239,11.436 5.901,12.082C5.562,12.728 5.095,13.32 4.503,13.857C3.911,14.394 3.216,14.833 2.416,15.172C1.615,15.511 0.755,15.681 -0.165,15.681C-1.654,15.681 -2.986,15.298 -4.157,14.531C-5.33,13.764 -6.252,12.712 -6.921,11.374C-7.589,10.038 -7.922,8.537 -7.922,6.871C-7.922,5.161 -7.583,3.655 -6.903,2.352C-6.225,1.048 -5.304,0.023 -4.142,-0.722C-2.981,-1.466 -1.677,-1.84 -0.23,-1.84C0.713,-1.84 1.594,-1.675 2.416,-1.347C3.237,-1.019 3.955,-0.569 4.568,0.001C5.183,0.572 5.664,1.223 6.015,1.957C6.366,2.691 6.541,3.453 6.541,4.241L5.851,3.748L5.851,-0.427C5.851,-0.711 5.937,-0.952 6.113,-1.15C6.289,-1.347 6.531,-1.445 6.836,-1.445" style="fill:rgb(179,184,206);fill-rule:nonzero;"/>
            </g>
            <g transform="matrix(1,0,0,1,562.827,910.077)">
                <path d="M0,11.537C-0.176,11.275 -0.256,11.017 -0.246,10.765C-0.235,10.514 -0.098,10.31 0.165,10.157C0.341,10.004 0.544,9.938 0.772,9.96C1.004,9.982 1.218,10.09 1.415,10.289C2.007,11.056 2.725,11.674 3.567,12.146C4.41,12.617 5.414,12.852 6.577,12.852C7.189,12.852 7.798,12.748 8.399,12.539C9.003,12.332 9.501,12.015 9.895,11.586C10.291,11.16 10.488,10.617 10.488,9.96C10.488,9.281 10.291,8.739 9.895,8.333C9.501,7.927 8.992,7.599 8.367,7.346C7.742,7.095 7.068,6.881 6.345,6.706C5.6,6.509 4.884,6.284 4.192,6.031C3.502,5.78 2.883,5.463 2.335,5.078C1.787,4.695 1.355,4.228 1.036,3.681C0.72,3.133 0.56,2.464 0.56,1.676C0.56,0.756 0.808,-0.055 1.299,-0.758C1.792,-1.458 2.477,-2.006 3.353,-2.401C4.231,-2.794 5.207,-2.992 6.28,-2.992C6.85,-2.992 7.451,-2.921 8.088,-2.778C8.724,-2.636 9.347,-2.401 9.961,-2.071C10.576,-1.742 11.124,-1.293 11.605,-0.724C11.801,-0.526 11.901,-0.301 11.901,-0.05C11.901,0.203 11.791,0.438 11.573,0.657C11.397,0.789 11.194,0.849 10.964,0.838C10.734,0.826 10.541,0.735 10.39,0.557C9.863,-0.034 9.238,-0.477 8.515,-0.773C7.791,-1.068 7.014,-1.218 6.182,-1.218C5.544,-1.218 4.947,-1.117 4.389,-0.921C3.831,-0.724 3.364,-0.417 2.992,-0.001C2.619,0.415 2.433,0.965 2.433,1.642C2.477,2.28 2.702,2.794 3.107,3.187C3.513,3.582 4.048,3.911 4.719,4.174C5.386,4.437 6.138,4.678 6.97,4.897C7.672,5.073 8.346,5.282 8.992,5.522C9.638,5.763 10.207,6.065 10.702,6.426C11.194,6.788 11.589,7.243 11.886,7.791C12.18,8.338 12.328,9.028 12.328,9.86C12.328,10.826 12.061,11.658 11.524,12.359C10.987,13.061 10.269,13.598 9.37,13.97C8.471,14.342 7.474,14.529 6.378,14.529C5.195,14.529 4.048,14.299 2.942,13.839C1.836,13.379 0.857,12.611 0,11.537" style="fill:rgb(179,184,206);fill-rule:nonzero;"/>
            </g>
            <g transform="matrix(1,0,0,1,586.398,908.925)">
                <path d="M0,13.841C1.16,13.841 2.191,13.539 3.09,12.937C3.989,12.335 4.695,11.501 5.211,10.439C5.723,9.375 5.983,8.186 5.983,6.871C5.983,5.6 5.723,4.445 5.211,3.404C4.695,2.363 3.989,1.541 3.09,0.937C2.191,0.335 1.16,0.035 0,0.035C-1.141,0.035 -2.166,0.324 -3.074,0.906C-3.985,1.487 -4.696,2.291 -5.211,3.321C-5.727,4.352 -5.983,5.535 -5.983,6.871C-5.983,8.186 -5.727,9.375 -5.211,10.439C-4.696,11.501 -3.989,12.335 -3.09,12.937C-2.193,13.539 -1.162,13.841 0,13.841M6.836,-1.445C7.121,-1.445 7.356,-1.347 7.542,-1.15C7.728,-0.952 7.823,-0.711 7.823,-0.427L7.823,14.366C7.823,14.629 7.725,14.859 7.528,15.056C7.33,15.254 7.1,15.353 6.836,15.353C6.529,15.353 6.289,15.254 6.113,15.056C5.937,14.859 5.85,14.629 5.85,14.366L5.85,10.454L6.408,10.224C6.408,10.816 6.24,11.436 5.899,12.082C5.56,12.728 5.095,13.32 4.501,13.857C3.912,14.394 3.216,14.833 2.416,15.172C1.615,15.511 0.755,15.681 -0.165,15.681C-1.656,15.681 -2.988,15.298 -4.159,14.531C-5.332,13.764 -6.253,12.712 -6.921,11.374C-7.59,10.038 -7.923,8.537 -7.923,6.871C-7.923,5.161 -7.584,3.655 -6.903,2.352C-6.225,1.048 -5.305,0.023 -4.143,-0.722C-2.981,-1.466 -1.678,-1.84 -0.232,-1.84C0.711,-1.84 1.594,-1.675 2.416,-1.347C3.237,-1.019 3.954,-0.569 4.568,0.001C5.183,0.572 5.664,1.223 6.015,1.957C6.366,2.691 6.541,3.453 6.541,4.241L5.85,3.748L5.85,-0.427C5.85,-0.711 5.937,-0.952 6.113,-1.15C6.289,-1.347 6.529,-1.445 6.836,-1.445" style="fill:rgb(179,184,206);fill-rule:nonzero;"/>
            </g>
            <g transform="matrix(1,0,0,1,615.752,924.606)">
                <path d="M0,-17.521C1.052,-17.521 2.016,-17.405 2.893,-17.175C3.769,-16.945 4.477,-16.633 5.014,-16.239C5.55,-15.844 5.818,-15.416 5.818,-14.956C5.818,-14.737 5.741,-14.524 5.588,-14.315C5.435,-14.106 5.227,-14.003 4.965,-14.003C4.679,-14.003 4.454,-14.062 4.291,-14.184C4.126,-14.305 3.966,-14.457 3.813,-14.644C3.66,-14.83 3.43,-14.989 3.123,-15.121C2.839,-15.274 2.428,-15.4 1.891,-15.499C1.354,-15.597 0.757,-15.646 0.098,-15.646C-1.129,-15.646 -2.235,-15.341 -3.222,-14.726C-4.206,-14.113 -4.986,-13.29 -5.555,-12.261C-6.125,-11.231 -6.41,-10.07 -6.41,-8.776C-6.41,-7.461 -6.136,-6.278 -5.588,-5.226C-5.04,-4.175 -4.284,-3.346 -3.32,-2.744C-2.356,-2.142 -1.227,-1.84 0.067,-1.84C0.92,-1.84 1.594,-1.917 2.087,-2.07C2.581,-2.224 2.992,-2.4 3.32,-2.597C3.759,-2.837 4.071,-3.072 4.257,-3.304C4.443,-3.534 4.689,-3.648 4.997,-3.648C5.281,-3.648 5.495,-3.566 5.637,-3.402C5.78,-3.237 5.852,-3.023 5.852,-2.762C5.852,-2.41 5.593,-2.021 5.079,-1.594C4.565,-1.166 3.857,-0.793 2.958,-0.476C2.059,-0.158 1.02,0 -0.163,0C-1.787,0 -3.216,-0.383 -4.454,-1.15C-5.692,-1.917 -6.657,-2.963 -7.345,-4.289C-8.037,-5.614 -8.381,-7.11 -8.381,-8.776C-8.381,-10.376 -8.032,-11.833 -7.331,-13.148C-6.629,-14.463 -5.653,-15.521 -4.405,-16.32C-3.157,-17.121 -1.687,-17.521 0,-17.521" style="fill:rgb(179,184,206);fill-rule:nonzero;"/>
            </g>
            <g transform="matrix(1,0,0,1,637.941,924.507)">
                <path d="M0,-16.929C0.284,-16.929 0.52,-16.831 0.706,-16.632C0.892,-16.436 0.987,-16.206 0.987,-15.942L0.987,-6.673C0.987,-4.503 0.372,-2.849 -0.855,-1.71C-2.082,-0.568 -3.738,0 -5.818,0C-7.9,0 -9.551,-0.568 -10.765,-1.71C-11.982,-2.849 -12.591,-4.503 -12.591,-6.673L-12.591,-15.942C-12.591,-16.206 -12.491,-16.436 -12.295,-16.632C-12.098,-16.831 -11.856,-16.929 -11.571,-16.929C-11.287,-16.929 -11.052,-16.831 -10.864,-16.632C-10.679,-16.436 -10.585,-16.206 -10.585,-15.942L-10.585,-6.673C-10.585,-5.094 -10.163,-3.895 -9.319,-3.074C-8.476,-2.252 -7.309,-1.839 -5.818,-1.839C-4.307,-1.839 -3.128,-2.252 -2.284,-3.074C-1.441,-3.895 -1.02,-5.094 -1.02,-6.673L-1.02,-15.942C-1.02,-16.206 -0.927,-16.436 -0.739,-16.632C-0.555,-16.831 -0.307,-16.929 0,-16.929" style="fill:rgb(179,184,206);fill-rule:nonzero;"/>
            </g>
            <g transform="matrix(1,0,0,1,651.024,908.925)">
                <path d="M0,13.841C1.162,13.841 2.191,13.539 3.09,12.937C3.989,12.335 4.695,11.501 5.211,10.439C5.725,9.375 5.983,8.186 5.983,6.871C5.983,5.6 5.725,4.445 5.211,3.404C4.695,2.363 3.989,1.541 3.09,0.937C2.191,0.335 1.162,0.035 0,0.035C-1.139,0.035 -2.165,0.324 -3.074,0.906C-3.984,1.487 -4.696,2.291 -5.211,3.321C-5.725,4.352 -5.983,5.535 -5.983,6.871C-5.983,8.186 -5.725,9.375 -5.211,10.439C-4.696,11.501 -3.989,12.335 -3.09,12.937C-2.191,13.539 -1.162,13.841 0,13.841M6.838,-1.445C7.123,-1.445 7.358,-1.347 7.544,-1.15C7.73,-0.952 7.823,-0.711 7.823,-0.427L7.823,14.366C7.823,14.629 7.725,14.859 7.528,15.056C7.331,15.254 7.1,15.353 6.838,15.353C6.531,15.353 6.289,15.254 6.115,15.056C5.939,14.859 5.852,14.629 5.852,14.366L5.852,10.454L6.41,10.224C6.41,10.816 6.24,11.436 5.901,12.082C5.56,12.728 5.095,13.32 4.503,13.857C3.911,14.394 3.216,14.833 2.416,15.172C1.615,15.511 0.757,15.681 -0.165,15.681C-1.656,15.681 -2.986,15.298 -4.159,14.531C-5.332,13.764 -6.252,12.712 -6.919,11.374C-7.588,10.038 -7.923,8.537 -7.923,6.871C-7.923,5.161 -7.583,3.655 -6.903,2.352C-6.224,1.048 -5.304,0.023 -4.141,-0.722C-2.981,-1.466 -1.677,-1.84 -0.23,-1.84C0.713,-1.84 1.594,-1.675 2.416,-1.347C3.237,-1.019 3.955,-0.569 4.57,0.001C5.183,0.572 5.665,1.223 6.017,1.957C6.366,2.691 6.541,3.453 6.541,4.241L5.852,3.748L5.852,-0.427C5.852,-0.711 5.939,-0.952 6.115,-1.15C6.289,-1.347 6.531,-1.445 6.838,-1.445" style="fill:rgb(179,184,206);fill-rule:nonzero;"/>
            </g>
            <g transform="matrix(1,0,0,1,671.93,924.278)">
                <path d="M0,-17.193C1.447,-17.193 2.602,-16.902 3.467,-16.322C4.333,-15.741 4.958,-14.951 5.341,-13.954C5.725,-12.957 5.916,-11.856 5.916,-10.652L5.916,-0.987C5.916,-0.724 5.818,-0.494 5.621,-0.297C5.423,-0.099 5.193,0 4.93,0C4.622,0 4.377,-0.099 4.191,-0.297C4.005,-0.494 3.911,-0.724 3.911,-0.987L3.911,-10.551C3.911,-11.429 3.769,-12.228 3.485,-12.951C3.199,-13.675 2.739,-14.251 2.103,-14.677C1.468,-15.106 0.625,-15.318 -0.428,-15.318C-1.371,-15.318 -2.263,-15.106 -3.107,-14.677C-3.95,-14.251 -4.635,-13.675 -5.162,-12.951C-5.688,-12.228 -5.95,-11.429 -5.95,-10.551L-5.95,-0.987C-5.95,-0.724 -6.05,-0.494 -6.247,-0.297C-6.443,-0.099 -6.673,0 -6.936,0C-7.244,0 -7.49,-0.099 -7.676,-0.297C-7.863,-0.494 -7.956,-0.724 -7.956,-0.987L-7.956,-15.713C-7.956,-15.976 -7.856,-16.206 -7.66,-16.403C-7.463,-16.601 -7.221,-16.7 -6.936,-16.7C-6.652,-16.7 -6.417,-16.601 -6.229,-16.403C-6.045,-16.206 -5.95,-15.976 -5.95,-15.713L-5.95,-12.951L-6.706,-11.768C-6.663,-12.47 -6.438,-13.143 -6.032,-13.791C-5.627,-14.437 -5.107,-15.018 -4.472,-15.532C-3.836,-16.047 -3.129,-16.452 -2.351,-16.749C-1.573,-17.044 -0.79,-17.193 0,-17.193" style="fill:rgb(179,184,206);fill-rule:nonzero;"/>
            </g>
            <g transform="matrix(1,0,0,1,689.944,901.792)">
                <path d="M0,20.974C1.183,20.974 2.219,20.672 3.106,20.07C3.994,19.468 4.695,18.644 5.211,17.603C5.725,16.564 5.983,15.374 5.983,14.038C5.983,12.723 5.725,11.545 5.211,10.503C4.695,9.462 3.989,8.646 3.09,8.054C2.191,7.463 1.162,7.168 0,7.168C-1.139,7.168 -2.165,7.463 -3.074,8.054C-3.984,8.646 -4.696,9.462 -5.211,10.503C-5.725,11.545 -5.983,12.723 -5.983,14.038C-5.983,15.353 -5.725,16.536 -5.211,17.587C-4.696,18.639 -3.984,19.468 -3.074,20.07C-2.165,20.672 -1.139,20.974 0,20.974M6.838,-1.84C7.122,-1.84 7.358,-1.742 7.544,-1.544C7.73,-1.347 7.823,-1.117 7.823,-0.854L7.823,21.499C7.823,21.762 7.725,21.992 7.528,22.189C7.331,22.387 7.1,22.486 6.838,22.486C6.531,22.486 6.289,22.387 6.115,22.189C5.939,21.992 5.851,21.762 5.851,21.499L5.851,17.587L6.41,17.127C6.41,17.763 6.246,18.414 5.916,19.083C5.588,19.752 5.123,20.365 4.521,20.925C3.917,21.483 3.216,21.938 2.416,22.289C1.615,22.638 0.757,22.814 -0.165,22.814C-1.633,22.814 -2.953,22.431 -4.126,21.664C-5.298,20.897 -6.224,19.856 -6.903,18.541C-7.583,17.226 -7.923,15.725 -7.923,14.038C-7.923,12.371 -7.583,10.876 -6.903,9.55C-6.224,8.225 -5.304,7.184 -4.142,6.427C-2.981,5.672 -1.677,5.293 -0.23,5.293C0.69,5.293 1.555,5.458 2.367,5.786C3.178,6.114 3.896,6.564 4.521,7.134C5.144,7.705 5.637,8.356 5.999,9.09C6.361,9.824 6.541,10.586 6.541,11.374L5.851,10.881L5.851,-0.854C5.851,-1.117 5.939,-1.347 6.115,-1.544C6.289,-1.742 6.531,-1.84 6.838,-1.84" style="fill:rgb(179,184,206);fill-rule:nonzero;"/>
            </g>
            <g transform="matrix(1,0,0,1,716.602,915.828)">
                <path d="M0,0.035C0,-1.303 -0.274,-2.491 -0.822,-3.532C-1.369,-4.573 -2.119,-5.39 -3.072,-5.982C-4.026,-6.573 -5.116,-6.868 -6.343,-6.868C-7.526,-6.868 -8.601,-6.573 -9.565,-5.982C-10.53,-5.39 -11.29,-4.573 -11.85,-3.532C-12.409,-2.491 -12.688,-1.303 -12.688,0.035C-12.688,1.371 -12.409,2.554 -11.85,3.585C-11.29,4.615 -10.53,5.432 -9.565,6.034C-8.601,6.636 -7.526,6.938 -6.343,6.938C-5.116,6.938 -4.026,6.636 -3.072,6.034C-2.119,5.432 -1.369,4.615 -0.822,3.585C-0.274,2.554 0,1.371 0,0.035M1.973,0.035C1.973,1.699 1.612,3.195 0.888,4.521C0.165,5.848 -0.822,6.889 -2.07,7.644C-3.32,8.401 -4.744,8.778 -6.343,8.778C-7.9,8.778 -9.308,8.401 -10.567,7.644C-11.828,6.889 -12.825,5.848 -13.559,4.521C-14.294,3.195 -14.661,1.699 -14.661,0.035C-14.661,-1.652 -14.294,-3.155 -13.559,-4.47C-12.825,-5.785 -11.828,-6.824 -10.567,-7.591C-9.308,-8.359 -7.9,-8.743 -6.343,-8.743C-4.744,-8.743 -3.32,-8.359 -2.07,-7.591C-0.822,-6.824 0.165,-5.785 0.888,-4.47C1.612,-3.155 1.973,-1.652 1.973,0.035" style="fill:rgb(179,184,206);fill-rule:nonzero;"/>
            </g>
            <g transform="matrix(1,0,0,1,739.318,924.277)">
                <path d="M0,-16.929C1.359,-16.929 2.519,-16.573 3.485,-15.86C4.449,-15.149 5.105,-14.09 5.456,-12.689L4.997,-12.558L5.193,-13.149C5.478,-13.806 5.955,-14.425 6.624,-15.007C7.291,-15.586 8.053,-16.053 8.908,-16.402C9.763,-16.753 10.629,-16.929 11.505,-16.929C12.886,-16.929 13.998,-16.632 14.842,-16.041C15.685,-15.449 16.299,-14.655 16.682,-13.658C17.066,-12.661 17.258,-11.537 17.258,-10.289L17.258,-0.986C17.258,-0.723 17.165,-0.493 16.979,-0.296C16.793,-0.098 16.555,0 16.271,0C15.964,0 15.723,-0.098 15.548,-0.296C15.372,-0.493 15.286,-0.723 15.286,-0.986L15.286,-10.191C15.286,-11.088 15.142,-11.91 14.858,-12.656C14.573,-13.4 14.124,-13.992 13.51,-14.431C12.897,-14.868 12.075,-15.087 11.045,-15.087C10.125,-15.087 9.259,-14.868 8.448,-14.431C7.637,-13.992 6.973,-13.4 6.459,-12.656C5.945,-11.91 5.686,-11.088 5.686,-10.191L5.686,-0.986C5.686,-0.723 5.593,-0.493 5.407,-0.296C5.221,-0.098 4.984,0 4.7,0C4.415,0 4.18,-0.098 3.994,-0.296C3.808,-0.493 3.715,-0.723 3.715,-0.986L3.715,-10.289C3.715,-11.186 3.583,-11.992 3.32,-12.705C3.057,-13.416 2.63,-13.992 2.038,-14.431C1.447,-14.868 0.646,-15.087 -0.362,-15.087C-1.26,-15.087 -2.11,-14.868 -2.909,-14.431C-3.71,-13.992 -4.356,-13.416 -4.849,-12.705C-5.342,-11.992 -5.588,-11.186 -5.588,-10.289L-5.588,-0.986C-5.588,-0.723 -5.688,-0.493 -5.885,-0.296C-6.081,-0.098 -6.311,0 -6.575,0C-6.882,0 -7.128,-0.098 -7.314,-0.296C-7.502,-0.493 -7.595,-0.723 -7.595,-0.986L-7.595,-15.712C-7.595,-15.976 -7.495,-16.206 -7.298,-16.402C-7.101,-16.601 -6.859,-16.699 -6.575,-16.699C-6.29,-16.699 -6.055,-16.601 -5.867,-16.402C-5.683,-16.206 -5.588,-15.976 -5.588,-15.712L-5.588,-12.656L-6.476,-11.439C-6.41,-12.098 -6.197,-12.754 -5.836,-13.411C-5.474,-14.069 -4.996,-14.661 -4.405,-15.187C-3.813,-15.712 -3.139,-16.134 -2.384,-16.451C-1.627,-16.769 -0.834,-16.929 0,-16.929" style="fill:rgb(179,184,206);fill-rule:nonzero;"/>
            </g>
            <g transform="matrix(1,0,0,1,768.441,919.708)">
                <path d="M0,-13.543C-0.132,-13.543 -0.253,-13.603 -0.362,-13.724C-0.472,-13.843 -0.527,-13.982 -0.527,-14.135C-0.527,-14.266 -0.472,-14.419 -0.362,-14.595L1.643,-17.718C1.752,-17.893 1.896,-18.057 2.072,-18.211C2.245,-18.364 2.465,-18.441 2.728,-18.441C3.079,-18.441 3.353,-18.353 3.55,-18.178C3.748,-18.002 3.834,-17.751 3.813,-17.421C3.813,-17.268 3.785,-17.132 3.731,-17.01C3.676,-16.891 3.594,-16.775 3.485,-16.666L1.018,-14.07C0.888,-13.915 0.734,-13.789 0.558,-13.69C0.383,-13.592 0.197,-13.543 0,-13.543M0.23,3.058C1.392,3.058 2.421,2.756 3.32,2.154C4.219,1.552 4.925,0.718 5.441,-0.344C5.955,-1.408 6.213,-2.597 6.213,-3.912C6.213,-5.183 5.955,-6.338 5.441,-7.379C4.925,-8.42 4.219,-9.242 3.32,-9.846C2.421,-10.448 1.392,-10.748 0.23,-10.748C-0.909,-10.748 -1.935,-10.458 -2.844,-9.877C-3.753,-9.296 -4.466,-8.492 -4.981,-7.462C-5.495,-6.431 -5.753,-5.248 -5.753,-3.912C-5.753,-2.597 -5.495,-1.408 -4.981,-0.344C-4.466,0.718 -3.759,1.552 -2.86,2.154C-1.961,2.756 -0.932,3.058 0.23,3.058M7.068,-12.228C7.353,-12.228 7.588,-12.13 7.774,-11.933C7.96,-11.735 8.053,-11.494 8.053,-11.21L8.053,3.583C8.053,3.846 7.955,4.076 7.758,4.273C7.561,4.471 7.33,4.57 7.068,4.57C6.761,4.57 6.519,4.471 6.345,4.273C6.169,4.076 6.081,3.846 6.081,3.583L6.081,-0.328L6.64,-0.558C6.64,0.033 6.469,0.653 6.131,1.299C5.79,1.945 5.325,2.537 4.733,3.074C4.142,3.611 3.446,4.05 2.646,4.389C1.845,4.728 0.987,4.898 0.065,4.898C-1.426,4.898 -2.756,4.515 -3.929,3.748C-5.102,2.981 -6.022,1.929 -6.689,0.591C-7.358,-0.745 -7.693,-2.246 -7.693,-3.912C-7.693,-5.622 -7.353,-7.128 -6.673,-8.431C-5.994,-9.735 -5.074,-10.76 -3.911,-11.505C-2.751,-12.249 -1.447,-12.623 0,-12.623C0.943,-12.623 1.824,-12.458 2.646,-12.13C3.467,-11.801 4.185,-11.352 4.8,-10.781C5.413,-10.211 5.895,-9.56 6.247,-8.826C6.596,-8.092 6.771,-7.33 6.771,-6.542L6.081,-7.035L6.081,-11.21C6.081,-11.494 6.169,-11.735 6.345,-11.933C6.519,-12.13 6.761,-12.228 7.068,-12.228" style="fill:rgb(179,184,206);fill-rule:nonzero;"/>
            </g>
            <g transform="matrix(1,0,0,1,780.703,910.077)">
                <path d="M0,11.537C-0.176,11.275 -0.258,11.017 -0.246,10.765C-0.235,10.514 -0.098,10.31 0.165,10.157C0.341,10.004 0.542,9.938 0.772,9.96C1.002,9.982 1.217,10.09 1.413,10.289C2.005,11.056 2.723,11.674 3.567,12.146C4.41,12.617 5.413,12.852 6.575,12.852C7.187,12.852 7.797,12.748 8.399,12.539C9.001,12.332 9.501,12.015 9.895,11.586C10.29,11.16 10.486,10.617 10.486,9.96C10.486,9.281 10.29,8.739 9.895,8.333C9.501,7.927 8.99,7.599 8.367,7.346C7.742,7.095 7.068,6.881 6.345,6.706C5.599,6.509 4.882,6.284 4.192,6.031C3.501,5.78 2.883,5.463 2.335,5.078C1.785,4.695 1.354,4.228 1.036,3.681C0.718,3.133 0.56,2.464 0.56,1.676C0.56,0.756 0.806,-0.055 1.299,-0.758C1.792,-1.458 2.477,-2.006 3.353,-2.401C4.229,-2.794 5.205,-2.992 6.28,-2.992C6.849,-2.992 7.451,-2.921 8.086,-2.778C8.722,-2.636 9.347,-2.401 9.961,-2.071C10.574,-1.742 11.122,-1.293 11.605,-0.724C11.801,-0.526 11.9,-0.301 11.9,-0.05C11.9,0.203 11.791,0.438 11.571,0.657C11.396,0.789 11.194,0.849 10.964,0.838C10.734,0.826 10.541,0.735 10.388,0.557C9.861,-0.034 9.238,-0.477 8.515,-0.773C7.791,-1.068 7.014,-1.218 6.18,-1.218C5.544,-1.218 4.947,-1.117 4.389,-0.921C3.831,-0.724 3.364,-0.417 2.992,-0.001C2.619,0.415 2.433,0.965 2.433,1.642C2.477,2.28 2.702,2.794 3.107,3.187C3.511,3.582 4.048,3.911 4.717,4.174C5.386,4.437 6.136,4.678 6.97,4.897C7.67,5.073 8.344,5.282 8.99,5.522C9.637,5.763 10.207,6.065 10.701,6.426C11.194,6.788 11.587,7.243 11.884,7.791C12.18,8.338 12.328,9.028 12.328,9.86C12.328,10.826 12.059,11.658 11.522,12.359C10.985,13.061 10.267,13.598 9.37,13.97C8.471,14.342 7.474,14.529 6.378,14.529C5.195,14.529 4.048,14.299 2.942,13.839C1.836,13.379 0.855,12.611 0,11.537" style="fill:rgb(179,184,206);fill-rule:nonzero;"/>
            </g>
            <g transform="matrix(1,0,0,1,808.217,900.939)">
                <path d="M0,22.352C0,22.615 -0.098,22.845 -0.297,23.042C-0.493,23.24 -0.723,23.339 -0.987,23.339C-1.271,23.339 -1.506,23.24 -1.692,23.042C-1.879,22.845 -1.972,22.615 -1.972,22.352L-1.972,-0.001C-1.972,-0.264 -1.873,-0.494 -1.677,-0.691C-1.48,-0.889 -1.25,-0.987 -0.987,-0.987C-0.702,-0.987 -0.465,-0.889 -0.279,-0.691C-0.093,-0.494 0,-0.264 0,-0.001L0,22.352Z" style="fill:rgb(179,184,206);fill-rule:nonzero;"/>
            </g>
            <g transform="matrix(1,0,0,1,826.953,915.828)">
                <path d="M0,0.035C0,-1.303 -0.274,-2.491 -0.822,-3.532C-1.369,-4.573 -2.119,-5.39 -3.072,-5.982C-4.026,-6.573 -5.116,-6.868 -6.343,-6.868C-7.526,-6.868 -8.601,-6.573 -9.565,-5.982C-10.53,-5.39 -11.29,-4.573 -11.85,-3.532C-12.409,-2.491 -12.688,-1.303 -12.688,0.035C-12.688,1.371 -12.409,2.554 -11.85,3.585C-11.29,4.615 -10.53,5.432 -9.565,6.034C-8.601,6.636 -7.526,6.938 -6.343,6.938C-5.116,6.938 -4.026,6.636 -3.072,6.034C-2.119,5.432 -1.369,4.615 -0.822,3.585C-0.274,2.554 0,1.371 0,0.035M1.973,0.035C1.973,1.699 1.612,3.195 0.888,4.521C0.165,5.848 -0.822,6.889 -2.07,7.644C-3.32,8.401 -4.744,8.778 -6.343,8.778C-7.9,8.778 -9.308,8.401 -10.567,7.644C-11.828,6.889 -12.825,5.848 -13.559,4.521C-14.294,3.195 -14.661,1.699 -14.661,0.035C-14.661,-1.652 -14.294,-3.155 -13.559,-4.47C-12.825,-5.785 -11.828,-6.824 -10.567,-7.591C-9.308,-8.359 -7.9,-8.743 -6.343,-8.743C-4.744,-8.743 -3.32,-8.359 -2.07,-7.591C-0.822,-6.824 0.165,-5.785 0.888,-4.47C1.612,-3.155 1.973,-1.652 1.973,0.035" style="fill:rgb(179,184,206);fill-rule:nonzero;"/>
            </g>
            <g transform="matrix(1,0,0,1,850.03,924.278)">
                <path d="M0,-17.193C1.447,-17.193 2.602,-16.902 3.467,-16.322C4.333,-15.741 4.958,-14.951 5.341,-13.954C5.725,-12.957 5.916,-11.856 5.916,-10.652L5.916,-0.987C5.916,-0.724 5.818,-0.494 5.621,-0.297C5.423,-0.099 5.193,0 4.93,0C4.622,0 4.377,-0.099 4.191,-0.297C4.005,-0.494 3.911,-0.724 3.911,-0.987L3.911,-10.551C3.911,-11.429 3.769,-12.228 3.485,-12.951C3.199,-13.675 2.739,-14.251 2.103,-14.677C1.468,-15.106 0.625,-15.318 -0.428,-15.318C-1.371,-15.318 -2.263,-15.106 -3.107,-14.677C-3.95,-14.251 -4.635,-13.675 -5.162,-12.951C-5.688,-12.228 -5.95,-11.429 -5.95,-10.551L-5.95,-0.987C-5.95,-0.724 -6.05,-0.494 -6.247,-0.297C-6.443,-0.099 -6.673,0 -6.936,0C-7.244,0 -7.49,-0.099 -7.676,-0.297C-7.863,-0.494 -7.956,-0.724 -7.956,-0.987L-7.956,-15.713C-7.956,-15.976 -7.856,-16.206 -7.66,-16.403C-7.463,-16.601 -7.221,-16.7 -6.936,-16.7C-6.652,-16.7 -6.417,-16.601 -6.229,-16.403C-6.045,-16.206 -5.95,-15.976 -5.95,-15.713L-5.95,-12.951L-6.706,-11.768C-6.663,-12.47 -6.438,-13.143 -6.032,-13.791C-5.627,-14.437 -5.107,-15.018 -4.472,-15.532C-3.836,-16.047 -3.129,-16.452 -2.351,-16.749C-1.573,-17.044 -0.79,-17.193 0,-17.193" style="fill:rgb(179,184,206);fill-rule:nonzero;"/>
            </g>
            <g transform="matrix(1,0,0,1,868.703,907.085)">
                <path d="M0,17.521C-1.689,17.521 -3.179,17.159 -4.472,16.436C-5.765,15.713 -6.773,14.705 -7.496,13.413C-8.22,12.119 -8.581,10.607 -8.581,8.876C-8.581,7.014 -8.215,5.425 -7.479,4.11C-6.745,2.795 -5.792,1.782 -4.619,1.069C-3.448,0.356 -2.203,0 -0.888,0C0.076,0 1.013,0.17 1.922,0.509C2.832,0.85 3.643,1.354 4.354,2.022C5.067,2.691 5.637,3.508 6.064,4.472C6.492,5.435 6.728,6.554 6.771,7.825C6.749,8.086 6.64,8.313 6.441,8.497C6.245,8.685 6.015,8.778 5.751,8.778L-7.43,8.778L-7.825,7.001L5.126,7.001L4.7,7.396L4.7,6.74C4.589,5.709 4.25,4.838 3.682,4.126C3.111,3.415 2.426,2.865 1.626,2.482C0.827,2.1 -0.012,1.907 -0.888,1.907C-1.547,1.907 -2.219,2.038 -2.911,2.302C-3.601,2.565 -4.226,2.976 -4.784,3.534C-5.342,4.092 -5.797,4.805 -6.148,5.671C-6.499,6.536 -6.675,7.561 -6.675,8.745C-6.675,10.039 -6.411,11.21 -5.885,12.261C-5.36,13.315 -4.598,14.147 -3.601,14.759C-2.604,15.374 -1.415,15.681 -0.033,15.681C0.734,15.681 1.419,15.571 2.021,15.351C2.623,15.133 3.16,14.842 3.632,14.48C4.103,14.119 4.491,13.741 4.798,13.346C5.039,13.15 5.27,13.051 5.488,13.051C5.73,13.051 5.932,13.139 6.097,13.315C6.261,13.49 6.343,13.687 6.343,13.906C6.343,14.168 6.234,14.398 6.015,14.596C5.358,15.384 4.503,16.069 3.452,16.65C2.398,17.231 1.248,17.521 0,17.521" style="fill:rgb(179,184,206);fill-rule:nonzero;"/>
            </g>
            <g transform="matrix(1,0,0,1,887.077,924.606)">
                <path d="M0,-17.521C1.052,-17.521 2.015,-17.405 2.893,-17.175C3.769,-16.945 4.477,-16.633 5.014,-16.239C5.549,-15.844 5.818,-15.416 5.818,-14.956C5.818,-14.737 5.741,-14.524 5.588,-14.315C5.435,-14.106 5.227,-14.003 4.965,-14.003C4.679,-14.003 4.454,-14.062 4.291,-14.184C4.126,-14.305 3.966,-14.457 3.813,-14.644C3.66,-14.83 3.43,-14.989 3.123,-15.121C2.839,-15.274 2.428,-15.4 1.891,-15.499C1.354,-15.597 0.757,-15.646 0.098,-15.646C-1.129,-15.646 -2.235,-15.341 -3.222,-14.726C-4.208,-14.113 -4.986,-13.29 -5.555,-12.261C-6.125,-11.231 -6.41,-10.07 -6.41,-8.776C-6.41,-7.461 -6.136,-6.278 -5.588,-5.226C-5.04,-4.175 -4.284,-3.346 -3.32,-2.744C-2.356,-2.142 -1.227,-1.84 0.067,-1.84C0.92,-1.84 1.594,-1.917 2.087,-2.07C2.581,-2.224 2.992,-2.4 3.32,-2.597C3.759,-2.837 4.071,-3.072 4.257,-3.304C4.443,-3.534 4.689,-3.648 4.996,-3.648C5.281,-3.648 5.495,-3.566 5.637,-3.402C5.779,-3.237 5.852,-3.023 5.852,-2.762C5.852,-2.41 5.593,-2.021 5.079,-1.594C4.565,-1.166 3.857,-0.793 2.958,-0.476C2.059,-0.158 1.02,0 -0.163,0C-1.785,0 -3.216,-0.383 -4.454,-1.15C-5.692,-1.917 -6.656,-2.963 -7.347,-4.289C-8.037,-5.614 -8.383,-7.11 -8.383,-8.776C-8.383,-10.376 -8.032,-11.833 -7.33,-13.148C-6.629,-14.463 -5.653,-15.521 -4.405,-16.32C-3.155,-17.121 -1.687,-17.521 0,-17.521" style="fill:rgb(179,184,206);fill-rule:nonzero;"/>
            </g>
            <g transform="matrix(1,0,0,1,904.304,907.085)">
                <path d="M0,17.521C-1.689,17.521 -3.179,17.159 -4.472,16.436C-5.765,15.713 -6.773,14.705 -7.497,13.413C-8.22,12.119 -8.581,10.607 -8.581,8.876C-8.581,7.014 -8.215,5.425 -7.479,4.11C-6.745,2.795 -5.792,1.782 -4.619,1.069C-3.448,0.356 -2.203,0 -0.888,0C0.076,0 1.013,0.17 1.922,0.509C2.832,0.85 3.643,1.354 4.354,2.022C5.067,2.691 5.637,3.508 6.064,4.472C6.492,5.435 6.728,6.554 6.771,7.825C6.749,8.086 6.64,8.313 6.441,8.497C6.245,8.685 6.015,8.778 5.751,8.778L-7.43,8.778L-7.825,7.001L5.126,7.001L4.7,7.396L4.7,6.74C4.589,5.709 4.25,4.838 3.682,4.126C3.111,3.415 2.426,2.865 1.626,2.482C0.827,2.1 -0.012,1.907 -0.888,1.907C-1.547,1.907 -2.219,2.038 -2.911,2.302C-3.601,2.565 -4.226,2.976 -4.784,3.534C-5.342,4.092 -5.797,4.805 -6.148,5.671C-6.499,6.536 -6.675,7.561 -6.675,8.745C-6.675,10.039 -6.411,11.21 -5.885,12.261C-5.36,13.315 -4.598,14.147 -3.601,14.759C-2.604,15.374 -1.415,15.681 -0.033,15.681C0.734,15.681 1.419,15.571 2.021,15.351C2.623,15.133 3.16,14.842 3.632,14.48C4.103,14.119 4.491,13.741 4.798,13.346C5.039,13.15 5.27,13.051 5.488,13.051C5.73,13.051 5.932,13.139 6.097,13.315C6.261,13.49 6.343,13.687 6.343,13.906C6.343,14.168 6.234,14.398 6.015,14.596C5.358,15.384 4.503,16.069 3.452,16.65C2.398,17.231 1.248,17.521 0,17.521" style="fill:rgb(179,184,206);fill-rule:nonzero;"/>
            </g>
            <g transform="matrix(1,0,0,1,914.326,910.077)">
                <path d="M0,11.537C-0.176,11.275 -0.258,11.017 -0.246,10.765C-0.235,10.514 -0.098,10.31 0.165,10.157C0.341,10.004 0.542,9.938 0.772,9.96C1.002,9.982 1.217,10.09 1.413,10.289C2.005,11.056 2.723,11.674 3.567,12.146C4.41,12.617 5.413,12.852 6.575,12.852C7.187,12.852 7.797,12.748 8.399,12.539C9.001,12.332 9.501,12.015 9.895,11.586C10.29,11.16 10.486,10.617 10.486,9.96C10.486,9.281 10.29,8.739 9.895,8.333C9.501,7.927 8.991,7.599 8.367,7.346C7.742,7.095 7.068,6.881 6.345,6.706C5.599,6.509 4.882,6.284 4.192,6.031C3.501,5.78 2.883,5.463 2.335,5.078C1.785,4.695 1.354,4.228 1.036,3.681C0.718,3.133 0.56,2.464 0.56,1.676C0.56,0.756 0.806,-0.055 1.299,-0.758C1.792,-1.458 2.477,-2.006 3.353,-2.401C4.229,-2.794 5.205,-2.992 6.28,-2.992C6.849,-2.992 7.451,-2.921 8.086,-2.778C8.722,-2.636 9.347,-2.401 9.961,-2.071C10.574,-1.742 11.122,-1.293 11.605,-0.724C11.801,-0.526 11.9,-0.301 11.9,-0.05C11.9,0.203 11.791,0.438 11.571,0.657C11.396,0.789 11.194,0.849 10.964,0.838C10.734,0.826 10.541,0.735 10.388,0.557C9.861,-0.034 9.238,-0.477 8.515,-0.773C7.791,-1.068 7.014,-1.218 6.18,-1.218C5.544,-1.218 4.947,-1.117 4.389,-0.921C3.831,-0.724 3.364,-0.417 2.992,-0.001C2.619,0.415 2.433,0.965 2.433,1.642C2.477,2.28 2.702,2.794 3.107,3.187C3.511,3.582 4.048,3.911 4.717,4.174C5.386,4.437 6.136,4.678 6.97,4.897C7.67,5.073 8.344,5.282 8.991,5.522C9.637,5.763 10.207,6.065 10.701,6.426C11.194,6.788 11.587,7.243 11.884,7.791C12.18,8.338 12.328,9.028 12.328,9.86C12.328,10.826 12.059,11.658 11.522,12.359C10.985,13.061 10.267,13.598 9.37,13.97C8.471,14.342 7.474,14.529 6.378,14.529C5.195,14.529 4.048,14.299 2.942,13.839C1.836,13.379 0.855,12.611 0,11.537" style="fill:rgb(179,184,206);fill-rule:nonzero;"/>
            </g>
            <g transform="matrix(1,0,0,1,932.604,903.207)">
                <path d="M0,20.084C0,20.347 -0.098,20.577 -0.295,20.774C-0.493,20.972 -0.723,21.071 -0.987,21.071C-1.292,21.071 -1.534,20.972 -1.708,20.774C-1.884,20.577 -1.972,20.347 -1.972,20.084L-1.972,4.963C-1.972,4.7 -1.879,4.47 -1.692,4.273C-1.506,4.076 -1.271,3.976 -0.987,3.976C-0.701,3.976 -0.465,4.076 -0.279,4.273C-0.093,4.47 0,4.7 0,4.963L0,20.084ZM-0.987,1.775C-1.447,1.775 -1.791,1.671 -2.021,1.462C-2.251,1.255 -2.367,0.953 -2.367,0.558L-2.367,0.23C-2.367,-0.165 -2.24,-0.466 -1.989,-0.674C-1.736,-0.883 -1.392,-0.987 -0.953,-0.987C-0.537,-0.987 -0.212,-0.883 0.018,-0.674C0.247,-0.466 0.362,-0.165 0.362,0.23L0.362,0.558C0.362,0.953 0.247,1.255 0.018,1.462C-0.212,1.671 -0.548,1.775 -0.987,1.775" style="fill:rgb(179,184,206);fill-rule:nonzero;"/>
            </g>
            <g transform="matrix(1,0,0,1,940.034,924.278)">
                <path d="M0,-21.368C0.284,-21.368 0.52,-21.27 0.706,-21.071C0.892,-20.875 0.987,-20.645 0.987,-20.381L0.987,-3.879C0.987,-3.266 1.067,-2.806 1.232,-2.499C1.397,-2.191 1.61,-1.989 1.873,-1.891C2.137,-1.791 2.4,-1.742 2.663,-1.742C2.837,-1.742 2.997,-1.77 3.139,-1.824C3.281,-1.879 3.441,-1.907 3.617,-1.907C3.813,-1.907 3.982,-1.83 4.126,-1.677C4.268,-1.522 4.34,-1.326 4.34,-1.085C4.34,-0.778 4.163,-0.52 3.813,-0.313C3.462,-0.104 3.046,0 2.563,0C2.367,0 2.072,-0.016 1.677,-0.05C1.282,-0.083 0.876,-0.202 0.46,-0.411C0.044,-0.62 -0.307,-0.987 -0.592,-1.512C-0.878,-2.039 -1.02,-2.795 -1.02,-3.78L-1.02,-20.381C-1.02,-20.645 -0.92,-20.875 -0.723,-21.071C-0.527,-21.27 -0.284,-21.368 0,-21.368M-3.387,-16.733L4.273,-16.733C4.536,-16.733 4.754,-16.638 4.932,-16.452C5.105,-16.266 5.193,-16.041 5.193,-15.78C5.193,-15.517 5.105,-15.297 4.932,-15.122C4.754,-14.946 4.536,-14.858 4.273,-14.858L-3.387,-14.858C-3.648,-14.858 -3.875,-14.951 -4.061,-15.137C-4.247,-15.323 -4.34,-15.55 -4.34,-15.811C-4.34,-16.075 -4.247,-16.294 -4.061,-16.47C-3.875,-16.645 -3.648,-16.733 -3.387,-16.733" style="fill:rgb(179,184,206);fill-rule:nonzero;"/>
            </g>
            <g transform="matrix(1,0,0,1,955.812,908.925)">
                <path d="M0,13.841C1.162,13.841 2.191,13.539 3.09,12.937C3.989,12.335 4.695,11.501 5.211,10.439C5.725,9.375 5.983,8.186 5.983,6.871C5.983,5.6 5.725,4.445 5.211,3.404C4.695,2.363 3.989,1.541 3.09,0.937C2.191,0.335 1.162,0.035 0,0.035C-1.139,0.035 -2.165,0.324 -3.074,0.906C-3.984,1.487 -4.696,2.291 -5.211,3.321C-5.725,4.352 -5.983,5.535 -5.983,6.871C-5.983,8.186 -5.725,9.375 -5.211,10.439C-4.696,11.501 -3.989,12.335 -3.09,12.937C-2.191,13.539 -1.162,13.841 0,13.841M6.838,-1.445C7.123,-1.445 7.358,-1.347 7.544,-1.15C7.73,-0.952 7.823,-0.711 7.823,-0.427L7.823,14.366C7.823,14.629 7.725,14.859 7.528,15.056C7.331,15.254 7.1,15.353 6.838,15.353C6.531,15.353 6.289,15.254 6.115,15.056C5.939,14.859 5.851,14.629 5.851,14.366L5.851,10.454L6.41,10.224C6.41,10.816 6.239,11.436 5.901,12.082C5.56,12.728 5.095,13.32 4.503,13.857C3.911,14.394 3.216,14.833 2.416,15.172C1.615,15.511 0.757,15.681 -0.165,15.681C-1.656,15.681 -2.986,15.298 -4.159,14.531C-5.332,13.764 -6.252,12.712 -6.919,11.374C-7.588,10.038 -7.923,8.537 -7.923,6.871C-7.923,5.161 -7.583,3.655 -6.903,2.352C-6.224,1.048 -5.304,0.023 -4.142,-0.722C-2.981,-1.466 -1.677,-1.84 -0.23,-1.84C0.713,-1.84 1.594,-1.675 2.416,-1.347C3.237,-1.019 3.955,-0.569 4.57,0.001C5.183,0.572 5.665,1.223 6.016,1.957C6.366,2.691 6.541,3.453 6.541,4.241L5.851,3.748L5.851,-0.427C5.851,-0.711 5.939,-0.952 6.115,-1.15C6.289,-1.347 6.531,-1.445 6.838,-1.445" style="fill:rgb(179,184,206);fill-rule:nonzero;"/>
            </g>
            <g transform="matrix(1,0,0,1,967.843,910.077)">
                <path d="M0,11.537C-0.176,11.275 -0.258,11.017 -0.246,10.765C-0.235,10.514 -0.098,10.31 0.165,10.157C0.341,10.004 0.542,9.938 0.772,9.96C1.002,9.982 1.217,10.09 1.413,10.289C2.005,11.056 2.723,11.674 3.567,12.146C4.41,12.617 5.413,12.852 6.575,12.852C7.187,12.852 7.797,12.748 8.399,12.539C9.001,12.332 9.501,12.015 9.895,11.586C10.29,11.16 10.486,10.617 10.486,9.96C10.486,9.281 10.29,8.739 9.895,8.333C9.501,7.927 8.991,7.599 8.367,7.346C7.742,7.095 7.068,6.881 6.345,6.706C5.599,6.509 4.882,6.284 4.192,6.031C3.501,5.78 2.883,5.463 2.335,5.078C1.785,4.695 1.354,4.228 1.036,3.681C0.718,3.133 0.56,2.464 0.56,1.676C0.56,0.756 0.806,-0.055 1.299,-0.758C1.792,-1.458 2.477,-2.006 3.353,-2.401C4.229,-2.794 5.205,-2.992 6.28,-2.992C6.849,-2.992 7.451,-2.921 8.086,-2.778C8.722,-2.636 9.347,-2.401 9.961,-2.071C10.574,-1.742 11.122,-1.293 11.605,-0.724C11.801,-0.526 11.9,-0.301 11.9,-0.05C11.9,0.203 11.791,0.438 11.571,0.657C11.396,0.789 11.194,0.849 10.964,0.838C10.734,0.826 10.541,0.735 10.388,0.557C9.861,-0.034 9.238,-0.477 8.515,-0.773C7.791,-1.068 7.014,-1.218 6.18,-1.218C5.544,-1.218 4.947,-1.117 4.389,-0.921C3.831,-0.724 3.364,-0.417 2.992,-0.001C2.619,0.415 2.433,0.965 2.433,1.642C2.477,2.28 2.702,2.794 3.107,3.187C3.511,3.582 4.048,3.911 4.717,4.174C5.386,4.437 6.136,4.678 6.97,4.897C7.67,5.073 8.344,5.282 8.991,5.522C9.637,5.763 10.207,6.065 10.701,6.426C11.194,6.788 11.587,7.243 11.884,7.791C12.18,8.338 12.328,9.028 12.328,9.86C12.328,10.826 12.059,11.658 11.522,12.359C10.985,13.061 10.267,13.598 9.37,13.97C8.471,14.342 7.474,14.529 6.378,14.529C5.195,14.529 4.048,14.299 2.942,13.839C1.836,13.379 0.855,12.611 0,11.537" style="fill:rgb(179,184,206);fill-rule:nonzero;"/>
            </g>
            <g transform="matrix(1,0,0,1,657.186,774.127)">
                <path d="M0,-34.022C1.067,-30.6 -0.371,-26.905 -2.205,-23.825C-4.039,-20.745 -6.33,-17.831 -7.193,-14.351C-8.577,-8.766 -5.522,-2.409 -0.296,0C5.65,-3.354 9.872,-9.917 10.281,-16.731C10.69,-23.545 5.502,-29.981 0,-34.022" style="fill:rgb(245,228,215);fill-rule:nonzero;"/>
            </g>
        </g>
    </g>
</svg>
